{
	"patcher" : 	{
		"fileversion" : 1,
		"rect" : [ 488.0, 44.0, 640.0, 506.0 ],
		"bglocked" : 0,
		"defrect" : [ 488.0, 44.0, 640.0, 506.0 ],
		"openrect" : [ 0.0, 0.0, 0.0, 0.0 ],
		"openinpresentation" : 0,
		"default_fontsize" : 12.0,
		"default_fontface" : 0,
		"default_fontname" : "Arial",
		"gridonopen" : 0,
		"gridsize" : [ 15.0, 15.0 ],
		"gridsnaponopen" : 0,
		"toolbarvisible" : 1,
		"boxanimatetime" : 200,
		"imprint" : 0,
		"metadata" : [  ],
		"boxes" : [ 			{
				"box" : 				{
					"maxclass" : "message",
					"text" : "/bar 19, bang",
					"fontsize" : 12.0,
					"patching_rect" : [ 115.0, 76.0, 81.0, 18.0 ],
					"outlettype" : [ "" ],
					"id" : "obj-2",
					"fontname" : "Arial",
					"numinlets" : 2,
					"presentation_rect" : [ 115.0, 76.0, 0.0, 0.0 ],
					"numoutlets" : 1
				}

			}
, 			{
				"box" : 				{
					"maxclass" : "newobj",
					"text" : "print",
					"fontsize" : 12.0,
					"patching_rect" : [ 205.0, 238.0, 34.0, 20.0 ],
					"id" : "obj-5",
					"fontname" : "Arial",
					"numinlets" : 1,
					"numoutlets" : 0
				}

			}
, 			{
				"box" : 				{
					"maxclass" : "message",
					"text" : "/foo 19, bang",
					"fontsize" : 12.0,
					"patching_rect" : [ 205.0, 103.0, 81.0, 18.0 ],
					"outlettype" : [ "" ],
					"id" : "obj-4",
					"fontname" : "Arial",
					"numinlets" : 2,
					"numoutlets" : 1
				}

			}
, 			{
				"box" : 				{
					"maxclass" : "newobj",
					"text" : "OpenSoundControl",
					"fontsize" : 12.0,
					"patching_rect" : [ 205.0, 131.0, 113.0, 20.0 ],
					"outlettype" : [ "", "", "OSCTimeTag" ],
					"id" : "obj-1",
					"fontname" : "Arial",
					"numinlets" : 1,
					"numoutlets" : 3
				}

			}
, 			{
				"box" : 				{
					"maxclass" : "newobj",
					"text" : "cmmjl_test",
					"fontsize" : 12.0,
					"patching_rect" : [ 205.0, 198.0, 68.0, 20.0 ],
					"outlettype" : [ "" ],
					"id" : "obj-3",
					"fontname" : "Arial",
					"numinlets" : 1,
					"numoutlets" : 1
				}

			}
 ],
		"lines" : [ 			{
				"patchline" : 				{
					"source" : [ "obj-2", 0 ],
					"destination" : [ "obj-1", 0 ],
					"hidden" : 0,
					"midpoints" : [  ]
				}

			}
, 			{
				"patchline" : 				{
					"source" : [ "obj-4", 0 ],
					"destination" : [ "obj-1", 0 ],
					"hidden" : 0,
					"midpoints" : [  ]
				}

			}
, 			{
				"patchline" : 				{
					"source" : [ "obj-1", 0 ],
					"destination" : [ "obj-3", 0 ],
					"hidden" : 0,
					"midpoints" : [  ]
				}

			}
, 			{
				"patchline" : 				{
					"source" : [ "obj-3", 0 ],
					"destination" : [ "obj-5", 0 ],
					"hidden" : 0,
					"midpoints" : [  ]
				}

			}
 ]
	}

}
