{
	"patcher" : 	{
		"fileversion" : 1,
		"rect" : [ 544.0, 44.0, 666.0, 598.0 ],
		"bglocked" : 0,
		"defrect" : [ 544.0, 44.0, 666.0, 598.0 ],
		"openrect" : [ 0.0, 0.0, 0.0, 0.0 ],
		"openinpresentation" : 0,
		"default_fontsize" : 12.0,
		"default_fontface" : 0,
		"default_fontname" : "Arial",
		"gridonopen" : 0,
		"gridsize" : [ 15.0, 15.0 ],
		"gridsnaponopen" : 0,
		"toolbarvisible" : 1,
		"boxanimatetime" : 200,
		"imprint" : 0,
		"metadata" : [  ],
		"boxes" : [ 			{
				"box" : 				{
					"maxclass" : "button",
					"patching_rect" : [ 123.0, 5.0, 24.0, 24.0 ],
					"id" : "obj-24",
					"numinlets" : 1,
					"presentation_rect" : [ 122.0, 5.0, 0.0, 0.0 ],
					"numoutlets" : 1,
					"outlettype" : [ "bang" ]
				}

			}
, 			{
				"box" : 				{
					"maxclass" : "newobj",
					"text" : "t b b",
					"patching_rect" : [ 123.0, 42.0, 30.0, 17.0 ],
					"id" : "obj-25",
					"fontsize" : 9.0,
					"numinlets" : 1,
					"presentation_rect" : [ 122.0, 42.0, 0.0, 0.0 ],
					"numoutlets" : 2,
					"fontname" : "Arial",
					"outlettype" : [ "bang", "bang" ]
				}

			}
, 			{
				"box" : 				{
					"maxclass" : "message",
					"text" : "/cmmjl_test/foo/cmmjl_test/*/bar 1, bang",
					"patching_rect" : [ 123.0, 64.0, 171.0, 15.0 ],
					"id" : "obj-23",
					"fontsize" : 9.0,
					"numinlets" : 2,
					"presentation_rect" : [ 123.0, 64.0, 0.0, 0.0 ],
					"numoutlets" : 1,
					"fontname" : "Arial",
					"outlettype" : [ "" ]
				}

			}
, 			{
				"box" : 				{
					"maxclass" : "newobj",
					"text" : "print",
					"patching_rect" : [ 537.0, 425.0, 34.0, 20.0 ],
					"id" : "obj-22",
					"fontsize" : 12.0,
					"numinlets" : 1,
					"presentation_rect" : [ 539.0, 424.0, 0.0, 0.0 ],
					"numoutlets" : 0,
					"fontname" : "Arial"
				}

			}
, 			{
				"box" : 				{
					"maxclass" : "newobj",
					"text" : "cmmjl_test",
					"patching_rect" : [ 537.0, 397.0, 68.0, 20.0 ],
					"id" : "obj-21",
					"fontsize" : 12.0,
					"numinlets" : 1,
					"presentation_rect" : [ 537.0, 397.0, 0.0, 0.0 ],
					"numoutlets" : 2,
					"fontname" : "Arial",
					"outlettype" : [ "cmmjl_test", "" ]
				}

			}
, 			{
				"box" : 				{
					"maxclass" : "message",
					"text" : "verbose 1",
					"patching_rect" : [ 380.0, 292.0, 63.0, 18.0 ],
					"id" : "obj-11",
					"fontsize" : 12.0,
					"numinlets" : 2,
					"numoutlets" : 1,
					"fontname" : "Arial",
					"outlettype" : [ "" ]
				}

			}
, 			{
				"box" : 				{
					"maxclass" : "flonum",
					"patching_rect" : [ 461.0, 136.0, 47.0, 17.0 ],
					"id" : "obj-12",
					"htextcolor" : [ 0.870588, 0.870588, 0.870588, 1.0 ],
					"bgcolor" : [ 0.866667, 0.866667, 0.866667, 1.0 ],
					"minimum" : 0.0,
					"fontsize" : 9.0,
					"triscale" : 0.9,
					"maximum" : 10.0,
					"numinlets" : 1,
					"numoutlets" : 2,
					"fontname" : "Arial",
					"outlettype" : [ "float", "bang" ]
				}

			}
, 			{
				"box" : 				{
					"maxclass" : "newobj",
					"text" : "loadmess 0.01",
					"patching_rect" : [ 461.0, 111.0, 75.0, 17.0 ],
					"id" : "obj-13",
					"fontsize" : 9.0,
					"numinlets" : 1,
					"numoutlets" : 1,
					"fontname" : "Arial",
					"outlettype" : [ "" ]
				}

			}
, 			{
				"box" : 				{
					"maxclass" : "button",
					"patching_rect" : [ 315.0, 40.0, 24.0, 24.0 ],
					"id" : "obj-15",
					"numinlets" : 1,
					"numoutlets" : 1,
					"outlettype" : [ "bang" ]
				}

			}
, 			{
				"box" : 				{
					"maxclass" : "newobj",
					"text" : "t b b",
					"patching_rect" : [ 315.0, 77.0, 30.0, 17.0 ],
					"id" : "obj-16",
					"fontsize" : 9.0,
					"numinlets" : 1,
					"numoutlets" : 2,
					"fontname" : "Arial",
					"outlettype" : [ "bang", "bang" ]
				}

			}
, 			{
				"box" : 				{
					"maxclass" : "message",
					"text" : "/cmmjl_test/cmmjl_test/*/bar 1, bang",
					"patching_rect" : [ 194.0, 123.0, 156.0, 15.0 ],
					"id" : "obj-17",
					"fontsize" : 9.0,
					"numinlets" : 2,
					"numoutlets" : 1,
					"fontname" : "Arial",
					"outlettype" : [ "" ]
				}

			}
, 			{
				"box" : 				{
					"maxclass" : "message",
					"text" : "now",
					"patching_rect" : [ 368.0, 118.0, 26.0, 15.0 ],
					"id" : "obj-18",
					"fontsize" : 9.0,
					"numinlets" : 2,
					"numoutlets" : 1,
					"fontname" : "Arial",
					"outlettype" : [ "" ]
				}

			}
, 			{
				"box" : 				{
					"maxclass" : "newobj",
					"text" : "OSC-timetag",
					"patching_rect" : [ 368.0, 141.0, 67.0, 17.0 ],
					"id" : "obj-19",
					"fontsize" : 9.0,
					"numinlets" : 1,
					"numoutlets" : 1,
					"fontname" : "Arial",
					"outlettype" : [ "OSCTimeTag" ]
				}

			}
, 			{
				"box" : 				{
					"maxclass" : "newobj",
					"text" : "OSC-timetag @op +",
					"patching_rect" : [ 368.0, 170.0, 97.0, 17.0 ],
					"id" : "obj-20",
					"fontsize" : 9.0,
					"numinlets" : 2,
					"numoutlets" : 1,
					"fontname" : "Arial",
					"outlettype" : [ "OSCTimeTag" ]
				}

			}
, 			{
				"box" : 				{
					"maxclass" : "newobj",
					"text" : "p foo",
					"patching_rect" : [ 110.0, 438.0, 37.0, 20.0 ],
					"id" : "obj-10",
					"fontsize" : 12.0,
					"numinlets" : 1,
					"numoutlets" : 0,
					"fontname" : "Arial",
					"patcher" : 					{
						"fileversion" : 1,
						"rect" : [ 25.0, 69.0, 640.0, 480.0 ],
						"bglocked" : 0,
						"defrect" : [ 25.0, 69.0, 640.0, 480.0 ],
						"openrect" : [ 0.0, 0.0, 0.0, 0.0 ],
						"openinpresentation" : 0,
						"default_fontsize" : 12.0,
						"default_fontface" : 0,
						"default_fontname" : "Arial",
						"gridonopen" : 0,
						"gridsize" : [ 15.0, 15.0 ],
						"gridsnaponopen" : 0,
						"toolbarvisible" : 1,
						"boxanimatetime" : 200,
						"imprint" : 0,
						"metadata" : [  ],
						"boxes" : [ 							{
								"box" : 								{
									"maxclass" : "inlet",
									"patching_rect" : [ 173.0, 82.0, 25.0, 25.0 ],
									"id" : "obj-2",
									"numinlets" : 0,
									"numoutlets" : 1,
									"outlettype" : [ "" ],
									"comment" : ""
								}

							}
, 							{
								"box" : 								{
									"maxclass" : "newobj",
									"text" : "cmmjl_test",
									"patching_rect" : [ 173.0, 120.0, 68.0, 20.0 ],
									"id" : "obj-1",
									"fontsize" : 12.0,
									"numinlets" : 1,
									"numoutlets" : 2,
									"fontname" : "Arial",
									"outlettype" : [ "cmmjl_test", "" ]
								}

							}
 ],
						"lines" : [ 							{
								"patchline" : 								{
									"source" : [ "obj-2", 0 ],
									"destination" : [ "obj-1", 0 ],
									"hidden" : 0,
									"midpoints" : [  ]
								}

							}
 ]
					}
,
					"saved_object_attributes" : 					{
						"default_fontface" : 0,
						"default_fontname" : "Arial",
						"fontface" : 0,
						"fontsize" : 12.0,
						"globalpatchername" : "",
						"default_fontsize" : 12.0,
						"fontname" : "Arial"
					}

				}

			}
, 			{
				"box" : 				{
					"maxclass" : "message",
					"text" : "reset_OSCaddress",
					"patching_rect" : [ 379.0, 336.0, 113.0, 18.0 ],
					"id" : "obj-8",
					"fontsize" : 12.0,
					"numinlets" : 2,
					"numoutlets" : 1,
					"fontname" : "Arial",
					"outlettype" : [ "" ]
				}

			}
, 			{
				"box" : 				{
					"maxclass" : "newobj",
					"text" : "abstraction",
					"patching_rect" : [ 144.0, 498.0, 69.0, 20.0 ],
					"id" : "obj-6",
					"fontsize" : 12.0,
					"numinlets" : 0,
					"numoutlets" : 0,
					"fontname" : "Arial"
				}

			}
, 			{
				"box" : 				{
					"maxclass" : "message",
					"text" : "OSCaddress /foo/23",
					"patching_rect" : [ 91.0, 316.0, 119.0, 18.0 ],
					"id" : "obj-14",
					"fontsize" : 12.0,
					"numinlets" : 2,
					"numoutlets" : 1,
					"fontname" : "Arial",
					"outlettype" : [ "" ]
				}

			}
, 			{
				"box" : 				{
					"maxclass" : "message",
					"text" : "error",
					"patching_rect" : [ 270.0, 304.0, 36.0, 18.0 ],
					"id" : "obj-7",
					"fontsize" : 12.0,
					"numinlets" : 2,
					"numoutlets" : 1,
					"fontname" : "Arial",
					"outlettype" : [ "" ]
				}

			}
, 			{
				"box" : 				{
					"maxclass" : "message",
					"text" : "seterrorcb",
					"patching_rect" : [ 260.0, 354.0, 65.0, 18.0 ],
					"id" : "obj-9",
					"fontsize" : 12.0,
					"numinlets" : 2,
					"numoutlets" : 1,
					"fontname" : "Arial",
					"outlettype" : [ "" ]
				}

			}
, 			{
				"box" : 				{
					"maxclass" : "message",
					"text" : "/foo/bar 19, bang",
					"patching_rect" : [ 49.0, 160.0, 101.0, 18.0 ],
					"id" : "obj-2",
					"fontsize" : 12.0,
					"numinlets" : 2,
					"numoutlets" : 1,
					"fontname" : "Arial",
					"outlettype" : [ "" ]
				}

			}
, 			{
				"box" : 				{
					"maxclass" : "newobj",
					"text" : "print",
					"patching_rect" : [ 237.0, 425.0, 34.0, 20.0 ],
					"id" : "obj-5",
					"fontsize" : 12.0,
					"numinlets" : 1,
					"numoutlets" : 0,
					"fontname" : "Arial"
				}

			}
, 			{
				"box" : 				{
					"maxclass" : "message",
					"text" : "/foo 19, bang",
					"patching_rect" : [ 164.0, 187.0, 81.0, 18.0 ],
					"id" : "obj-4",
					"fontsize" : 12.0,
					"numinlets" : 2,
					"numoutlets" : 1,
					"fontname" : "Arial",
					"outlettype" : [ "" ]
				}

			}
, 			{
				"box" : 				{
					"maxclass" : "newobj",
					"text" : "OpenSoundControl",
					"patching_rect" : [ 237.0, 250.0, 113.0, 20.0 ],
					"id" : "obj-1",
					"fontsize" : 12.0,
					"numinlets" : 1,
					"numoutlets" : 3,
					"fontname" : "Arial",
					"outlettype" : [ "", "", "OSCTimeTag" ]
				}

			}
, 			{
				"box" : 				{
					"maxclass" : "newobj",
					"text" : "cmmjl_test",
					"patching_rect" : [ 237.0, 397.0, 68.0, 20.0 ],
					"id" : "obj-3",
					"fontsize" : 12.0,
					"numinlets" : 1,
					"numoutlets" : 2,
					"fontname" : "Arial",
					"outlettype" : [ "cmmjl_test", "" ]
				}

			}
 ],
		"lines" : [ 			{
				"patchline" : 				{
					"source" : [ "obj-25", 1 ],
					"destination" : [ "obj-18", 0 ],
					"hidden" : 0,
					"midpoints" : [  ]
				}

			}
, 			{
				"patchline" : 				{
					"source" : [ "obj-25", 0 ],
					"destination" : [ "obj-23", 0 ],
					"hidden" : 0,
					"midpoints" : [  ]
				}

			}
, 			{
				"patchline" : 				{
					"source" : [ "obj-24", 0 ],
					"destination" : [ "obj-25", 0 ],
					"hidden" : 0,
					"midpoints" : [  ]
				}

			}
, 			{
				"patchline" : 				{
					"source" : [ "obj-23", 0 ],
					"destination" : [ "obj-1", 0 ],
					"hidden" : 0,
					"midpoints" : [  ]
				}

			}
, 			{
				"patchline" : 				{
					"source" : [ "obj-1", 0 ],
					"destination" : [ "obj-10", 0 ],
					"hidden" : 0,
					"midpoints" : [  ]
				}

			}
, 			{
				"patchline" : 				{
					"source" : [ "obj-21", 0 ],
					"destination" : [ "obj-22", 0 ],
					"hidden" : 0,
					"midpoints" : [  ]
				}

			}
, 			{
				"patchline" : 				{
					"source" : [ "obj-1", 0 ],
					"destination" : [ "obj-21", 0 ],
					"hidden" : 0,
					"midpoints" : [  ]
				}

			}
, 			{
				"patchline" : 				{
					"source" : [ "obj-20", 0 ],
					"destination" : [ "obj-1", 0 ],
					"hidden" : 0,
					"midpoints" : [  ]
				}

			}
, 			{
				"patchline" : 				{
					"source" : [ "obj-8", 0 ],
					"destination" : [ "obj-3", 0 ],
					"hidden" : 0,
					"midpoints" : [  ]
				}

			}
, 			{
				"patchline" : 				{
					"source" : [ "obj-14", 0 ],
					"destination" : [ "obj-3", 0 ],
					"hidden" : 0,
					"midpoints" : [  ]
				}

			}
, 			{
				"patchline" : 				{
					"source" : [ "obj-7", 0 ],
					"destination" : [ "obj-3", 0 ],
					"hidden" : 0,
					"midpoints" : [  ]
				}

			}
, 			{
				"patchline" : 				{
					"source" : [ "obj-1", 0 ],
					"destination" : [ "obj-3", 0 ],
					"hidden" : 0,
					"midpoints" : [  ]
				}

			}
, 			{
				"patchline" : 				{
					"source" : [ "obj-9", 0 ],
					"destination" : [ "obj-3", 0 ],
					"hidden" : 0,
					"midpoints" : [  ]
				}

			}
, 			{
				"patchline" : 				{
					"source" : [ "obj-3", 0 ],
					"destination" : [ "obj-5", 0 ],
					"hidden" : 0,
					"midpoints" : [  ]
				}

			}
, 			{
				"patchline" : 				{
					"source" : [ "obj-2", 0 ],
					"destination" : [ "obj-1", 0 ],
					"hidden" : 0,
					"midpoints" : [  ]
				}

			}
, 			{
				"patchline" : 				{
					"source" : [ "obj-4", 0 ],
					"destination" : [ "obj-1", 0 ],
					"hidden" : 0,
					"midpoints" : [  ]
				}

			}
, 			{
				"patchline" : 				{
					"source" : [ "obj-13", 0 ],
					"destination" : [ "obj-12", 0 ],
					"hidden" : 0,
					"midpoints" : [  ]
				}

			}
, 			{
				"patchline" : 				{
					"source" : [ "obj-12", 0 ],
					"destination" : [ "obj-20", 1 ],
					"hidden" : 0,
					"midpoints" : [  ]
				}

			}
, 			{
				"patchline" : 				{
					"source" : [ "obj-19", 0 ],
					"destination" : [ "obj-20", 0 ],
					"hidden" : 0,
					"midpoints" : [  ]
				}

			}
, 			{
				"patchline" : 				{
					"source" : [ "obj-18", 0 ],
					"destination" : [ "obj-19", 0 ],
					"hidden" : 0,
					"midpoints" : [  ]
				}

			}
, 			{
				"patchline" : 				{
					"source" : [ "obj-16", 1 ],
					"destination" : [ "obj-18", 0 ],
					"hidden" : 0,
					"midpoints" : [  ]
				}

			}
, 			{
				"patchline" : 				{
					"source" : [ "obj-15", 0 ],
					"destination" : [ "obj-16", 0 ],
					"hidden" : 0,
					"midpoints" : [  ]
				}

			}
, 			{
				"patchline" : 				{
					"source" : [ "obj-16", 0 ],
					"destination" : [ "obj-17", 0 ],
					"hidden" : 0,
					"midpoints" : [  ]
				}

			}
, 			{
				"patchline" : 				{
					"source" : [ "obj-17", 0 ],
					"destination" : [ "obj-1", 0 ],
					"hidden" : 0,
					"midpoints" : [  ]
				}

			}
, 			{
				"patchline" : 				{
					"source" : [ "obj-11", 0 ],
					"destination" : [ "obj-3", 0 ],
					"hidden" : 0,
					"midpoints" : [  ]
				}

			}
 ]
	}

}
