{
	"patcher" : 	{
		"fileversion" : 1,
		"rect" : [ 377.0, 44.0, 1124.0, 740.0 ],
		"bglocked" : 0,
		"defrect" : [ 377.0, 44.0, 1124.0, 740.0 ],
		"openrect" : [ 0.0, 0.0, 0.0, 0.0 ],
		"openinpresentation" : 0,
		"default_fontsize" : 12.0,
		"default_fontface" : 0,
		"default_fontname" : "Arial",
		"gridonopen" : 0,
		"gridsize" : [ 15.0, 15.0 ],
		"gridsnaponopen" : 0,
		"toolbarvisible" : 1,
		"boxanimatetime" : 200,
		"imprint" : 0,
		"boxes" : [ 			{
				"box" : 				{
					"maxclass" : "message",
					"text" : "clear",
					"id" : "obj-18",
					"outlettype" : [ "" ],
					"fontname" : "Arial",
					"patching_rect" : [ 180.0, 555.0, 37.0, 18.0 ],
					"fontsize" : 12.0,
					"numinlets" : 2,
					"numoutlets" : 1,
					"presentation_rect" : [ 38.0, 31.0, 0.0, 0.0 ]
				}

			}
, 			{
				"box" : 				{
					"maxclass" : "newobj",
					"text" : "t select l",
					"id" : "obj-17",
					"outlettype" : [ "select", "" ],
					"fontname" : "Arial",
					"patching_rect" : [ 390.0, 15.0, 55.0, 20.0 ],
					"fontsize" : 12.0,
					"numinlets" : 1,
					"numoutlets" : 2
				}

			}
, 			{
				"box" : 				{
					"maxclass" : "textedit",
					"text" : "0",
					"id" : "obj-14",
					"outlettype" : [ "", "int", "", "" ],
					"fontname" : "Arial",
					"patching_rect" : [ 390.0, 45.0, 373.0, 33.0 ],
					"frgb" : [ 0.0, 0.0, 0.0, 1.0 ],
					"fontsize" : 12.0,
					"numinlets" : 1,
					"numoutlets" : 4
				}

			}
, 			{
				"box" : 				{
					"maxclass" : "newobj",
					"text" : "print 2",
					"id" : "obj-13",
					"fontname" : "Arial",
					"patching_rect" : [ 405.0, 375.0, 44.0, 20.0 ],
					"fontsize" : 12.0,
					"numinlets" : 1,
					"numoutlets" : 0
				}

			}
, 			{
				"box" : 				{
					"maxclass" : "newobj",
					"text" : "print 4",
					"id" : "obj-11",
					"fontname" : "Arial",
					"patching_rect" : [ 1050.0, 375.0, 44.0, 20.0 ],
					"fontsize" : 12.0,
					"numinlets" : 1,
					"numoutlets" : 0
				}

			}
, 			{
				"box" : 				{
					"maxclass" : "newobj",
					"text" : "print 3",
					"id" : "obj-10",
					"fontname" : "Arial",
					"patching_rect" : [ 735.0, 375.0, 44.0, 20.0 ],
					"fontsize" : 12.0,
					"numinlets" : 1,
					"numoutlets" : 0
				}

			}
, 			{
				"box" : 				{
					"maxclass" : "newobj",
					"text" : "print 1",
					"id" : "obj-9",
					"fontname" : "Arial",
					"patching_rect" : [ 75.0, 375.0, 44.0, 20.0 ],
					"fontsize" : 12.0,
					"numinlets" : 1,
					"numoutlets" : 0
				}

			}
, 			{
				"box" : 				{
					"maxclass" : "message",
					"text" : "add bone.merged.sdif",
					"id" : "obj-8",
					"outlettype" : [ "" ],
					"fontname" : "Arial",
					"patching_rect" : [ 330.0, 570.0, 127.0, 18.0 ],
					"fontsize" : 12.0,
					"numinlets" : 2,
					"numoutlets" : 1,
					"presentation_rect" : [ 302.0, 65.0, 0.0, 0.0 ]
				}

			}
, 			{
				"box" : 				{
					"maxclass" : "jit.cellblock",
					"id" : "obj-7",
					"cols" : 4,
					"outlettype" : [ "list", "", "", "" ],
					"fontname" : "Arial",
					"colwidth" : 250,
					"patching_rect" : [ 75.0, 105.0, 1000.0, 233.0 ],
					"fontsize" : 12.0,
					"precision" : 6,
					"numinlets" : 2,
					"numoutlets" : 4
				}

			}
, 			{
				"box" : 				{
					"maxclass" : "message",
					"text" : "add bone.trc.sdif",
					"id" : "obj-6",
					"outlettype" : [ "" ],
					"fontname" : "Arial",
					"patching_rect" : [ 300.0, 645.0, 99.0, 18.0 ],
					"fontsize" : 12.0,
					"numinlets" : 2,
					"numoutlets" : 1
				}

			}
, 			{
				"box" : 				{
					"maxclass" : "message",
					"text" : "outputFile /Users/johnmac/MMJ5/test_files/bone.merged.sdif",
					"id" : "obj-5",
					"outlettype" : [ "" ],
					"fontname" : "Arial",
					"patching_rect" : [ 195.0, 480.0, 333.0, 18.0 ],
					"fontsize" : 12.0,
					"numinlets" : 2,
					"numoutlets" : 1
				}

			}
, 			{
				"box" : 				{
					"maxclass" : "button",
					"id" : "obj-4",
					"outlettype" : [ "bang" ],
					"patching_rect" : [ 135.0, 540.0, 20.0, 20.0 ],
					"numinlets" : 1,
					"numoutlets" : 1
				}

			}
, 			{
				"box" : 				{
					"maxclass" : "message",
					"text" : "add bone.f0.sdif",
					"id" : "obj-3",
					"outlettype" : [ "" ],
					"fontname" : "Arial",
					"patching_rect" : [ 240.0, 555.0, 96.0, 18.0 ],
					"fontsize" : 12.0,
					"numinlets" : 2,
					"numoutlets" : 1
				}

			}
, 			{
				"box" : 				{
					"maxclass" : "newobj",
					"text" : "mxj SDIF_merge",
					"id" : "obj-1",
					"outlettype" : [ "", "" ],
					"fontname" : "Arial",
					"patching_rect" : [ 105.0, 675.0, 101.0, 20.0 ],
					"fontsize" : 12.0,
					"numinlets" : 4,
					"numoutlets" : 2
				}

			}
 ],
		"lines" : [ 			{
				"patchline" : 				{
					"source" : [ "obj-4", 0 ],
					"destination" : [ "obj-1", 0 ],
					"hidden" : 0,
					"midpoints" : [  ]
				}

			}
, 			{
				"patchline" : 				{
					"source" : [ "obj-5", 0 ],
					"destination" : [ "obj-1", 0 ],
					"hidden" : 0,
					"midpoints" : [  ]
				}

			}
, 			{
				"patchline" : 				{
					"source" : [ "obj-8", 0 ],
					"destination" : [ "obj-1", 0 ],
					"hidden" : 0,
					"midpoints" : [  ]
				}

			}
, 			{
				"patchline" : 				{
					"source" : [ "obj-6", 0 ],
					"destination" : [ "obj-1", 0 ],
					"hidden" : 0,
					"midpoints" : [  ]
				}

			}
, 			{
				"patchline" : 				{
					"source" : [ "obj-3", 0 ],
					"destination" : [ "obj-1", 0 ],
					"hidden" : 0,
					"midpoints" : [  ]
				}

			}
, 			{
				"patchline" : 				{
					"source" : [ "obj-18", 0 ],
					"destination" : [ "obj-1", 0 ],
					"hidden" : 0,
					"midpoints" : [  ]
				}

			}
, 			{
				"patchline" : 				{
					"source" : [ "obj-1", 0 ],
					"destination" : [ "obj-7", 0 ],
					"hidden" : 0,
					"midpoints" : [ 114.5, 707.0, 58.0, 707.0, 58.0, 78.0, 84.5, 78.0 ]
				}

			}
, 			{
				"patchline" : 				{
					"source" : [ "obj-7", 3 ],
					"destination" : [ "obj-1", 3 ],
					"hidden" : 0,
					"midpoints" : [  ]
				}

			}
, 			{
				"patchline" : 				{
					"source" : [ "obj-7", 2 ],
					"destination" : [ "obj-1", 2 ],
					"hidden" : 0,
					"midpoints" : [  ]
				}

			}
, 			{
				"patchline" : 				{
					"source" : [ "obj-7", 1 ],
					"destination" : [ "obj-1", 1 ],
					"hidden" : 0,
					"midpoints" : [  ]
				}

			}
, 			{
				"patchline" : 				{
					"source" : [ "obj-7", 0 ],
					"destination" : [ "obj-1", 0 ],
					"hidden" : 0,
					"midpoints" : [  ]
				}

			}
, 			{
				"patchline" : 				{
					"source" : [ "obj-7", 0 ],
					"destination" : [ "obj-9", 0 ],
					"hidden" : 0,
					"midpoints" : [  ]
				}

			}
, 			{
				"patchline" : 				{
					"source" : [ "obj-7", 3 ],
					"destination" : [ "obj-11", 0 ],
					"hidden" : 0,
					"midpoints" : [  ]
				}

			}
, 			{
				"patchline" : 				{
					"source" : [ "obj-7", 2 ],
					"destination" : [ "obj-10", 0 ],
					"hidden" : 0,
					"midpoints" : [  ]
				}

			}
, 			{
				"patchline" : 				{
					"source" : [ "obj-7", 1 ],
					"destination" : [ "obj-13", 0 ],
					"hidden" : 0,
					"midpoints" : [  ]
				}

			}
, 			{
				"patchline" : 				{
					"source" : [ "obj-14", 0 ],
					"destination" : [ "obj-7", 0 ],
					"hidden" : 0,
					"midpoints" : [  ]
				}

			}
, 			{
				"patchline" : 				{
					"source" : [ "obj-7", 1 ],
					"destination" : [ "obj-17", 0 ],
					"hidden" : 0,
					"midpoints" : [  ]
				}

			}
, 			{
				"patchline" : 				{
					"source" : [ "obj-17", 1 ],
					"destination" : [ "obj-14", 0 ],
					"hidden" : 0,
					"midpoints" : [  ]
				}

			}
, 			{
				"patchline" : 				{
					"source" : [ "obj-17", 0 ],
					"destination" : [ "obj-14", 0 ],
					"hidden" : 0,
					"midpoints" : [  ]
				}

			}
 ]
	}

}
