{
	"patcher" : 	{
		"fileversion" : 1,
		"appversion" : 		{
			"major" : 7,
			"minor" : 0,
			"revision" : 4,
			"architecture" : "x64",
			"modernui" : 1
		}
,
		"rect" : [ 69.0, 79.0, 1146.0, 766.0 ],
		"bglocked" : 0,
		"openinpresentation" : 0,
		"default_fontsize" : 12.0,
		"default_fontface" : 0,
		"default_fontname" : "Arial",
		"gridonopen" : 1,
		"gridsize" : [ 15.0, 15.0 ],
		"gridsnaponopen" : 1,
		"objectsnaponopen" : 1,
		"statusbarvisible" : 2,
		"toolbarvisible" : 1,
		"lefttoolbarpinned" : 0,
		"toptoolbarpinned" : 0,
		"righttoolbarpinned" : 0,
		"bottomtoolbarpinned" : 0,
		"toolbars_unpinned_last_save" : 0,
		"tallnewobj" : 0,
		"boxanimatetime" : 200,
		"enablehscroll" : 1,
		"enablevscroll" : 1,
		"devicewidth" : 0.0,
		"description" : "",
		"digest" : "",
		"tags" : "",
		"style" : "",
		"subpatcher_template" : "",
		"boxes" : [ 			{
				"box" : 				{
					"data" : [ 593, "png", "IBkSG0fBZn....PCIgDQRA...zF....LHX....vFnS+e....DLmPIQEBHf.B7g.YHB..BfPRDEDU3wY6bEsiCCBCKLc+++xbOwItcqkVHN1oGVZZRSCWZbLgNfUp0Z01HU3K1cfMLqTJC+N8dqOJZ2kjQs0Cy7Sk2qDqaeuV6esBIWssWky6bs9Oy6qO8gH.RtmAn5O2k2Yb0SWSalKVuE2KffyYwrIBm0++DmmJZpDLx.NpFFBG8epo4IVovKR7deHaImPEMTPsfLpYfdDfKZQ31Tv8FIBwoolyvSDsKyLhCOxxcftdVDIngIZnCNLRBXk3QchHOsZQQUFHTQSsZaqzeXlvQeJ+Qdyi7ZEYBY3hlm2brpqwdXc5NMy3GDVEQOrOEQSgZay1GTHASBmlY3CFn3mQBHMQyqa1HqqofKyLxNMEd.4U.qg4kY3wHwrKfqJftn4gaajHfHfybxTzEMD3ouzORHZYq1F6GYQBQKRb2.thaMAYDsUcaG0d0csy.YDMEghtLyDSzxVsMVPJQyLeEtUbJp5xLavlUMaY5n1bndBO5e+xogbsthpsHfJ2KGdpY73hfjiQbGc6tB7lix9jflOH2DQ1XL1hVBwVzRH1hVBwVzRH1hVBws+KoX0mPXzuH.5spcV4um2ScZ0Z8mWdidNQehZP0+QFaNi6gCOVJkTtmAabiLgqEWP7O1P+6uC5G0ITBWi6mxgtnGCEMTCAzPV2bosQfXrpBzVZldtQu6oxF+i3b+CFmP7MQ+TMlEbQ3RG.....IUjSD4pPfIH" ],
					"embed" : 1,
					"id" : "obj-3",
					"maxclass" : "fpic",
					"numinlets" : 1,
					"numoutlets" : 1,
					"outlettype" : [ "jit_matrix" ],
					"patching_rect" : [ 80.0, 16.0, 109.0, 48.0 ]
				}

			}
, 			{
				"box" : 				{
					"format" : 6,
					"id" : "obj-41",
					"maxclass" : "flonum",
					"numinlets" : 1,
					"numoutlets" : 2,
					"outlettype" : [ "", "bang" ],
					"parameter_enable" : 0,
					"patching_rect" : [ 71.333328, 689.0, 50.0, 22.0 ],
					"style" : "default"
				}

			}
, 			{
				"box" : 				{
					"format" : 6,
					"id" : "obj-39",
					"maxclass" : "flonum",
					"numinlets" : 1,
					"numoutlets" : 2,
					"outlettype" : [ "", "bang" ],
					"parameter_enable" : 0,
					"patching_rect" : [ 54.666668, 660.0, 50.0, 22.0 ],
					"style" : "default"
				}

			}
, 			{
				"box" : 				{
					"format" : 6,
					"id" : "obj-27",
					"maxclass" : "flonum",
					"numinlets" : 1,
					"numoutlets" : 2,
					"outlettype" : [ "", "bang" ],
					"parameter_enable" : 0,
					"patching_rect" : [ 38.0, 629.0, 50.0, 22.0 ],
					"style" : "default"
				}

			}
, 			{
				"box" : 				{
					"id" : "obj-2",
					"maxclass" : "newobj",
					"numinlets" : 4,
					"numoutlets" : 4,
					"outlettype" : [ "", "", "", "" ],
					"patching_rect" : [ 38.0, 599.0, 69.0, 22.0 ],
					"style" : "default",
					"text" : "route 0 1 2"
				}

			}
, 			{
				"box" : 				{
					"id" : "obj-23",
					"maxclass" : "message",
					"numinlets" : 2,
					"numoutlets" : 1,
					"outlettype" : [ "" ],
					"patching_rect" : [ 1024.5, 134.0, 29.5, 22.0 ],
					"style" : "default",
					"text" : "3"
				}

			}
, 			{
				"box" : 				{
					"id" : "obj-15",
					"maxclass" : "message",
					"numinlets" : 2,
					"numoutlets" : 1,
					"outlettype" : [ "" ],
					"patching_rect" : [ 989.5, 134.0, 29.5, 22.0 ],
					"style" : "default",
					"text" : "2"
				}

			}
, 			{
				"box" : 				{
					"id" : "obj-14",
					"maxclass" : "message",
					"numinlets" : 2,
					"numoutlets" : 1,
					"outlettype" : [ "" ],
					"patching_rect" : [ 954.5, 134.0, 29.5, 22.0 ],
					"style" : "default",
					"text" : "1"
				}

			}
, 			{
				"box" : 				{
					"id" : "obj-13",
					"maxclass" : "message",
					"numinlets" : 2,
					"numoutlets" : 1,
					"outlettype" : [ "" ],
					"patching_rect" : [ 919.166687, 134.0, 29.5, 22.0 ],
					"style" : "default",
					"text" : "0"
				}

			}
, 			{
				"box" : 				{
					"id" : "obj-47",
					"maxclass" : "comment",
					"numinlets" : 1,
					"numoutlets" : 0,
					"patching_rect" : [ 30.0, 63.0, 117.0, 20.0 ],
					"style" : "default",
					"text" : "Break-point function"
				}

			}
, 			{
				"box" : 				{
					"fontface" : 1,
					"fontsize" : 24.0,
					"id" : "obj-42",
					"maxclass" : "comment",
					"numinlets" : 1,
					"numoutlets" : 0,
					"patching_rect" : [ 30.0, 31.0, 48.0, 33.0 ],
					"style" : "",
					"text" : "bpf"
				}

			}
, 			{
				"box" : 				{
					"id" : "obj-36",
					"maxclass" : "comment",
					"numinlets" : 1,
					"numoutlets" : 0,
					"patching_rect" : [ 500.0, 56.0, 173.0, 20.0 ],
					"style" : "default",
					"text" : "Go to the function at <index>"
				}

			}
, 			{
				"box" : 				{
					"id" : "obj-34",
					"maxclass" : "comment",
					"numinlets" : 1,
					"numoutlets" : 0,
					"patching_rect" : [ 919.166687, 114.0, 135.0, 20.0 ],
					"style" : "default",
					"text" : "Display some functions"
				}

			}
, 			{
				"box" : 				{
					"id" : "obj-33",
					"linecount" : 2,
					"maxclass" : "comment",
					"numinlets" : 1,
					"numoutlets" : 0,
					"patching_rect" : [ 30.0, 484.0, 101.0, 33.0 ],
					"style" : "default",
					"text" : "SHIFT + click a point to delete it. "
				}

			}
, 			{
				"box" : 				{
					"id" : "obj-32",
					"linecount" : 2,
					"maxclass" : "comment",
					"numinlets" : 1,
					"numoutlets" : 0,
					"patching_rect" : [ 30.0, 396.0, 126.0, 33.0 ],
					"style" : "default",
					"text" : "Select an existing point to move it. "
				}

			}
, 			{
				"box" : 				{
					"id" : "obj-31",
					"linecount" : 3,
					"maxclass" : "comment",
					"numinlets" : 1,
					"numoutlets" : 0,
					"patching_rect" : [ 30.0, 300.0, 130.0, 47.0 ],
					"style" : "default",
					"text" : "Click on a blank area to add a point to the current function."
				}

			}
, 			{
				"box" : 				{
					"id" : "obj-26",
					"linecount" : 3,
					"maxclass" : "comment",
					"numinlets" : 1,
					"numoutlets" : 0,
					"patching_rect" : [ 219.0, 133.0, 164.0, 47.0 ],
					"style" : "default",
					"text" : "Inputing an x-coordinate outputs the function number followed by x, y pairs"
				}

			}
, 			{
				"box" : 				{
					"id" : "obj-22",
					"maxclass" : "comment",
					"numinlets" : 1,
					"numoutlets" : 0,
					"patching_rect" : [ 572.0, 80.0, 172.0, 20.0 ],
					"style" : "default",
					"text" : "Rename the current function"
				}

			}
, 			{
				"box" : 				{
					"id" : "obj-21",
					"maxclass" : "comment",
					"numinlets" : 1,
					"numoutlets" : 0,
					"patching_rect" : [ 695.0, 134.0, 101.0, 20.0 ],
					"style" : "default",
					"text" : "Resize the frame"
				}

			}
, 			{
				"box" : 				{
					"hidden" : 1,
					"id" : "obj-20",
					"maxclass" : "message",
					"numinlets" : 2,
					"numoutlets" : 1,
					"outlettype" : [ "" ],
					"patching_rect" : [ 1078.0, 173.0, 83.0, 22.0 ],
					"style" : "default",
					"text" : "range 50 100"
				}

			}
, 			{
				"box" : 				{
					"hidden" : 1,
					"id" : "obj-19",
					"maxclass" : "message",
					"numinlets" : 2,
					"numoutlets" : 1,
					"outlettype" : [ "" ],
					"patching_rect" : [ 1078.0, 205.0, 83.0, 22.0 ],
					"style" : "default",
					"text" : "range 0 1000"
				}

			}
, 			{
				"box" : 				{
					"id" : "obj-16",
					"maxclass" : "message",
					"numinlets" : 2,
					"numoutlets" : 1,
					"outlettype" : [ "" ],
					"patching_rect" : [ 486.0, 133.0, 207.0, 22.0 ],
					"style" : "default",
					"text" : "xmin 50, xmax 100, ymin 0, ymax 10"
				}

			}
, 			{
				"box" : 				{
					"hidden" : 1,
					"id" : "obj-37",
					"maxclass" : "newobj",
					"numinlets" : 1,
					"numoutlets" : 1,
					"outlettype" : [ "" ],
					"patcher" : 					{
						"fileversion" : 1,
						"appversion" : 						{
							"major" : 7,
							"minor" : 0,
							"revision" : 4,
							"architecture" : "x64",
							"modernui" : 1
						}
,
						"rect" : [ 624.0, 44.0, 640.0, 480.0 ],
						"bglocked" : 0,
						"openinpresentation" : 0,
						"default_fontsize" : 12.0,
						"default_fontface" : 0,
						"default_fontname" : "Arial",
						"gridonopen" : 1,
						"gridsize" : [ 5.0, 5.0 ],
						"gridsnaponopen" : 1,
						"objectsnaponopen" : 1,
						"statusbarvisible" : 2,
						"toolbarvisible" : 1,
						"lefttoolbarpinned" : 0,
						"toptoolbarpinned" : 0,
						"righttoolbarpinned" : 0,
						"bottomtoolbarpinned" : 0,
						"toolbars_unpinned_last_save" : 0,
						"tallnewobj" : 0,
						"boxanimatetime" : 200,
						"enablehscroll" : 1,
						"enablevscroll" : 1,
						"devicewidth" : 0.0,
						"description" : "",
						"digest" : "",
						"tags" : "",
						"style" : "",
						"subpatcher_template" : "",
						"boxes" : [ 							{
								"box" : 								{
									"fontname" : "Arial",
									"fontsize" : 12.0,
									"id" : "obj-77",
									"maxclass" : "newobj",
									"numinlets" : 1,
									"numoutlets" : 1,
									"outlettype" : [ "" ],
									"patcher" : 									{
										"fileversion" : 1,
										"appversion" : 										{
											"major" : 7,
											"minor" : 0,
											"revision" : 4,
											"architecture" : "x64",
											"modernui" : 1
										}
,
										"rect" : [ 71.0, 73.0, 640.0, 480.0 ],
										"bglocked" : 0,
										"openinpresentation" : 0,
										"default_fontsize" : 12.0,
										"default_fontface" : 0,
										"default_fontname" : "Arial",
										"gridonopen" : 1,
										"gridsize" : [ 5.0, 5.0 ],
										"gridsnaponopen" : 1,
										"objectsnaponopen" : 1,
										"statusbarvisible" : 2,
										"toolbarvisible" : 1,
										"lefttoolbarpinned" : 0,
										"toptoolbarpinned" : 0,
										"righttoolbarpinned" : 0,
										"bottomtoolbarpinned" : 0,
										"toolbars_unpinned_last_save" : 0,
										"tallnewobj" : 0,
										"boxanimatetime" : 200,
										"enablehscroll" : 1,
										"enablevscroll" : 1,
										"devicewidth" : 0.0,
										"description" : "",
										"digest" : "",
										"tags" : "",
										"style" : "",
										"subpatcher_template" : "",
										"boxes" : [ 											{
												"box" : 												{
													"fontname" : "Arial",
													"fontsize" : 12.0,
													"id" : "obj-4",
													"maxclass" : "newobj",
													"numinlets" : 1,
													"numoutlets" : 2,
													"outlettype" : [ "bang", "bang" ],
													"patching_rect" : [ 155.0, 115.0, 34.0, 20.0 ],
													"style" : "",
													"text" : "t b b"
												}

											}
, 											{
												"box" : 												{
													"fontname" : "Arial",
													"fontsize" : 12.0,
													"id" : "obj-3",
													"maxclass" : "message",
													"numinlets" : 2,
													"numoutlets" : 1,
													"outlettype" : [ "" ],
													"patching_rect" : [ 100.0, 475.0, 37.0, 18.0 ],
													"style" : "",
													"text" : "clear"
												}

											}
, 											{
												"box" : 												{
													"fontname" : "Arial",
													"fontsize" : 12.0,
													"id" : "obj-2",
													"maxclass" : "newobj",
													"numinlets" : 1,
													"numoutlets" : 2,
													"outlettype" : [ "bang", "int" ],
													"patching_rect" : [ 155.0, 245.0, 32.5, 20.0 ],
													"style" : "",
													"text" : "t b i"
												}

											}
, 											{
												"box" : 												{
													"fontname" : "Arial",
													"fontsize" : 12.0,
													"id" : "obj-88",
													"maxclass" : "newobj",
													"numinlets" : 6,
													"numoutlets" : 1,
													"outlettype" : [ "" ],
													"patching_rect" : [ 885.0, 390.0, 105.0, 20.0 ],
													"style" : "",
													"text" : "scale 0 100 0. 10."
												}

											}
, 											{
												"box" : 												{
													"fontname" : "Arial",
													"fontsize" : 12.0,
													"id" : "obj-89",
													"maxclass" : "newobj",
													"numinlets" : 2,
													"numoutlets" : 1,
													"outlettype" : [ "int" ],
													"patching_rect" : [ 885.0, 365.0, 75.0, 20.0 ],
													"style" : "",
													"text" : "random 100"
												}

											}
, 											{
												"box" : 												{
													"fontname" : "Arial",
													"fontsize" : 12.0,
													"id" : "obj-90",
													"maxclass" : "newobj",
													"numinlets" : 1,
													"numoutlets" : 2,
													"outlettype" : [ "bang", "bang" ],
													"patching_rect" : [ 885.0, 315.0, 34.0, 20.0 ],
													"style" : "",
													"text" : "t b b"
												}

											}
, 											{
												"box" : 												{
													"fontname" : "Arial",
													"fontsize" : 12.0,
													"id" : "obj-91",
													"maxclass" : "newobj",
													"numinlets" : 2,
													"numoutlets" : 1,
													"outlettype" : [ "int" ],
													"patching_rect" : [ 865.0, 340.0, 81.0, 20.0 ],
													"style" : "",
													"text" : "random 1000"
												}

											}
, 											{
												"box" : 												{
													"fontname" : "Arial",
													"fontsize" : 12.0,
													"id" : "obj-92",
													"maxclass" : "newobj",
													"numinlets" : 2,
													"numoutlets" : 1,
													"outlettype" : [ "" ],
													"patching_rect" : [ 865.0, 415.0, 64.0, 20.0 ],
													"style" : "",
													"text" : "pack 0. 0."
												}

											}
, 											{
												"box" : 												{
													"fontname" : "Arial",
													"fontsize" : 12.0,
													"id" : "obj-83",
													"maxclass" : "newobj",
													"numinlets" : 6,
													"numoutlets" : 1,
													"outlettype" : [ "" ],
													"patching_rect" : [ 755.0, 390.0, 105.0, 20.0 ],
													"style" : "",
													"text" : "scale 0 100 0. 10."
												}

											}
, 											{
												"box" : 												{
													"fontname" : "Arial",
													"fontsize" : 12.0,
													"id" : "obj-84",
													"maxclass" : "newobj",
													"numinlets" : 2,
													"numoutlets" : 1,
													"outlettype" : [ "int" ],
													"patching_rect" : [ 755.0, 365.0, 75.0, 20.0 ],
													"style" : "",
													"text" : "random 100"
												}

											}
, 											{
												"box" : 												{
													"fontname" : "Arial",
													"fontsize" : 12.0,
													"id" : "obj-85",
													"maxclass" : "newobj",
													"numinlets" : 1,
													"numoutlets" : 2,
													"outlettype" : [ "bang", "bang" ],
													"patching_rect" : [ 755.0, 315.0, 34.0, 20.0 ],
													"style" : "",
													"text" : "t b b"
												}

											}
, 											{
												"box" : 												{
													"fontname" : "Arial",
													"fontsize" : 12.0,
													"id" : "obj-86",
													"maxclass" : "newobj",
													"numinlets" : 2,
													"numoutlets" : 1,
													"outlettype" : [ "int" ],
													"patching_rect" : [ 735.0, 340.0, 81.0, 20.0 ],
													"style" : "",
													"text" : "random 1000"
												}

											}
, 											{
												"box" : 												{
													"fontname" : "Arial",
													"fontsize" : 12.0,
													"id" : "obj-87",
													"maxclass" : "newobj",
													"numinlets" : 2,
													"numoutlets" : 1,
													"outlettype" : [ "" ],
													"patching_rect" : [ 735.0, 415.0, 64.0, 20.0 ],
													"style" : "",
													"text" : "pack 0. 0."
												}

											}
, 											{
												"box" : 												{
													"fontname" : "Arial",
													"fontsize" : 12.0,
													"id" : "obj-78",
													"maxclass" : "newobj",
													"numinlets" : 6,
													"numoutlets" : 1,
													"outlettype" : [ "" ],
													"patching_rect" : [ 630.0, 390.0, 105.0, 20.0 ],
													"style" : "",
													"text" : "scale 0 100 0. 10."
												}

											}
, 											{
												"box" : 												{
													"fontname" : "Arial",
													"fontsize" : 12.0,
													"id" : "obj-79",
													"maxclass" : "newobj",
													"numinlets" : 2,
													"numoutlets" : 1,
													"outlettype" : [ "int" ],
													"patching_rect" : [ 630.0, 365.0, 75.0, 20.0 ],
													"style" : "",
													"text" : "random 100"
												}

											}
, 											{
												"box" : 												{
													"fontname" : "Arial",
													"fontsize" : 12.0,
													"id" : "obj-80",
													"maxclass" : "newobj",
													"numinlets" : 1,
													"numoutlets" : 2,
													"outlettype" : [ "bang", "bang" ],
													"patching_rect" : [ 630.0, 315.0, 34.0, 20.0 ],
													"style" : "",
													"text" : "t b b"
												}

											}
, 											{
												"box" : 												{
													"fontname" : "Arial",
													"fontsize" : 12.0,
													"id" : "obj-81",
													"maxclass" : "newobj",
													"numinlets" : 2,
													"numoutlets" : 1,
													"outlettype" : [ "int" ],
													"patching_rect" : [ 610.0, 340.0, 81.0, 20.0 ],
													"style" : "",
													"text" : "random 1000"
												}

											}
, 											{
												"box" : 												{
													"fontname" : "Arial",
													"fontsize" : 12.0,
													"id" : "obj-82",
													"maxclass" : "newobj",
													"numinlets" : 2,
													"numoutlets" : 1,
													"outlettype" : [ "" ],
													"patching_rect" : [ 610.0, 415.0, 64.0, 20.0 ],
													"style" : "",
													"text" : "pack 0. 0."
												}

											}
, 											{
												"box" : 												{
													"fontname" : "Arial",
													"fontsize" : 12.0,
													"id" : "obj-76",
													"maxclass" : "newobj",
													"numinlets" : 6,
													"numoutlets" : 1,
													"outlettype" : [ "" ],
													"patching_rect" : [ 500.0, 385.0, 105.0, 20.0 ],
													"style" : "",
													"text" : "scale 0 100 0. 10."
												}

											}
, 											{
												"box" : 												{
													"fontname" : "Arial",
													"fontsize" : 12.0,
													"id" : "obj-77",
													"maxclass" : "newobj",
													"numinlets" : 2,
													"numoutlets" : 1,
													"outlettype" : [ "int" ],
													"patching_rect" : [ 500.0, 360.0, 75.0, 20.0 ],
													"style" : "",
													"text" : "random 100"
												}

											}
, 											{
												"box" : 												{
													"fontname" : "Arial",
													"fontsize" : 12.0,
													"id" : "obj-75",
													"maxclass" : "newobj",
													"numinlets" : 6,
													"numoutlets" : 1,
													"outlettype" : [ "" ],
													"patching_rect" : [ 370.0, 340.0, 105.0, 20.0 ],
													"style" : "",
													"text" : "scale 0 100 0. 10."
												}

											}
, 											{
												"box" : 												{
													"fontname" : "Arial",
													"fontsize" : 12.0,
													"id" : "obj-74",
													"maxclass" : "newobj",
													"numinlets" : 6,
													"numoutlets" : 1,
													"outlettype" : [ "" ],
													"patching_rect" : [ 245.0, 350.0, 105.0, 20.0 ],
													"style" : "",
													"text" : "scale 0 100 0. 10."
												}

											}
, 											{
												"box" : 												{
													"fontname" : "Arial",
													"fontsize" : 12.0,
													"id" : "obj-65",
													"maxclass" : "newobj",
													"numinlets" : 1,
													"numoutlets" : 6,
													"outlettype" : [ "bang", "bang", "bang", "bang", "bang", "bang" ],
													"patching_rect" : [ 245.0, 275.0, 657.5, 20.0 ],
													"style" : "",
													"text" : "t b b b b b b"
												}

											}
, 											{
												"box" : 												{
													"fontname" : "Arial",
													"fontsize" : 12.0,
													"id" : "obj-52",
													"maxclass" : "newobj",
													"numinlets" : 1,
													"numoutlets" : 2,
													"outlettype" : [ "bang", "bang" ],
													"patching_rect" : [ 500.0, 310.0, 34.0, 20.0 ],
													"style" : "",
													"text" : "t b b"
												}

											}
, 											{
												"box" : 												{
													"fontname" : "Arial",
													"fontsize" : 12.0,
													"id" : "obj-51",
													"maxclass" : "newobj",
													"numinlets" : 2,
													"numoutlets" : 1,
													"outlettype" : [ "int" ],
													"patching_rect" : [ 480.0, 335.0, 81.0, 20.0 ],
													"style" : "",
													"text" : "random 1000"
												}

											}
, 											{
												"box" : 												{
													"fontname" : "Arial",
													"fontsize" : 12.0,
													"id" : "obj-50",
													"maxclass" : "newobj",
													"numinlets" : 2,
													"numoutlets" : 1,
													"outlettype" : [ "" ],
													"patching_rect" : [ 480.0, 410.0, 64.0, 20.0 ],
													"style" : "",
													"text" : "pack 0. 0."
												}

											}
, 											{
												"box" : 												{
													"fontname" : "Arial",
													"fontsize" : 12.0,
													"id" : "obj-37",
													"maxclass" : "newobj",
													"numinlets" : 2,
													"numoutlets" : 1,
													"outlettype" : [ "int" ],
													"patching_rect" : [ 245.0, 325.0, 75.0, 20.0 ],
													"style" : "",
													"text" : "random 100"
												}

											}
, 											{
												"box" : 												{
													"fontname" : "Arial",
													"fontsize" : 12.0,
													"id" : "obj-35",
													"maxclass" : "newobj",
													"numinlets" : 2,
													"numoutlets" : 1,
													"outlettype" : [ "int" ],
													"patching_rect" : [ 370.0, 315.0, 75.0, 20.0 ],
													"style" : "",
													"text" : "random 100"
												}

											}
, 											{
												"box" : 												{
													"fontname" : "Arial",
													"fontsize" : 12.0,
													"id" : "obj-34",
													"maxclass" : "message",
													"numinlets" : 2,
													"numoutlets" : 1,
													"outlettype" : [ "" ],
													"patching_rect" : [ 370.0, 375.0, 61.0, 18.0 ],
													"style" : "",
													"text" : "10000 $1"
												}

											}
, 											{
												"box" : 												{
													"fontname" : "Arial",
													"fontsize" : 12.0,
													"id" : "obj-33",
													"maxclass" : "message",
													"numinlets" : 2,
													"numoutlets" : 1,
													"outlettype" : [ "" ],
													"patching_rect" : [ 245.0, 375.0, 34.0, 18.0 ],
													"style" : "",
													"text" : "0 $1"
												}

											}
, 											{
												"box" : 												{
													"fontname" : "Arial",
													"fontsize" : 12.0,
													"id" : "obj-30",
													"maxclass" : "message",
													"numinlets" : 2,
													"numoutlets" : 1,
													"outlettype" : [ "" ],
													"patching_rect" : [ 195.0, 150.0, 32.5, 18.0 ],
													"style" : "",
													"text" : "0"
												}

											}
, 											{
												"box" : 												{
													"fontname" : "Arial",
													"fontsize" : 12.0,
													"id" : "obj-29",
													"maxclass" : "newobj",
													"numinlets" : 2,
													"numoutlets" : 1,
													"outlettype" : [ "bang" ],
													"patching_rect" : [ 155.0, 185.0, 58.0, 20.0 ],
													"style" : "",
													"text" : "metro 50"
												}

											}
, 											{
												"box" : 												{
													"fontname" : "Arial",
													"fontsize" : 12.0,
													"id" : "obj-15",
													"maxclass" : "message",
													"numinlets" : 2,
													"numoutlets" : 1,
													"outlettype" : [ "" ],
													"patching_rect" : [ 155.0, 150.0, 32.5, 18.0 ],
													"style" : "",
													"text" : "1"
												}

											}
, 											{
												"box" : 												{
													"comment" : "",
													"id" : "obj-14",
													"maxclass" : "inlet",
													"numinlets" : 0,
													"numoutlets" : 1,
													"outlettype" : [ "bang" ],
													"patching_rect" : [ 155.0, 75.0, 25.0, 25.0 ],
													"style" : ""
												}

											}
, 											{
												"box" : 												{
													"comment" : "",
													"id" : "obj-13",
													"maxclass" : "outlet",
													"numinlets" : 1,
													"numoutlets" : 0,
													"patching_rect" : [ 615.0, 535.0, 25.0, 25.0 ],
													"style" : ""
												}

											}
, 											{
												"box" : 												{
													"fontname" : "Arial",
													"fontsize" : 12.0,
													"id" : "obj-12",
													"maxclass" : "message",
													"numinlets" : 2,
													"numoutlets" : 1,
													"outlettype" : [ "" ],
													"patching_rect" : [ 155.0, 410.0, 85.0, 18.0 ],
													"style" : "",
													"text" : "setfunction $1"
												}

											}
, 											{
												"box" : 												{
													"fontname" : "Arial",
													"fontsize" : 12.0,
													"id" : "obj-1",
													"maxclass" : "newobj",
													"numinlets" : 5,
													"numoutlets" : 4,
													"outlettype" : [ "int", "", "", "int" ],
													"patching_rect" : [ 155.0, 215.0, 73.0, 20.0 ],
													"style" : "",
													"text" : "counter 0 7"
												}

											}
 ],
										"lines" : [ 											{
												"patchline" : 												{
													"destination" : [ "obj-2", 0 ],
													"disabled" : 0,
													"hidden" : 0,
													"source" : [ "obj-1", 0 ]
												}

											}
, 											{
												"patchline" : 												{
													"destination" : [ "obj-30", 0 ],
													"disabled" : 0,
													"hidden" : 0,
													"midpoints" : [ 230.0, 256.0, 278.0, 123.0, 204.5, 135.0 ],
													"source" : [ "obj-1", 3 ]
												}

											}
, 											{
												"patchline" : 												{
													"destination" : [ "obj-13", 0 ],
													"disabled" : 0,
													"hidden" : 0,
													"source" : [ "obj-12", 0 ]
												}

											}
, 											{
												"patchline" : 												{
													"destination" : [ "obj-4", 0 ],
													"disabled" : 0,
													"hidden" : 0,
													"source" : [ "obj-14", 0 ]
												}

											}
, 											{
												"patchline" : 												{
													"destination" : [ "obj-29", 0 ],
													"disabled" : 0,
													"hidden" : 0,
													"source" : [ "obj-15", 0 ]
												}

											}
, 											{
												"patchline" : 												{
													"destination" : [ "obj-12", 0 ],
													"disabled" : 0,
													"hidden" : 0,
													"source" : [ "obj-2", 1 ]
												}

											}
, 											{
												"patchline" : 												{
													"destination" : [ "obj-65", 0 ],
													"disabled" : 0,
													"hidden" : 0,
													"source" : [ "obj-2", 0 ]
												}

											}
, 											{
												"patchline" : 												{
													"destination" : [ "obj-1", 0 ],
													"disabled" : 0,
													"hidden" : 0,
													"source" : [ "obj-29", 0 ]
												}

											}
, 											{
												"patchline" : 												{
													"destination" : [ "obj-13", 0 ],
													"disabled" : 0,
													"hidden" : 0,
													"source" : [ "obj-3", 0 ]
												}

											}
, 											{
												"patchline" : 												{
													"destination" : [ "obj-29", 0 ],
													"disabled" : 0,
													"hidden" : 0,
													"source" : [ "obj-30", 0 ]
												}

											}
, 											{
												"patchline" : 												{
													"destination" : [ "obj-13", 0 ],
													"disabled" : 0,
													"hidden" : 0,
													"source" : [ "obj-33", 0 ]
												}

											}
, 											{
												"patchline" : 												{
													"destination" : [ "obj-13", 0 ],
													"disabled" : 0,
													"hidden" : 0,
													"source" : [ "obj-34", 0 ]
												}

											}
, 											{
												"patchline" : 												{
													"destination" : [ "obj-75", 0 ],
													"disabled" : 0,
													"hidden" : 0,
													"source" : [ "obj-35", 0 ]
												}

											}
, 											{
												"patchline" : 												{
													"destination" : [ "obj-74", 0 ],
													"disabled" : 0,
													"hidden" : 0,
													"source" : [ "obj-37", 0 ]
												}

											}
, 											{
												"patchline" : 												{
													"destination" : [ "obj-15", 0 ],
													"disabled" : 0,
													"hidden" : 0,
													"source" : [ "obj-4", 0 ]
												}

											}
, 											{
												"patchline" : 												{
													"destination" : [ "obj-3", 0 ],
													"disabled" : 0,
													"hidden" : 0,
													"midpoints" : [ 55.0, 192.0 ],
													"source" : [ "obj-4", 1 ]
												}

											}
, 											{
												"patchline" : 												{
													"destination" : [ "obj-13", 0 ],
													"disabled" : 0,
													"hidden" : 0,
													"source" : [ "obj-50", 0 ]
												}

											}
, 											{
												"patchline" : 												{
													"destination" : [ "obj-50", 0 ],
													"disabled" : 0,
													"hidden" : 0,
													"source" : [ "obj-51", 0 ]
												}

											}
, 											{
												"patchline" : 												{
													"destination" : [ "obj-51", 0 ],
													"disabled" : 0,
													"hidden" : 0,
													"source" : [ "obj-52", 0 ]
												}

											}
, 											{
												"patchline" : 												{
													"destination" : [ "obj-77", 0 ],
													"disabled" : 0,
													"hidden" : 0,
													"source" : [ "obj-52", 1 ]
												}

											}
, 											{
												"patchline" : 												{
													"destination" : [ "obj-35", 0 ],
													"disabled" : 0,
													"hidden" : 0,
													"source" : [ "obj-65", 1 ]
												}

											}
, 											{
												"patchline" : 												{
													"destination" : [ "obj-37", 0 ],
													"disabled" : 0,
													"hidden" : 0,
													"source" : [ "obj-65", 0 ]
												}

											}
, 											{
												"patchline" : 												{
													"destination" : [ "obj-52", 0 ],
													"disabled" : 0,
													"hidden" : 0,
													"source" : [ "obj-65", 2 ]
												}

											}
, 											{
												"patchline" : 												{
													"destination" : [ "obj-80", 0 ],
													"disabled" : 0,
													"hidden" : 0,
													"source" : [ "obj-65", 3 ]
												}

											}
, 											{
												"patchline" : 												{
													"destination" : [ "obj-85", 0 ],
													"disabled" : 0,
													"hidden" : 0,
													"source" : [ "obj-65", 4 ]
												}

											}
, 											{
												"patchline" : 												{
													"destination" : [ "obj-90", 0 ],
													"disabled" : 0,
													"hidden" : 0,
													"source" : [ "obj-65", 5 ]
												}

											}
, 											{
												"patchline" : 												{
													"destination" : [ "obj-33", 0 ],
													"disabled" : 0,
													"hidden" : 0,
													"source" : [ "obj-74", 0 ]
												}

											}
, 											{
												"patchline" : 												{
													"destination" : [ "obj-34", 0 ],
													"disabled" : 0,
													"hidden" : 0,
													"source" : [ "obj-75", 0 ]
												}

											}
, 											{
												"patchline" : 												{
													"destination" : [ "obj-50", 1 ],
													"disabled" : 0,
													"hidden" : 0,
													"source" : [ "obj-76", 0 ]
												}

											}
, 											{
												"patchline" : 												{
													"destination" : [ "obj-76", 0 ],
													"disabled" : 0,
													"hidden" : 0,
													"source" : [ "obj-77", 0 ]
												}

											}
, 											{
												"patchline" : 												{
													"destination" : [ "obj-82", 1 ],
													"disabled" : 0,
													"hidden" : 0,
													"source" : [ "obj-78", 0 ]
												}

											}
, 											{
												"patchline" : 												{
													"destination" : [ "obj-78", 0 ],
													"disabled" : 0,
													"hidden" : 0,
													"source" : [ "obj-79", 0 ]
												}

											}
, 											{
												"patchline" : 												{
													"destination" : [ "obj-79", 0 ],
													"disabled" : 0,
													"hidden" : 0,
													"source" : [ "obj-80", 1 ]
												}

											}
, 											{
												"patchline" : 												{
													"destination" : [ "obj-81", 0 ],
													"disabled" : 0,
													"hidden" : 0,
													"source" : [ "obj-80", 0 ]
												}

											}
, 											{
												"patchline" : 												{
													"destination" : [ "obj-82", 0 ],
													"disabled" : 0,
													"hidden" : 0,
													"source" : [ "obj-81", 0 ]
												}

											}
, 											{
												"patchline" : 												{
													"destination" : [ "obj-13", 0 ],
													"disabled" : 0,
													"hidden" : 0,
													"source" : [ "obj-82", 0 ]
												}

											}
, 											{
												"patchline" : 												{
													"destination" : [ "obj-87", 1 ],
													"disabled" : 0,
													"hidden" : 0,
													"source" : [ "obj-83", 0 ]
												}

											}
, 											{
												"patchline" : 												{
													"destination" : [ "obj-83", 0 ],
													"disabled" : 0,
													"hidden" : 0,
													"source" : [ "obj-84", 0 ]
												}

											}
, 											{
												"patchline" : 												{
													"destination" : [ "obj-84", 0 ],
													"disabled" : 0,
													"hidden" : 0,
													"source" : [ "obj-85", 1 ]
												}

											}
, 											{
												"patchline" : 												{
													"destination" : [ "obj-86", 0 ],
													"disabled" : 0,
													"hidden" : 0,
													"source" : [ "obj-85", 0 ]
												}

											}
, 											{
												"patchline" : 												{
													"destination" : [ "obj-87", 0 ],
													"disabled" : 0,
													"hidden" : 0,
													"source" : [ "obj-86", 0 ]
												}

											}
, 											{
												"patchline" : 												{
													"destination" : [ "obj-13", 0 ],
													"disabled" : 0,
													"hidden" : 0,
													"source" : [ "obj-87", 0 ]
												}

											}
, 											{
												"patchline" : 												{
													"destination" : [ "obj-92", 1 ],
													"disabled" : 0,
													"hidden" : 0,
													"source" : [ "obj-88", 0 ]
												}

											}
, 											{
												"patchline" : 												{
													"destination" : [ "obj-88", 0 ],
													"disabled" : 0,
													"hidden" : 0,
													"source" : [ "obj-89", 0 ]
												}

											}
, 											{
												"patchline" : 												{
													"destination" : [ "obj-89", 0 ],
													"disabled" : 0,
													"hidden" : 0,
													"source" : [ "obj-90", 1 ]
												}

											}
, 											{
												"patchline" : 												{
													"destination" : [ "obj-91", 0 ],
													"disabled" : 0,
													"hidden" : 0,
													"source" : [ "obj-90", 0 ]
												}

											}
, 											{
												"patchline" : 												{
													"destination" : [ "obj-92", 0 ],
													"disabled" : 0,
													"hidden" : 0,
													"source" : [ "obj-91", 0 ]
												}

											}
, 											{
												"patchline" : 												{
													"destination" : [ "obj-13", 0 ],
													"disabled" : 0,
													"hidden" : 0,
													"source" : [ "obj-92", 0 ]
												}

											}
 ]
									}
,
									"patching_rect" : [ 655.0, 200.0, 95.0, 20.0 ],
									"saved_object_attributes" : 									{
										"description" : "",
										"digest" : "",
										"globalpatchername" : "",
										"style" : "",
										"tags" : ""
									}
,
									"style" : "",
									"text" : "p makeRandom"
								}

							}
, 							{
								"box" : 								{
									"fontname" : "Arial",
									"fontsize" : 12.0,
									"id" : "obj-6",
									"maxclass" : "newobj",
									"numinlets" : 5,
									"numoutlets" : 5,
									"outlettype" : [ "bang", "bang", "bang", "bang", "" ],
									"patching_rect" : [ 230.0, 110.0, 276.0, 20.0 ],
									"style" : "",
									"text" : "sel 0 1 2 3"
								}

							}
, 							{
								"box" : 								{
									"comment" : "",
									"id" : "obj-2",
									"maxclass" : "outlet",
									"numinlets" : 1,
									"numoutlets" : 0,
									"patching_rect" : [ 400.0, 585.0, 25.0, 25.0 ],
									"style" : ""
								}

							}
, 							{
								"box" : 								{
									"fontname" : "Arial",
									"fontsize" : 12.0,
									"id" : "obj-1",
									"linecount" : 21,
									"maxclass" : "message",
									"numinlets" : 2,
									"numoutlets" : 1,
									"outlettype" : [ "" ],
									"patching_rect" : [ 10.0, 170.0, 242.0, 294.0 ],
									"style" : "",
									"text" : "clear, 0 1.111111 3.538461, 0 81.111115 5.054945, 0 184.444458 2.615384, 0 304.444458 6.153846, 1 161.111115 4.879121, 1 294.444458 8.351648, 1 398.888916 5.274725, 1 444.444458 2.681319, 1 492.22226 7.076923, 2 444.444458 6.593407, 2 505.555573 8.417583, 2 531.111145 3.318681, 2 596.666687 4.989011, 2 608.888916 2.813187, 3 597.777832 6.285714, 3 646.666687 8.483517, 3 694.444458 5.296703, 3 836.666687 6.43956, 3 895.555603 8.065934, 3 978.888916 3.098901, 4 322.222229 2.395604, 4 364.444458 1.098901, 4 537.777832 1.978022, 4 605.555603 1.032967, 4 761.111145 1.956044, 5 47.777779 8.593407, 5 148.888901 6.901099, 5 251.11113 9.362638, 6 738.888916 3.604395, 6 824.444458 2., 6 845.555603 4.461538, 6 893.333374 1.186813"
								}

							}
, 							{
								"box" : 								{
									"comment" : "",
									"id" : "obj-3",
									"maxclass" : "inlet",
									"numinlets" : 0,
									"numoutlets" : 1,
									"outlettype" : [ "" ],
									"patching_rect" : [ 335.0, 20.0, 25.0, 25.0 ],
									"style" : ""
								}

							}
, 							{
								"box" : 								{
									"fontname" : "Arial",
									"fontsize" : 12.0,
									"id" : "obj-89",
									"linecount" : 16,
									"maxclass" : "message",
									"numinlets" : 2,
									"numoutlets" : 1,
									"outlettype" : [ "" ],
									"patching_rect" : [ 270.0, 185.0, 205.0, 225.0 ],
									"style" : "",
									"text" : "clear, 0 0 5, 0 125 5, 0 126 5.5, 0 250 5.5, 0 251 6, 0 375 6, 0 376 6.5, 0 625 6.5, 0 626 6., 0 750 6., 0 751 5.5, 0 875 5.5, 0 876 5., 0 1000 5., 1 0 4, 1 125 4, 1 126 3.5, 1 250 3.5, 1 251 3, 1 375 3, 1 376 2.5, 1 625 2.5, 1 626 3., 1 750 3., 1 751 3.5, 1 875 3.5, 1 876 4., 1 1000 4., 2 0 0.5, 2 125 0.5, 2 126 1, 2 250 1, 2 251 1.5, 2 375 1.5, 2 376 2, 2 625 2, 2 626 1.5, 2 750 1.5, 2 751 1, 2 875 1, 2 876 0.5, 3 1000 0.5, 3 0 9.5, 3 125 9.5, 3 126 9, 3 250 9, 3 251 8.5, 3 375 8.5, 3 376 8, 3 625 8, 3 626 8.5, 3 750 8.5, 3 751 9, 3 875 9, 3 876 9.5, 3 1000 9.5,"
								}

							}
, 							{
								"box" : 								{
									"fontname" : "Arial",
									"fontsize" : 12.0,
									"id" : "obj-35",
									"linecount" : 10,
									"maxclass" : "message",
									"numinlets" : 2,
									"numoutlets" : 1,
									"outlettype" : [ "" ],
									"patching_rect" : [ 495.0, 190.0, 139.0, 142.0 ],
									"style" : "",
									"text" : "clear, 0 1000. 5, 0 0 5., 0 500. 5, 1 1000 5, 1 0 5, 1 500. 6, 2 1000 5., 2 0 5, 2 500. 7, 3 1000 5, 3 500. 8, 3 0 5, 4 1000 5., 4 0 5, 4 500. 9, 5 1000 5, 5 0 5, 5 500. 4, 6 1000 5., 6 0 5, 6 500. 3, 7 1000 5, 7 0 5, 7 500. 2"
								}

							}
 ],
						"lines" : [ 							{
								"patchline" : 								{
									"destination" : [ "obj-2", 0 ],
									"disabled" : 0,
									"hidden" : 0,
									"source" : [ "obj-1", 0 ]
								}

							}
, 							{
								"patchline" : 								{
									"destination" : [ "obj-6", 0 ],
									"disabled" : 0,
									"hidden" : 0,
									"source" : [ "obj-3", 0 ]
								}

							}
, 							{
								"patchline" : 								{
									"destination" : [ "obj-2", 0 ],
									"disabled" : 0,
									"hidden" : 0,
									"source" : [ "obj-35", 0 ]
								}

							}
, 							{
								"patchline" : 								{
									"destination" : [ "obj-1", 0 ],
									"disabled" : 0,
									"hidden" : 0,
									"source" : [ "obj-6", 0 ]
								}

							}
, 							{
								"patchline" : 								{
									"destination" : [ "obj-35", 0 ],
									"disabled" : 0,
									"hidden" : 0,
									"source" : [ "obj-6", 2 ]
								}

							}
, 							{
								"patchline" : 								{
									"destination" : [ "obj-77", 0 ],
									"disabled" : 0,
									"hidden" : 0,
									"source" : [ "obj-6", 3 ]
								}

							}
, 							{
								"patchline" : 								{
									"destination" : [ "obj-89", 0 ],
									"disabled" : 0,
									"hidden" : 0,
									"source" : [ "obj-6", 1 ]
								}

							}
, 							{
								"patchline" : 								{
									"destination" : [ "obj-2", 0 ],
									"disabled" : 0,
									"hidden" : 0,
									"source" : [ "obj-77", 0 ]
								}

							}
, 							{
								"patchline" : 								{
									"destination" : [ "obj-2", 0 ],
									"disabled" : 0,
									"hidden" : 0,
									"source" : [ "obj-89", 0 ]
								}

							}
 ]
					}
,
					"patching_rect" : [ 919.166687, 90.0, 104.0, 22.0 ],
					"saved_object_attributes" : 					{
						"description" : "",
						"digest" : "",
						"globalpatchername" : "",
						"style" : "",
						"tags" : ""
					}
,
					"style" : "default",
					"text" : "p someFunctions"
				}

			}
, 			{
				"box" : 				{
					"id" : "obj-4",
					"maxclass" : "newobj",
					"numinlets" : 1,
					"numoutlets" : 0,
					"patching_rect" : [ 154.0, 660.0, 75.0, 22.0 ],
					"style" : "default",
					"text" : "print coords"
				}

			}
, 			{
				"box" : 				{
					"id" : "obj-40",
					"maxclass" : "message",
					"numinlets" : 2,
					"numoutlets" : 1,
					"outlettype" : [ "" ],
					"patching_rect" : [ 418.0, 55.0, 80.0, 22.0 ],
					"style" : "default",
					"text" : "setfunction 0"
				}

			}
, 			{
				"box" : 				{
					"id" : "obj-25",
					"maxclass" : "message",
					"numinlets" : 2,
					"numoutlets" : 1,
					"outlettype" : [ "" ],
					"patching_rect" : [ 418.0, 31.0, 74.0, 22.0 ],
					"style" : "default",
					"text" : "addfunction"
				}

			}
, 			{
				"box" : 				{
					"id" : "obj-5",
					"maxclass" : "newobj",
					"numinlets" : 1,
					"numoutlets" : 0,
					"patching_rect" : [ 1035.0, 660.0, 69.0, 22.0 ],
					"style" : "default",
					"text" : "print dump"
				}

			}
, 			{
				"box" : 				{
					"format" : 6,
					"id" : "obj-11",
					"maxclass" : "flonum",
					"maximum" : 1000.0,
					"minimum" : 0.0,
					"numinlets" : 1,
					"numoutlets" : 2,
					"outlettype" : [ "", "bang" ],
					"parameter_enable" : 0,
					"patching_rect" : [ 154.0, 133.0, 63.0, 22.0 ],
					"style" : "default"
				}

			}
, 			{
				"box" : 				{
					"id" : "obj-1",
					"maxclass" : "message",
					"numinlets" : 2,
					"numoutlets" : 1,
					"outlettype" : [ "" ],
					"patching_rect" : [ 418.0, 79.0, 152.0, 22.0 ],
					"style" : "default",
					"text" : "setfunctionname function1"
				}

			}
, 			{
				"box" : 				{
					"id" : "obj-18",
					"maxclass" : "message",
					"numinlets" : 2,
					"numoutlets" : 1,
					"outlettype" : [ "" ],
					"patching_rect" : [ 486.0, 159.0, 207.0, 22.0 ],
					"style" : "default",
					"text" : "xmin 0, xmax 1000, ymin 0, ymax 10"
				}

			}
, 			{
				"box" : 				{
					"color" : [ 1.0, 1.0, 1.0, 1.0 ],
					"fontface" : 0,
					"fontname" : "Arial",
					"fontsize" : 10.0,
					"id" : "obj-17",
					"maxclass" : "bpf",
					"numinlets" : 1,
					"numoutlets" : 3,
					"outlettype" : [ "list", "list", "list" ],
					"patching_rect" : [ 154.0, 195.0, 900.0, 449.0 ],
					"points" : [ 0.0, 0.0, 0.0, 1.0, 0.0, 0.0, 0.0, 1.0, 0.0, 0.0, 0.0, 0.0, 0.0, 0.0, 0.0, 0.0, 0, "0", 4, 1.111111, 3.538461, 1.0, 81.111115, 5.054945, 1.0, 184.444458, 2.615384, 1.0, 304.444458, 6.153846, 1.0, 0.0, 0.0, 0.0, 1.0, 0.0, 0.0, 0.0, 1.0, 0.0, 0.0, 0.0, 0.0, 0.0, 0.0, 0.0, 0.0, 0, "1", 5, 161.111115, 4.879121, 1.0, 294.444458, 8.351648, 1.0, 398.888916, 5.274725, 1.0, 444.444458, 2.681319, 1.0, 492.22226, 7.076923, 1.0, 0.0, 0.0, 0.0, 1.0, 0.0, 0.0, 0.0, 1.0, 0.0, 0.0, 0.0, 0.0, 0.0, 0.0, 0.0, 0.0, 0, "2", 5, 444.444458, 6.593407, 1.0, 505.555573, 8.417583, 1.0, 531.111145, 3.318681, 1.0, 596.666687, 4.989011, 1.0, 608.888916, 2.813187, 1.0, 0.0, 0.0, 0.0, 1.0, 0.0, 0.0, 0.0, 1.0, 0.0, 0.0, 0.0, 0.0, 0.0, 0.0, 0.0, 0.0, 0, "3", 6, 597.777832, 6.285714, 1.0, 646.666687, 8.483517, 1.0, 694.444458, 5.296703, 1.0, 836.666687, 6.43956, 1.0, 895.555603, 8.065934, 1.0, 978.888916, 3.098901, 1.0, 0.0, 0.0, 0.0, 1.0, 0.0, 0.0, 0.0, 1.0, 0.0, 0.0, 0.0, 0.0, 0.0, 0.0, 0.0, 0.0, 0, "4", 5, 322.222229, 2.395604, 1.0, 364.444458, 1.098901, 1.0, 537.777832, 1.978022, 1.0, 605.555603, 1.032967, 1.0, 761.111145, 1.956044, 1.0, 0.0, 0.0, 0.0, 1.0, 0.0, 0.0, 0.0, 1.0, 0.0, 0.0, 0.0, 0.0, 0.0, 0.0, 0.0, 0.0, 0, "5", 3, 47.777779, 8.593407, 1.0, 148.888901, 6.901099, 1.0, 251.11113, 9.362638, 1.0, 0.0, 0.0, 0.0, 1.0, 0.0, 0.0, 0.0, 1.0, 0.0, 0.0, 0.0, 0.0, 0.0, 0.0, 0.0, 0.0, 0, "6", 4, 738.888916, 3.604395, 1.0, 824.444458, 2.0, 1.0, 845.555603, 4.461538, 1.0, 893.333374, 1.186813, 1.0 ],
					"xmax" : 1000.0,
					"ymax" : 10.0
				}

			}
, 			{
				"box" : 				{
					"id" : "obj-6",
					"maxclass" : "message",
					"numinlets" : 2,
					"numoutlets" : 1,
					"outlettype" : [ "" ],
					"patching_rect" : [ 534.0, 31.0, 43.0, 22.0 ],
					"style" : "default",
					"text" : "dump"
				}

			}
, 			{
				"box" : 				{
					"id" : "obj-9",
					"maxclass" : "message",
					"numinlets" : 2,
					"numoutlets" : 1,
					"outlettype" : [ "" ],
					"patching_rect" : [ 494.0, 31.0, 39.0, 22.0 ],
					"style" : "default",
					"text" : "clear"
				}

			}
, 			{
				"box" : 				{
					"id" : "obj-7",
					"maxclass" : "multislider",
					"numinlets" : 1,
					"numoutlets" : 2,
					"orientation" : 0,
					"outlettype" : [ "", "" ],
					"parameter_enable" : 0,
					"patching_rect" : [ 154.0, 689.0, 900.0, 15.0 ],
					"setminmax" : [ 0.0, 1000.0 ],
					"settype" : 0,
					"style" : "default"
				}

			}
 ],
		"lines" : [ 			{
				"patchline" : 				{
					"destination" : [ "obj-17", 0 ],
					"disabled" : 0,
					"hidden" : 1,
					"source" : [ "obj-1", 0 ]
				}

			}
, 			{
				"patchline" : 				{
					"destination" : [ "obj-17", 0 ],
					"disabled" : 0,
					"hidden" : 0,
					"source" : [ "obj-11", 0 ]
				}

			}
, 			{
				"patchline" : 				{
					"destination" : [ "obj-7", 0 ],
					"disabled" : 0,
					"hidden" : 1,
					"source" : [ "obj-11", 0 ]
				}

			}
, 			{
				"patchline" : 				{
					"destination" : [ "obj-37", 0 ],
					"disabled" : 0,
					"hidden" : 1,
					"source" : [ "obj-13", 0 ]
				}

			}
, 			{
				"patchline" : 				{
					"destination" : [ "obj-37", 0 ],
					"disabled" : 0,
					"hidden" : 1,
					"source" : [ "obj-14", 0 ]
				}

			}
, 			{
				"patchline" : 				{
					"destination" : [ "obj-37", 0 ],
					"disabled" : 0,
					"hidden" : 1,
					"source" : [ "obj-15", 0 ]
				}

			}
, 			{
				"patchline" : 				{
					"destination" : [ "obj-17", 0 ],
					"disabled" : 0,
					"hidden" : 1,
					"source" : [ "obj-16", 0 ]
				}

			}
, 			{
				"patchline" : 				{
					"destination" : [ "obj-20", 0 ],
					"disabled" : 0,
					"hidden" : 1,
					"source" : [ "obj-16", 0 ]
				}

			}
, 			{
				"patchline" : 				{
					"destination" : [ "obj-2", 0 ],
					"disabled" : 0,
					"hidden" : 0,
					"source" : [ "obj-17", 0 ]
				}

			}
, 			{
				"patchline" : 				{
					"destination" : [ "obj-4", 0 ],
					"disabled" : 0,
					"hidden" : 0,
					"source" : [ "obj-17", 0 ]
				}

			}
, 			{
				"patchline" : 				{
					"destination" : [ "obj-5", 0 ],
					"disabled" : 0,
					"hidden" : 0,
					"source" : [ "obj-17", 2 ]
				}

			}
, 			{
				"patchline" : 				{
					"destination" : [ "obj-17", 0 ],
					"disabled" : 0,
					"hidden" : 1,
					"source" : [ "obj-18", 0 ]
				}

			}
, 			{
				"patchline" : 				{
					"destination" : [ "obj-19", 0 ],
					"disabled" : 0,
					"hidden" : 1,
					"source" : [ "obj-18", 0 ]
				}

			}
, 			{
				"patchline" : 				{
					"destination" : [ "obj-7", 0 ],
					"disabled" : 0,
					"hidden" : 1,
					"source" : [ "obj-19", 0 ]
				}

			}
, 			{
				"patchline" : 				{
					"destination" : [ "obj-27", 0 ],
					"disabled" : 0,
					"hidden" : 0,
					"source" : [ "obj-2", 0 ]
				}

			}
, 			{
				"patchline" : 				{
					"destination" : [ "obj-39", 0 ],
					"disabled" : 0,
					"hidden" : 0,
					"source" : [ "obj-2", 1 ]
				}

			}
, 			{
				"patchline" : 				{
					"destination" : [ "obj-41", 0 ],
					"disabled" : 0,
					"hidden" : 0,
					"source" : [ "obj-2", 2 ]
				}

			}
, 			{
				"patchline" : 				{
					"destination" : [ "obj-7", 0 ],
					"disabled" : 0,
					"hidden" : 1,
					"source" : [ "obj-20", 0 ]
				}

			}
, 			{
				"patchline" : 				{
					"destination" : [ "obj-37", 0 ],
					"disabled" : 0,
					"hidden" : 1,
					"source" : [ "obj-23", 0 ]
				}

			}
, 			{
				"patchline" : 				{
					"destination" : [ "obj-17", 0 ],
					"disabled" : 0,
					"hidden" : 1,
					"source" : [ "obj-25", 0 ]
				}

			}
, 			{
				"patchline" : 				{
					"destination" : [ "obj-17", 0 ],
					"disabled" : 0,
					"hidden" : 1,
					"source" : [ "obj-37", 0 ]
				}

			}
, 			{
				"patchline" : 				{
					"destination" : [ "obj-17", 0 ],
					"disabled" : 0,
					"hidden" : 1,
					"source" : [ "obj-40", 0 ]
				}

			}
, 			{
				"patchline" : 				{
					"destination" : [ "obj-17", 0 ],
					"disabled" : 0,
					"hidden" : 1,
					"source" : [ "obj-6", 0 ]
				}

			}
, 			{
				"patchline" : 				{
					"destination" : [ "obj-17", 0 ],
					"disabled" : 0,
					"hidden" : 1,
					"source" : [ "obj-9", 0 ]
				}

			}
 ],
		"dependency_cache" : [ 			{
				"name" : "bpf.mxo",
				"type" : "iLaX"
			}
 ],
		"embedsnapshot" : 0
	}

}
