{
	"patcher" : 	{
		"fileversion" : 1,
		"appversion" : 		{
			"major" : 7,
			"minor" : 3,
			"revision" : 4,
			"architecture" : "x64",
			"modernui" : 1
		}
,
		"rect" : [ 100.0, 100.0, 735.0, 599.0 ],
		"bglocked" : 0,
		"openinpresentation" : 0,
		"default_fontsize" : 12.0,
		"default_fontface" : 0,
		"default_fontname" : "Arial",
		"gridonopen" : 1,
		"gridsize" : [ 15.0, 15.0 ],
		"gridsnaponopen" : 1,
		"objectsnaponopen" : 1,
		"statusbarvisible" : 2,
		"toolbarvisible" : 1,
		"lefttoolbarpinned" : 0,
		"toptoolbarpinned" : 0,
		"righttoolbarpinned" : 0,
		"bottomtoolbarpinned" : 0,
		"toolbars_unpinned_last_save" : 0,
		"tallnewobj" : 0,
		"boxanimatetime" : 200,
		"enablehscroll" : 1,
		"enablevscroll" : 1,
		"devicewidth" : 0.0,
		"description" : "",
		"digest" : "",
		"tags" : "",
		"style" : "",
		"subpatcher_template" : "",
		"showrootpatcherontab" : 0,
		"showontab" : 0,
		"boxes" : [ 			{
				"box" : 				{
					"id" : "obj-42",
					"maxclass" : "newobj",
					"numinlets" : 0,
					"numoutlets" : 0,
					"patcher" : 					{
						"fileversion" : 1,
						"appversion" : 						{
							"major" : 7,
							"minor" : 3,
							"revision" : 4,
							"architecture" : "x64",
							"modernui" : 1
						}
,
						"rect" : [ 0.0, 26.0, 735.0, 573.0 ],
						"bglocked" : 0,
						"openinpresentation" : 0,
						"default_fontsize" : 12.0,
						"default_fontface" : 0,
						"default_fontname" : "Arial",
						"gridonopen" : 1,
						"gridsize" : [ 15.0, 15.0 ],
						"gridsnaponopen" : 1,
						"objectsnaponopen" : 1,
						"statusbarvisible" : 2,
						"toolbarvisible" : 1,
						"lefttoolbarpinned" : 0,
						"toptoolbarpinned" : 0,
						"righttoolbarpinned" : 0,
						"bottomtoolbarpinned" : 0,
						"toolbars_unpinned_last_save" : 0,
						"tallnewobj" : 0,
						"boxanimatetime" : 200,
						"enablehscroll" : 1,
						"enablevscroll" : 1,
						"devicewidth" : 0.0,
						"description" : "",
						"digest" : "",
						"tags" : "",
						"style" : "",
						"subpatcher_template" : "",
						"showontab" : 1,
						"boxes" : [  ],
						"lines" : [  ]
					}
,
					"patching_rect" : [ 103.0, 20.0, 27.0, 22.0 ],
					"saved_object_attributes" : 					{
						"description" : "",
						"digest" : "",
						"globalpatchername" : "",
						"style" : "",
						"tags" : ""
					}
,
					"style" : "",
					"text" : "p ?"
				}

			}
, 			{
				"box" : 				{
					"id" : "obj-41",
					"maxclass" : "newobj",
					"numinlets" : 0,
					"numoutlets" : 0,
					"patcher" : 					{
						"fileversion" : 1,
						"appversion" : 						{
							"major" : 7,
							"minor" : 3,
							"revision" : 4,
							"architecture" : "x64",
							"modernui" : 1
						}
,
						"rect" : [ 59.0, 104.0, 640.0, 480.0 ],
						"bglocked" : 0,
						"openinpresentation" : 0,
						"default_fontsize" : 12.0,
						"default_fontface" : 0,
						"default_fontname" : "Arial",
						"gridonopen" : 1,
						"gridsize" : [ 15.0, 15.0 ],
						"gridsnaponopen" : 1,
						"objectsnaponopen" : 1,
						"statusbarvisible" : 2,
						"toolbarvisible" : 1,
						"lefttoolbarpinned" : 0,
						"toptoolbarpinned" : 0,
						"righttoolbarpinned" : 0,
						"bottomtoolbarpinned" : 0,
						"toolbars_unpinned_last_save" : 0,
						"tallnewobj" : 0,
						"boxanimatetime" : 200,
						"enablehscroll" : 1,
						"enablevscroll" : 1,
						"devicewidth" : 0.0,
						"description" : "",
						"digest" : "",
						"tags" : "",
						"style" : "",
						"subpatcher_template" : "",
						"showontab" : 1,
						"visible" : 1,
						"boxes" : [ 							{
								"box" : 								{
									"bubble" : 1,
									"bubblepoint" : 0.8,
									"bubbleside" : 2,
									"fontname" : "Arial",
									"fontsize" : 12.0,
									"id" : "obj-1",
									"maxclass" : "comment",
									"numinlets" : 1,
									"numoutlets" : 0,
									"patching_rect" : [ 485.0, 368.0, 75.0, 39.0 ],
									"style" : "",
									"text" : "look in here"
								}

							}
, 							{
								"box" : 								{
									"fontname" : "Arial",
									"fontsize" : 12.0,
									"id" : "obj-2",
									"maxclass" : "comment",
									"numinlets" : 1,
									"numoutlets" : 0,
									"patching_rect" : [ 484.0, 319.0, 90.0, 20.0 ],
									"style" : "",
									"text" : "Seeing this?:"
								}

							}
, 							{
								"box" : 								{
									"fontname" : "Arial",
									"fontsize" : 12.0,
									"id" : "obj-3",
									"maxclass" : "comment",
									"numinlets" : 1,
									"numoutlets" : 0,
									"patching_rect" : [ 484.0, 339.0, 208.0, 20.0 ],
									"style" : "",
									"text" : "• check failed: no matching exception",
									"textcolor" : [ 0.52549, 0.062745, 0.003922, 1.0 ]
								}

							}
, 							{
								"box" : 								{
									"fontname" : "Arial",
									"fontsize" : 9.0,
									"id" : "obj-4",
									"maxclass" : "newobj",
									"numinlets" : 0,
									"numoutlets" : 0,
									"patcher" : 									{
										"fileversion" : 1,
										"appversion" : 										{
											"major" : 7,
											"minor" : 3,
											"revision" : 4,
											"architecture" : "x64",
											"modernui" : 1
										}
,
										"rect" : [ 827.0, 79.0, 374.0, 517.0 ],
										"bglocked" : 0,
										"openinpresentation" : 0,
										"default_fontsize" : 12.0,
										"default_fontface" : 0,
										"default_fontname" : "Arial",
										"gridonopen" : 1,
										"gridsize" : [ 15.0, 15.0 ],
										"gridsnaponopen" : 1,
										"objectsnaponopen" : 1,
										"statusbarvisible" : 2,
										"toolbarvisible" : 1,
										"lefttoolbarpinned" : 0,
										"toptoolbarpinned" : 0,
										"righttoolbarpinned" : 0,
										"bottomtoolbarpinned" : 0,
										"toolbars_unpinned_last_save" : 0,
										"tallnewobj" : 0,
										"boxanimatetime" : 200,
										"enablehscroll" : 1,
										"enablevscroll" : 1,
										"devicewidth" : 0.0,
										"description" : "",
										"digest" : "",
										"tags" : "",
										"style" : "",
										"subpatcher_template" : "",
										"boxes" : [ 											{
												"box" : 												{
													"fontname" : "Arial",
													"fontsize" : 14.0,
													"id" : "obj-1",
													"maxclass" : "comment",
													"numinlets" : 1,
													"numoutlets" : 0,
													"patching_rect" : [ 95.0, 463.0, 333.0, 22.0 ],
													"style" : "",
													"text" : "in the CNMAT Max/MSP/Jitter Depot."
												}

											}
, 											{
												"box" : 												{
													"fontname" : "Arial",
													"fontsize" : 9.0,
													"id" : "obj-2",
													"maxclass" : "newobj",
													"numinlets" : 1,
													"numoutlets" : 1,
													"outlettype" : [ "" ],
													"patching_rect" : [ 74.0, 443.0, 47.0, 19.0 ],
													"style" : "",
													"text" : "pcontrol"
												}

											}
, 											{
												"box" : 												{
													"fontname" : "Arial",
													"fontsize" : 9.0,
													"id" : "obj-3",
													"maxclass" : "newobj",
													"numinlets" : 1,
													"numoutlets" : 1,
													"outlettype" : [ "" ],
													"patching_rect" : [ 74.0, 423.0, 66.0, 19.0 ],
													"style" : "",
													"text" : "prepend load"
												}

											}
, 											{
												"box" : 												{
													"fontname" : "Arial",
													"fontsize" : 9.0,
													"id" : "obj-4",
													"maxclass" : "message",
													"numinlets" : 2,
													"numoutlets" : 1,
													"outlettype" : [ "" ],
													"patching_rect" : [ 148.0, 403.0, 85.0, 19.0 ],
													"style" : "",
													"text" : "on_timing_in_max"
												}

											}
, 											{
												"box" : 												{
													"fontname" : "Arial",
													"fontsize" : 9.0,
													"id" : "obj-5",
													"maxclass" : "message",
													"numinlets" : 2,
													"numoutlets" : 1,
													"outlettype" : [ "" ],
													"patching_rect" : [ 74.0, 403.0, 71.0, 19.0 ],
													"style" : "",
													"text" : "DSP_Settings"
												}

											}
, 											{
												"box" : 												{
													"fontname" : "Arial",
													"fontsize" : 14.0,
													"id" : "obj-6",
													"linecount" : 2,
													"maxclass" : "comment",
													"numinlets" : 1,
													"numoutlets" : 0,
													"patching_rect" : [ 10.0, 394.0, 51.0, 38.0 ],
													"style" : "",
													"text" : "See also:"
												}

											}
, 											{
												"box" : 												{
													"fontname" : "Arial",
													"fontsize" : 9.0,
													"id" : "obj-7",
													"linecount" : 3,
													"maxclass" : "comment",
													"numinlets" : 1,
													"numoutlets" : 0,
													"patching_rect" : [ 10.0, 354.0, 333.0, 37.0 ],
													"style" : "",
													"text" : "These problems generally come up when trying to chain a large number of Max operations to the output of cambio~. The best solution is to move the event into another thread, using objects like pipe, or defer."
												}

											}
, 											{
												"box" : 												{
													"fontname" : "Arial",
													"fontsize" : 9.0,
													"id" : "obj-8",
													"linecount" : 2,
													"maxclass" : "comment",
													"numinlets" : 1,
													"numoutlets" : 0,
													"patching_rect" : [ 10.0, 316.0, 308.0, 27.0 ],
													"style" : "",
													"text" : "I have also encountered the \"spinning rainbow of death\" on OSX, and I'm sure there's something bad that could happen in Windows."
												}

											}
, 											{
												"box" : 												{
													"fontname" : "Arial",
													"fontsize" : 9.0,
													"id" : "obj-9",
													"linecount" : 2,
													"maxclass" : "comment",
													"numinlets" : 1,
													"numoutlets" : 0,
													"patching_rect" : [ 10.0, 270.0, 327.0, 27.0 ],
													"style" : "",
													"text" : "Stack overflow in the audio thread seems to be signaled by this uninformative message:"
												}

											}
, 											{
												"box" : 												{
													"fontname" : "Arial",
													"fontsize" : 9.0,
													"id" : "obj-10",
													"maxclass" : "comment",
													"numinlets" : 1,
													"numoutlets" : 0,
													"patching_rect" : [ 58.0, 299.0, 178.0, 17.0 ],
													"style" : "",
													"text" : "• check failed: no matching exception"
												}

											}
, 											{
												"box" : 												{
													"hidden" : 1,
													"id" : "obj-11",
													"maxclass" : "button",
													"numinlets" : 1,
													"numoutlets" : 1,
													"outlettype" : [ "bang" ],
													"patching_rect" : [ 322.0, 261.0, 15.0, 15.0 ],
													"style" : ""
												}

											}
, 											{
												"box" : 												{
													"hidden" : 1,
													"id" : "obj-12",
													"maxclass" : "button",
													"numinlets" : 1,
													"numoutlets" : 1,
													"outlettype" : [ "bang" ],
													"patching_rect" : [ 7.0, 245.0, 15.0, 15.0 ],
													"style" : ""
												}

											}
, 											{
												"box" : 												{
													"fontname" : "Arial",
													"fontsize" : 18.0,
													"id" : "obj-13",
													"maxclass" : "comment",
													"numinlets" : 1,
													"numoutlets" : 0,
													"patching_rect" : [ 18.0, 240.0, 212.0, 27.0 ],
													"style" : "",
													"text" : "Managing output thread"
												}

											}
, 											{
												"box" : 												{
													"fontname" : "Arial",
													"fontsize" : 9.0,
													"id" : "obj-14",
													"maxclass" : "comment",
													"numinlets" : 1,
													"numoutlets" : 0,
													"patching_rect" : [ 109.0, 223.0, 106.0, 17.0 ],
													"style" : "",
													"text" : "<- Try these settings"
												}

											}
, 											{
												"box" : 												{
													"fontname" : "Arial",
													"fontsize" : 9.0,
													"id" : "obj-15",
													"linecount" : 5,
													"maxclass" : "comment",
													"numinlets" : 1,
													"numoutlets" : 0,
													"patching_rect" : [ 109.0, 159.0, 232.0, 57.0 ],
													"style" : "",
													"text" : "If you are running this object, you are probably concerned about timing. It is strongly recommended that you run with overdrive on, and the scheduler in audio interrupt. This will help to minimize stack overflow in the audio thread."
												}

											}
, 											{
												"box" : 												{
													"hidden" : 1,
													"id" : "obj-16",
													"maxclass" : "button",
													"numinlets" : 1,
													"numoutlets" : 1,
													"outlettype" : [ "bang" ],
													"patching_rect" : [ 323.0, 139.0, 15.0, 15.0 ],
													"style" : ""
												}

											}
, 											{
												"box" : 												{
													"hidden" : 1,
													"id" : "obj-17",
													"maxclass" : "button",
													"numinlets" : 1,
													"numoutlets" : 1,
													"outlettype" : [ "bang" ],
													"patching_rect" : [ 8.0, 123.0, 15.0, 15.0 ],
													"style" : ""
												}

											}
, 											{
												"box" : 												{
													"fontname" : "Arial",
													"fontsize" : 18.0,
													"id" : "obj-18",
													"maxclass" : "comment",
													"numinlets" : 1,
													"numoutlets" : 0,
													"patching_rect" : [ 19.0, 118.0, 212.0, 27.0 ],
													"style" : "",
													"text" : "DSP Settings"
												}

											}
, 											{
												"box" : 												{
													"hidden" : 1,
													"id" : "obj-19",
													"maxclass" : "button",
													"numinlets" : 1,
													"numoutlets" : 1,
													"outlettype" : [ "bang" ],
													"patching_rect" : [ 322.0, 49.0, 15.0, 15.0 ],
													"style" : ""
												}

											}
, 											{
												"box" : 												{
													"hidden" : 1,
													"id" : "obj-20",
													"maxclass" : "button",
													"numinlets" : 1,
													"numoutlets" : 1,
													"outlettype" : [ "bang" ],
													"patching_rect" : [ 7.0, 33.0, 15.0, 15.0 ],
													"style" : ""
												}

											}
, 											{
												"box" : 												{
													"fontname" : "Arial",
													"fontsize" : 9.0,
													"id" : "obj-21",
													"linecount" : 6,
													"maxclass" : "message",
													"numinlets" : 2,
													"numoutlets" : 1,
													"outlettype" : [ "" ],
													"patching_rect" : [ 21.0, 161.0, 82.0, 69.0 ],
													"style" : "",
													"text" : ";\rmax preempt 1;\rdsp takeover 1;\rdsp sigvs 64;\rdsp iovs 64;\rdsp sr 44100"
												}

											}
, 											{
												"box" : 												{
													"fontname" : "Arial",
													"fontsize" : 9.0,
													"id" : "obj-22",
													"linecount" : 3,
													"maxclass" : "comment",
													"numinlets" : 1,
													"numoutlets" : 0,
													"patching_rect" : [ 10.0, 72.0, 326.0, 37.0 ],
													"style" : "",
													"text" : "The whole point of cambio~ is to get a floating point number in the event domain in as timely a fashion as possible. To do that, the output happens in the audio thread. This means it must be handled carefully."
												}

											}
, 											{
												"box" : 												{
													"fontname" : "Arial",
													"fontsize" : 18.0,
													"id" : "obj-23",
													"maxclass" : "comment",
													"numinlets" : 1,
													"numoutlets" : 0,
													"patching_rect" : [ 18.0, 27.0, 212.0, 27.0 ],
													"style" : "",
													"text" : "Output in Audio Thread"
												}

											}
 ],
										"lines" : [ 											{
												"patchline" : 												{
													"destination" : [ "obj-11", 0 ],
													"source" : [ "obj-12", 0 ]
												}

											}
, 											{
												"patchline" : 												{
													"destination" : [ "obj-16", 0 ],
													"source" : [ "obj-17", 0 ]
												}

											}
, 											{
												"patchline" : 												{
													"destination" : [ "obj-19", 0 ],
													"source" : [ "obj-20", 0 ]
												}

											}
, 											{
												"patchline" : 												{
													"destination" : [ "obj-2", 0 ],
													"source" : [ "obj-3", 0 ]
												}

											}
, 											{
												"patchline" : 												{
													"destination" : [ "obj-3", 0 ],
													"midpoints" : [ 157.5, 420.0, 83.5, 420.0 ],
													"source" : [ "obj-4", 0 ]
												}

											}
, 											{
												"patchline" : 												{
													"destination" : [ "obj-3", 0 ],
													"source" : [ "obj-5", 0 ]
												}

											}
 ]
									}
,
									"patching_rect" : [ 536.0, 407.0, 70.0, 19.0 ],
									"saved_object_attributes" : 									{
										"description" : "",
										"digest" : "",
										"globalpatchername" : "",
										"style" : "",
										"tags" : ""
									}
,
									"style" : "",
									"text" : "p more_details"
								}

							}
, 							{
								"box" : 								{
									"fontface" : 2,
									"fontname" : "Arial",
									"fontsize" : 12.0,
									"id" : "obj-8",
									"linecount" : 3,
									"maxclass" : "comment",
									"numinlets" : 1,
									"numoutlets" : 0,
									"patching_rect" : [ 319.0, 426.0, 123.0, 47.0 ],
									"style" : "",
									"text" : "Object will not output more than 3 events per signal vector."
								}

							}
, 							{
								"box" : 								{
									"fontname" : "Arial",
									"fontsize" : 12.0,
									"id" : "obj-9",
									"maxclass" : "newobj",
									"numinlets" : 1,
									"numoutlets" : 1,
									"outlettype" : [ "signal" ],
									"patching_rect" : [ 144.0, 217.0, 50.0, 22.0 ],
									"style" : "",
									"text" : "noise~"
								}

							}
, 							{
								"box" : 								{
									"fontname" : "Arial",
									"fontsize" : 12.0,
									"id" : "obj-10",
									"linecount" : 4,
									"maxclass" : "comment",
									"numinlets" : 1,
									"numoutlets" : 0,
									"patching_rect" : [ 230.5, 498.0, 131.0, 60.0 ],
									"style" : "",
									"text" : "This will increase unreasonably fast if your input signal is not mostly constant."
								}

							}
, 							{
								"box" : 								{
									"format" : 6,
									"id" : "obj-11",
									"maxclass" : "flonum",
									"numinlets" : 1,
									"numoutlets" : 2,
									"outlettype" : [ "", "bang" ],
									"parameter_enable" : 0,
									"patching_rect" : [ 351.0, 137.0, 63.0, 22.0 ],
									"style" : "default",
									"triscale" : 0.9
								}

							}
, 							{
								"box" : 								{
									"fontname" : "Arial",
									"fontsize" : 12.0,
									"id" : "obj-12",
									"maxclass" : "newobj",
									"numinlets" : 2,
									"numoutlets" : 1,
									"outlettype" : [ "signal" ],
									"patching_rect" : [ 351.0, 170.0, 71.0, 22.0 ],
									"style" : "",
									"text" : "phasor~ 20"
								}

							}
, 							{
								"box" : 								{
									"format" : 6,
									"id" : "obj-13",
									"maxclass" : "flonum",
									"numinlets" : 1,
									"numoutlets" : 2,
									"outlettype" : [ "", "bang" ],
									"parameter_enable" : 0,
									"patching_rect" : [ 514.0, 137.0, 63.0, 22.0 ],
									"style" : "default",
									"triscale" : 0.9
								}

							}
, 							{
								"box" : 								{
									"format" : 6,
									"id" : "obj-14",
									"maxclass" : "flonum",
									"numinlets" : 1,
									"numoutlets" : 2,
									"outlettype" : [ "", "bang" ],
									"parameter_enable" : 0,
									"patching_rect" : [ 272.0, 204.0, 57.0, 22.0 ],
									"style" : "default",
									"triscale" : 0.9
								}

							}
, 							{
								"box" : 								{
									"fontname" : "Arial",
									"fontsize" : 12.0,
									"id" : "obj-15",
									"maxclass" : "newobj",
									"numinlets" : 2,
									"numoutlets" : 1,
									"outlettype" : [ "signal" ],
									"patching_rect" : [ 351.0, 238.0, 64.0, 22.0 ],
									"style" : "",
									"text" : "sah~ 0.01"
								}

							}
, 							{
								"box" : 								{
									"fontname" : "Arial",
									"fontsize" : 12.0,
									"id" : "obj-16",
									"maxclass" : "newobj",
									"numinlets" : 2,
									"numoutlets" : 1,
									"outlettype" : [ "signal" ],
									"patching_rect" : [ 514.0, 170.0, 87.0, 22.0 ],
									"style" : "",
									"text" : "phasor~ 11.33"
								}

							}
, 							{
								"box" : 								{
									"fontname" : "Arial",
									"fontsize" : 12.0,
									"id" : "obj-17",
									"maxclass" : "comment",
									"numinlets" : 1,
									"numoutlets" : 0,
									"patching_rect" : [ 607.0, 170.0, 86.0, 20.0 ],
									"style" : "",
									"text" : "control signal"
								}

							}
, 							{
								"box" : 								{
									"fontname" : "Arial",
									"fontsize" : 12.0,
									"id" : "obj-18",
									"maxclass" : "comment",
									"numinlets" : 1,
									"numoutlets" : 0,
									"patching_rect" : [ 423.5, 170.0, 78.0, 20.0 ],
									"style" : "",
									"text" : "input signal"
								}

							}
, 							{
								"box" : 								{
									"fontname" : "Arial",
									"fontsize" : 12.0,
									"id" : "obj-19",
									"maxclass" : "comment",
									"numinlets" : 1,
									"numoutlets" : 0,
									"patching_rect" : [ 265.5, 182.0, 70.0, 20.0 ],
									"style" : "",
									"text" : "set trigger"
								}

							}
, 							{
								"box" : 								{
									"fontface" : 0,
									"fontname" : "Arial",
									"fontsize" : 12.0,
									"id" : "obj-20",
									"interval" : 250.0,
									"maxclass" : "number~",
									"mode" : 2,
									"numinlets" : 2,
									"numoutlets" : 2,
									"outlettype" : [ "signal", "float" ],
									"patching_rect" : [ 116.0, 319.0, 62.0, 22.0 ],
									"sig" : 0.0,
									"style" : "default"
								}

							}
, 							{
								"box" : 								{
									"fontname" : "Arial",
									"fontsize" : 12.0,
									"id" : "obj-21",
									"maxclass" : "message",
									"numinlets" : 2,
									"numoutlets" : 1,
									"outlettype" : [ "" ],
									"patching_rect" : [ 278.5, 410.0, 18.0, 22.0 ],
									"style" : "",
									"text" : "0"
								}

							}
, 							{
								"box" : 								{
									"id" : "obj-22",
									"maxclass" : "number",
									"numinlets" : 1,
									"numoutlets" : 2,
									"outlettype" : [ "", "bang" ],
									"parameter_enable" : 0,
									"patching_rect" : [ 230.5, 470.0, 70.0, 22.0 ],
									"style" : "default",
									"triscale" : 0.9
								}

							}
, 							{
								"box" : 								{
									"id" : "obj-23",
									"maxclass" : "button",
									"numinlets" : 1,
									"numoutlets" : 1,
									"outlettype" : [ "bang" ],
									"patching_rect" : [ 230.5, 410.0, 24.0, 24.0 ],
									"style" : ""
								}

							}
, 							{
								"box" : 								{
									"fontname" : "Arial",
									"fontsize" : 12.0,
									"id" : "obj-24",
									"maxclass" : "newobj",
									"numinlets" : 5,
									"numoutlets" : 4,
									"outlettype" : [ "int", "", "", "int" ],
									"patching_rect" : [ 230.5, 443.0, 83.0, 22.0 ],
									"style" : "",
									"text" : "counter"
								}

							}
, 							{
								"box" : 								{
									"id" : "obj-25",
									"maxclass" : "ezadc~",
									"numinlets" : 1,
									"numoutlets" : 2,
									"outlettype" : [ "signal", "signal" ],
									"patching_rect" : [ 536.0, 452.0, 58.0, 58.0 ],
									"style" : ""
								}

							}
, 							{
								"box" : 								{
									"fontname" : "Arial",
									"fontsize" : 12.0,
									"id" : "obj-26",
									"maxclass" : "newobj",
									"numinlets" : 2,
									"numoutlets" : 1,
									"outlettype" : [ "signal" ],
									"patching_rect" : [ 100.0, 182.0, 50.0, 22.0 ],
									"style" : "",
									"text" : ">~ 0.1"
								}

							}
, 							{
								"box" : 								{
									"data" : [ 593, "png", "IBkSG0fBZn....PCIgDQRA...zF....LHX....vFnS+e....DLmPIQEBHf.B7g.YHB..BfPRDEDU3wY6bEsiCCBCKLc+++xbOwItcqkVHN1oGVZZRSCWZbLgNfUp0Z01HU3K1cfMLqTJC+N8dqOJZ2kjQs0Cy7Sk2qDqaeuV6esBIWssWky6bs9Oy6qO8gH.RtmAn5O2k2Yb0SWSalKVuE2KffyYwrIBm0++DmmJZpDLx.NpFFBG8epo4IVovKR7deHaImPEMTPsfLpYfdDfKZQ31Tv8FIBwoolyvSDsKyLhCOxxcftdVDIngIZnCNLRBXk3QchHOsZQQUFHTQSsZaqzeXlvQeJ+Qdyi7ZEYBY3hlm2brpqwdXc5NMy3GDVEQOrOEQSgZay1GTHASBmlY3CFn3mQBHMQyqa1HqqofKyLxNMEd.4U.qg4kY3wHwrKfqJftn4gaajHfHfybxTzEMD3ouzORHZYq1F6GYQBQKRb2.thaMAYDsUcaG0d0csy.YDMEghtLyDSzxVsMVPJQyLeEtUbJp5xLavlUMaY5n1bndBO5e+xogbsthpsHfJ2KGdpY73hfjiQbGc6tB7lix9jflOH2DQ1XL1hVBwVzRH1hVBwVzRH1hVBws+KoX0mPXzuH.5spcV4um2ScZ0Z8mWdidNQehZP0+QFaNi6gCOVJkTtmAabiLgqEWP7O1P+6uC5G0ITBWi6mxgtnGCEMTCAzPV2bosQfXrpBzVZldtQu6oxF+i3b+CFmP7MQ+TMlEbQ3RG.....IUjSD4pPfIH" ],
									"embed" : 1,
									"id" : "obj-27",
									"maxclass" : "fpic",
									"numinlets" : 1,
									"numoutlets" : 1,
									"outlettype" : [ "jit_matrix" ],
									"patching_rect" : [ 157.0, 15.0, 109.0, 48.0 ]
								}

							}
, 							{
								"box" : 								{
									"fontface" : 1,
									"fontname" : "Arial",
									"fontsize" : 24.0,
									"id" : "obj-28",
									"maxclass" : "comment",
									"numinlets" : 1,
									"numoutlets" : 0,
									"patching_rect" : [ 45.0, 34.0, 109.0, 33.0 ],
									"style" : "",
									"text" : "cambio~"
								}

							}
, 							{
								"box" : 								{
									"fontname" : "Arial",
									"fontsize" : 12.0,
									"id" : "obj-29",
									"maxclass" : "comment",
									"numinlets" : 1,
									"numoutlets" : 0,
									"patching_rect" : [ 45.0, 69.0, 338.0, 20.0 ],
									"style" : "",
									"text" : "Signal-to-event version of change, for mostly-constant signals"
								}

							}
, 							{
								"box" : 								{
									"id" : "obj-32",
									"items" : [ "select", "input", ",", "sinewave", ",", "sah~", ",", "kill", "this", "patch" ],
									"labelclick" : 1,
									"maxclass" : "umenu",
									"numinlets" : 1,
									"numoutlets" : 3,
									"outlettype" : [ "int", "", "" ],
									"parameter_enable" : 0,
									"patching_rect" : [ 78.0, 121.0, 100.0, 22.0 ],
									"style" : ""
								}

							}
, 							{
								"box" : 								{
									"format" : 6,
									"id" : "obj-33",
									"maxclass" : "flonum",
									"numinlets" : 1,
									"numoutlets" : 2,
									"outlettype" : [ "", "bang" ],
									"parameter_enable" : 0,
									"patching_rect" : [ 78.0, 479.0, 53.0, 22.0 ],
									"style" : "default",
									"triscale" : 0.9
								}

							}
, 							{
								"box" : 								{
									"fontname" : "Arial",
									"fontsize" : 12.0,
									"id" : "obj-34",
									"maxclass" : "newobj",
									"numinlets" : 4,
									"numoutlets" : 1,
									"outlettype" : [ "signal" ],
									"patching_rect" : [ 78.0, 272.0, 85.0, 22.0 ],
									"style" : "",
									"text" : "selector~ 3"
								}

							}
, 							{
								"box" : 								{
									"fontname" : "Arial",
									"fontsize" : 12.0,
									"id" : "obj-35",
									"maxclass" : "newobj",
									"numinlets" : 2,
									"numoutlets" : 1,
									"outlettype" : [ "signal" ],
									"patching_rect" : [ 100.0, 153.0, 62.0, 22.0 ],
									"style" : "",
									"text" : "cycle~ 2"
								}

							}
, 							{
								"box" : 								{
									"id" : "obj-36",
									"maxclass" : "newobj",
									"numinlets" : 1,
									"numoutlets" : 1,
									"outlettype" : [ "float" ],
									"patching_rect" : [ 78.0, 358.0, 56.0, 22.0 ],
									"style" : "default",
									"text" : "cambio~"
								}

							}
, 							{
								"box" : 								{
									"fontname" : "Arial",
									"fontsize" : 12.0,
									"id" : "obj-37",
									"linecount" : 2,
									"maxclass" : "comment",
									"numinlets" : 1,
									"numoutlets" : 0,
									"patching_rect" : [ 53.0, 501.0, 91.0, 33.0 ],
									"style" : "",
									"text" : "Signal's value if it changes"
								}

							}
, 							{
								"box" : 								{
									"fontface" : 2,
									"fontname" : "Arial",
									"fontsize" : 12.0,
									"id" : "obj-38",
									"maxclass" : "comment",
									"numinlets" : 1,
									"numoutlets" : 0,
									"patching_rect" : [ 351.0, 112.0, 104.0, 20.0 ],
									"style" : "",
									"text" : "...from sah~.help:"
								}

							}
, 							{
								"box" : 								{
									"fontface" : 2,
									"fontname" : "Arial",
									"fontsize" : 12.0,
									"id" : "obj-39",
									"linecount" : 3,
									"maxclass" : "comment",
									"numinlets" : 1,
									"numoutlets" : 0,
									"patching_rect" : [ 91.5, 398.5, 71.5, 47.0 ],
									"style" : "",
									"text" : "Consider a speedlim here."
								}

							}
 ],
						"lines" : [ 							{
								"patchline" : 								{
									"destination" : [ "obj-12", 0 ],
									"source" : [ "obj-11", 0 ]
								}

							}
, 							{
								"patchline" : 								{
									"destination" : [ "obj-15", 0 ],
									"source" : [ "obj-12", 0 ]
								}

							}
, 							{
								"patchline" : 								{
									"destination" : [ "obj-16", 0 ],
									"source" : [ "obj-13", 0 ]
								}

							}
, 							{
								"patchline" : 								{
									"destination" : [ "obj-15", 0 ],
									"source" : [ "obj-14", 0 ]
								}

							}
, 							{
								"patchline" : 								{
									"destination" : [ "obj-34", 2 ],
									"source" : [ "obj-15", 0 ]
								}

							}
, 							{
								"patchline" : 								{
									"destination" : [ "obj-15", 1 ],
									"source" : [ "obj-16", 0 ]
								}

							}
, 							{
								"patchline" : 								{
									"destination" : [ "obj-24", 3 ],
									"source" : [ "obj-21", 0 ]
								}

							}
, 							{
								"patchline" : 								{
									"destination" : [ "obj-24", 0 ],
									"source" : [ "obj-23", 0 ]
								}

							}
, 							{
								"patchline" : 								{
									"destination" : [ "obj-22", 0 ],
									"source" : [ "obj-24", 0 ]
								}

							}
, 							{
								"patchline" : 								{
									"destination" : [ "obj-34", 1 ],
									"source" : [ "obj-26", 0 ]
								}

							}
, 							{
								"patchline" : 								{
									"destination" : [ "obj-34", 0 ],
									"source" : [ "obj-32", 0 ]
								}

							}
, 							{
								"patchline" : 								{
									"destination" : [ "obj-20", 0 ],
									"order" : 0,
									"source" : [ "obj-34", 0 ]
								}

							}
, 							{
								"patchline" : 								{
									"destination" : [ "obj-36", 0 ],
									"order" : 1,
									"source" : [ "obj-34", 0 ]
								}

							}
, 							{
								"patchline" : 								{
									"destination" : [ "obj-26", 0 ],
									"source" : [ "obj-35", 0 ]
								}

							}
, 							{
								"patchline" : 								{
									"destination" : [ "obj-23", 0 ],
									"order" : 0,
									"source" : [ "obj-36", 0 ]
								}

							}
, 							{
								"patchline" : 								{
									"destination" : [ "obj-33", 0 ],
									"order" : 1,
									"source" : [ "obj-36", 0 ]
								}

							}
, 							{
								"patchline" : 								{
									"destination" : [ "obj-34", 3 ],
									"source" : [ "obj-9", 0 ]
								}

							}
 ]
					}
,
					"patching_rect" : [ 39.0, 20.0, 50.0, 22.0 ],
					"saved_object_attributes" : 					{
						"description" : "",
						"digest" : "",
						"globalpatchername" : "",
						"style" : "",
						"tags" : ""
					}
,
					"style" : "",
					"text" : "p Basic"
				}

			}
 ],
		"lines" : [  ],
		"dependency_cache" : [ 			{
				"name" : "cambio~.mxo",
				"type" : "iLaX"
			}
 ],
		"autosave" : 0
	}

}
