{
	"patcher" : 	{
		"fileversion" : 1,
		"appversion" : 		{
			"major" : 7,
			"minor" : 0,
			"revision" : 4,
			"architecture" : "x64",
			"modernui" : 1
		}
,
		"rect" : [ 61.0, 91.0, 651.0, 598.0 ],
		"bglocked" : 0,
		"openinpresentation" : 0,
		"default_fontsize" : 12.0,
		"default_fontface" : 0,
		"default_fontname" : "Arial",
		"gridonopen" : 1,
		"gridsize" : [ 10.0, 10.0 ],
		"gridsnaponopen" : 1,
		"objectsnaponopen" : 1,
		"statusbarvisible" : 2,
		"toolbarvisible" : 1,
		"lefttoolbarpinned" : 0,
		"toptoolbarpinned" : 0,
		"righttoolbarpinned" : 0,
		"bottomtoolbarpinned" : 0,
		"toolbars_unpinned_last_save" : 0,
		"tallnewobj" : 0,
		"boxanimatetime" : 200,
		"enablehscroll" : 1,
		"enablevscroll" : 1,
		"devicewidth" : 0.0,
		"description" : "",
		"digest" : "",
		"tags" : "",
		"style" : "",
		"subpatcher_template" : "",
		"boxes" : [ 			{
				"box" : 				{
					"data" : [ 593, "png", "IBkSG0fBZn....PCIgDQRA...zF....LHX....vFnS+e....DLmPIQEBHf.B7g.YHB..BfPRDEDU3wY6bEsiCCBCKLc+++xbOwItcqkVHN1oGVZZRSCWZbLgNfUp0Z01HU3K1cfMLqTJC+N8dqOJZ2kjQs0Cy7Sk2qDqaeuV6esBIWssWky6bs9Oy6qO8gH.RtmAn5O2k2Yb0SWSalKVuE2KffyYwrIBm0++DmmJZpDLx.NpFFBG8epo4IVovKR7deHaImPEMTPsfLpYfdDfKZQ31Tv8FIBwoolyvSDsKyLhCOxxcftdVDIngIZnCNLRBXk3QchHOsZQQUFHTQSsZaqzeXlvQeJ+Qdyi7ZEYBY3hlm2brpqwdXc5NMy3GDVEQOrOEQSgZay1GTHASBmlY3CFn3mQBHMQyqa1HqqofKyLxNMEd.4U.qg4kY3wHwrKfqJftn4gaajHfHfybxTzEMD3ouzORHZYq1F6GYQBQKRb2.thaMAYDsUcaG0d0csy.YDMEghtLyDSzxVsMVPJQyLeEtUbJp5xLavlUMaY5n1bndBO5e+xogbsthpsHfJ2KGdpY73hfjiQbGc6tB7lix9jflOH2DQ1XL1hVBwVzRH1hVBwVzRH1hVBws+KoX0mPXzuH.5spcV4um2ScZ0Z8mWdidNQehZP0+QFaNi6gCOVJkTtmAabiLgqEWP7O1P+6uC5G0ITBWi6mxgtnGCEMTCAzPV2bosQfXrpBzVZldtQu6oxF+i3b+CFmP7MQ+TMlEbQ3RG.....IUjSD4pPfIH" ],
					"embed" : 1,
					"id" : "obj-25",
					"maxclass" : "fpic",
					"numinlets" : 1,
					"numoutlets" : 1,
					"outlettype" : [ "jit_matrix" ],
					"patching_rect" : [ 102.0, 22.0, 109.0, 48.0 ]
				}

			}
, 			{
				"box" : 				{
					"id" : "obj-1",
					"linecount" : 2,
					"maxclass" : "comment",
					"numinlets" : 1,
					"numoutlets" : 0,
					"patching_rect" : [ 67.0, 385.0, 191.0, 33.0 ],
					"style" : "default",
					"text" : "order 2 outputs: monopole, dipoles (x, y, z), quadrapoles (...)"
				}

			}
, 			{
				"box" : 				{
					"id" : "obj-2",
					"maxclass" : "comment",
					"numinlets" : 1,
					"numoutlets" : 0,
					"patching_rect" : [ 487.0, 133.0, 79.0, 20.0 ],
					"style" : "default",
					"text" : "range: [0, Pi]"
				}

			}
, 			{
				"box" : 				{
					"id" : "obj-3",
					"maxclass" : "comment",
					"numinlets" : 1,
					"numoutlets" : 0,
					"patching_rect" : [ 532.0, 208.0, 89.0, 20.0 ],
					"style" : "default",
					"text" : "range: [0, 2 Pi]"
				}

			}
, 			{
				"box" : 				{
					"id" : "obj-4",
					"linecount" : 2,
					"maxclass" : "comment",
					"numinlets" : 1,
					"numoutlets" : 0,
					"patching_rect" : [ 26.0, 215.0, 109.0, 33.0 ],
					"style" : "default",
					"text" : "give the order, degree index pairs"
				}

			}
, 			{
				"box" : 				{
					"id" : "obj-5",
					"maxclass" : "newobj",
					"numinlets" : 1,
					"numoutlets" : 0,
					"patching_rect" : [ 428.0, 314.0, 63.0, 22.0 ],
					"style" : "default",
					"text" : "print input"
				}

			}
, 			{
				"box" : 				{
					"id" : "obj-6",
					"maxclass" : "comment",
					"numinlets" : 1,
					"numoutlets" : 0,
					"patching_rect" : [ 487.0, 111.0, 106.0, 20.0 ],
					"style" : "default",
					"text" : "theta (declination)"
				}

			}
, 			{
				"box" : 				{
					"id" : "obj-7",
					"maxclass" : "newobj",
					"numinlets" : 1,
					"numoutlets" : 0,
					"patching_rect" : [ 342.0, 463.0, 66.0, 22.0 ],
					"style" : "default",
					"text" : "print index"
				}

			}
, 			{
				"box" : 				{
					"id" : "obj-8",
					"maxclass" : "newobj",
					"numinlets" : 1,
					"numoutlets" : 0,
					"patching_rect" : [ 288.0, 463.0, 41.0, 22.0 ],
					"style" : "default",
					"text" : "print r"
				}

			}
, 			{
				"box" : 				{
					"id" : "obj-9",
					"maxclass" : "message",
					"numinlets" : 2,
					"numoutlets" : 1,
					"outlettype" : [ "" ],
					"patching_rect" : [ 147.0, 253.0, 84.0, 22.0 ],
					"style" : "default",
					"text" : "eval 0.2 0.3"
				}

			}
, 			{
				"box" : 				{
					"id" : "obj-10",
					"maxclass" : "comment",
					"numinlets" : 1,
					"numoutlets" : 0,
					"patching_rect" : [ 42.0, 546.0, 374.0, 20.0 ],
					"style" : "default",
					"text" : "Ported to MaxMSP by Andy Schmeder <andy@cnmat.berkeley.edu>"
				}

			}
, 			{
				"box" : 				{
					"id" : "obj-11",
					"maxclass" : "newobj",
					"numinlets" : 3,
					"numoutlets" : 1,
					"outlettype" : [ "" ],
					"patching_rect" : [ 288.0, 253.0, 92.0, 22.0 ],
					"style" : "default",
					"text" : "pak eval 0. 0."
				}

			}
, 			{
				"box" : 				{
					"id" : "obj-12",
					"maxclass" : "newobj",
					"numinlets" : 6,
					"numoutlets" : 1,
					"outlettype" : [ "" ],
					"patching_rect" : [ 324.5, 137.0, 132.0, 22.0 ],
					"style" : "default",
					"text" : "scale 0 127 0. 3.14159"
				}

			}
, 			{
				"box" : 				{
					"id" : "obj-13",
					"maxclass" : "newobj",
					"numinlets" : 6,
					"numoutlets" : 1,
					"outlettype" : [ "" ],
					"patching_rect" : [ 361.0, 208.0, 139.0, 22.0 ],
					"style" : "default",
					"text" : "scale 0 127 0. 6.283185"
				}

			}
, 			{
				"box" : 				{
					"id" : "obj-14",
					"maxclass" : "slider",
					"numinlets" : 1,
					"numoutlets" : 1,
					"orientation" : 1,
					"outlettype" : [ "" ],
					"parameter_enable" : 0,
					"patching_rect" : [ 324.5, 111.0, 144.0, 18.0 ],
					"style" : "default"
				}

			}
, 			{
				"box" : 				{
					"id" : "obj-15",
					"maxclass" : "slider",
					"numinlets" : 1,
					"numoutlets" : 1,
					"orientation" : 1,
					"outlettype" : [ "" ],
					"parameter_enable" : 0,
					"patching_rect" : [ 361.0, 182.0, 144.0, 18.0 ],
					"style" : "default"
				}

			}
, 			{
				"box" : 				{
					"id" : "obj-16",
					"maxclass" : "newobj",
					"numinlets" : 3,
					"numoutlets" : 3,
					"outlettype" : [ "", "", "" ],
					"patching_rect" : [ 288.0, 390.0, 127.0, 22.0 ],
					"style" : "default",
					"text" : "route r index"
				}

			}
, 			{
				"box" : 				{
					"id" : "obj-17",
					"maxclass" : "message",
					"numinlets" : 2,
					"numoutlets" : 1,
					"outlettype" : [ "" ],
					"patching_rect" : [ 26.0, 253.0, 42.0, 22.0 ],
					"style" : "default",
					"text" : "index"
				}

			}
, 			{
				"box" : 				{
					"id" : "obj-18",
					"maxclass" : "newobj",
					"numinlets" : 1,
					"numoutlets" : 1,
					"outlettype" : [ "list" ],
					"patching_rect" : [ 288.0, 342.0, 99.0, 22.0 ],
					"style" : "default",
					"text" : "sphY @order 1"
				}

			}
, 			{
				"box" : 				{
					"id" : "obj-19",
					"linecount" : 5,
					"maxclass" : "comment",
					"numinlets" : 1,
					"numoutlets" : 0,
					"patching_rect" : [ 31.0, 72.0, 119.0, 74.0 ],
					"style" : "default",
					"text" : "sphY computes the real-valued spherical harmonics at a point (phi, theta) up to order n."
				}

			}
, 			{
				"box" : 				{
					"fontface" : 1,
					"fontsize" : 24.0,
					"id" : "obj-20",
					"maxclass" : "comment",
					"numinlets" : 1,
					"numoutlets" : 0,
					"patching_rect" : [ 31.0, 37.0, 69.0, 33.0 ],
					"style" : "",
					"text" : "sphY"
				}

			}
, 			{
				"box" : 				{
					"id" : "obj-21",
					"maxclass" : "comment",
					"numinlets" : 1,
					"numoutlets" : 0,
					"patching_rect" : [ 42.0, 524.0, 283.0, 20.0 ],
					"style" : "default",
					"text" : "Copyright 2006-2008 Franz Zotter <zotter@iem.at>"
				}

			}
, 			{
				"box" : 				{
					"id" : "obj-22",
					"maxclass" : "comment",
					"numinlets" : 1,
					"numoutlets" : 0,
					"patching_rect" : [ 532.0, 182.0, 80.0, 20.0 ],
					"style" : "default",
					"text" : "phi (azimuth)"
				}

			}
, 			{
				"box" : 				{
					"id" : "obj-23",
					"maxclass" : "comment",
					"numinlets" : 1,
					"numoutlets" : 0,
					"patching_rect" : [ 147.0, 215.0, 109.0, 20.0 ],
					"style" : "default",
					"text" : "evaluate at a point"
				}

			}
, 			{
				"box" : 				{
					"id" : "obj-24",
					"linecount" : 2,
					"maxclass" : "comment",
					"numinlets" : 1,
					"numoutlets" : 0,
					"patching_rect" : [ 67.0, 342.0, 191.0, 33.0 ],
					"style" : "default",
					"text" : "order 1 outputs: monopole, dipole (x), dipole (y), dipole (z)"
				}

			}
 ],
		"lines" : [ 			{
				"patchline" : 				{
					"destination" : [ "obj-18", 0 ],
					"disabled" : 0,
					"hidden" : 0,
					"source" : [ "obj-11", 0 ]
				}

			}
, 			{
				"patchline" : 				{
					"destination" : [ "obj-5", 0 ],
					"disabled" : 0,
					"hidden" : 0,
					"source" : [ "obj-11", 0 ]
				}

			}
, 			{
				"patchline" : 				{
					"destination" : [ "obj-11", 1 ],
					"disabled" : 0,
					"hidden" : 0,
					"source" : [ "obj-12", 0 ]
				}

			}
, 			{
				"patchline" : 				{
					"destination" : [ "obj-11", 2 ],
					"disabled" : 0,
					"hidden" : 0,
					"source" : [ "obj-13", 0 ]
				}

			}
, 			{
				"patchline" : 				{
					"destination" : [ "obj-12", 0 ],
					"disabled" : 0,
					"hidden" : 0,
					"source" : [ "obj-14", 0 ]
				}

			}
, 			{
				"patchline" : 				{
					"destination" : [ "obj-13", 0 ],
					"disabled" : 0,
					"hidden" : 0,
					"source" : [ "obj-15", 0 ]
				}

			}
, 			{
				"patchline" : 				{
					"destination" : [ "obj-7", 0 ],
					"disabled" : 0,
					"hidden" : 0,
					"source" : [ "obj-16", 1 ]
				}

			}
, 			{
				"patchline" : 				{
					"destination" : [ "obj-8", 0 ],
					"disabled" : 0,
					"hidden" : 0,
					"source" : [ "obj-16", 0 ]
				}

			}
, 			{
				"patchline" : 				{
					"destination" : [ "obj-18", 0 ],
					"disabled" : 0,
					"hidden" : 0,
					"source" : [ "obj-17", 0 ]
				}

			}
, 			{
				"patchline" : 				{
					"destination" : [ "obj-16", 0 ],
					"disabled" : 0,
					"hidden" : 0,
					"source" : [ "obj-18", 0 ]
				}

			}
, 			{
				"patchline" : 				{
					"destination" : [ "obj-18", 0 ],
					"disabled" : 0,
					"hidden" : 0,
					"source" : [ "obj-9", 0 ]
				}

			}
 ],
		"dependency_cache" : [ 			{
				"name" : "sphY.mxo",
				"type" : "iLaX"
			}
 ],
		"embedsnapshot" : 0
	}

}
