{
	"patcher" : 	{
		"fileversion" : 1,
		"rect" : [ 0.0, 44.0, 1440.0, 826.0 ],
		"bglocked" : 0,
		"defrect" : [ 0.0, 44.0, 1440.0, 826.0 ],
		"openrect" : [ 0.0, 0.0, 0.0, 0.0 ],
		"openinpresentation" : 0,
		"default_fontsize" : 12.0,
		"default_fontface" : 0,
		"default_fontname" : "Arial",
		"gridonopen" : 0,
		"gridsize" : [ 10.0, 10.0 ],
		"gridsnaponopen" : 0,
		"toolbarvisible" : 1,
		"boxanimatetime" : 200,
		"imprint" : 0,
		"enablehscroll" : 1,
		"enablevscroll" : 1,
		"devicewidth" : 0.0,
		"boxes" : [ 			{
				"box" : 				{
					"maxclass" : "button",
					"numoutlets" : 1,
					"outlettype" : [ "signal" ],
					"presentation_rect" : [ 372.0, 123.0, 0.0, 0.0 ],
					"numoutlets" : 1,
					"id" : "obj-24",
					"outlettype" : [ "bang" ],
					"patching_rect" : [ 370.0, 130.0, 58.0, 58.0 ]
				}

			}
, 			{
				"box" : 				{
					"maxclass" : "newobj",
					"text" : "click~",
					"numinlets" : 1,
					"presentation_rect" : [ 372.0, 203.0, 0.0, 0.0 ],
					"fontname" : "Arial",
					"numoutlets" : 1,
					"id" : "obj-25",
					"outlettype" : [ "signal" ],
					"patching_rect" : [ 370.0, 210.0, 41.0, 20.0 ],
					"fontsize" : 12.0
				}

			}
, 			{
				"box" : 				{
					"maxclass" : "button",
					"numinlets" : 1,
					"presentation_rect" : [ 372.0, 123.0, 0.0, 0.0 ],
					"numoutlets" : 1,
					"id" : "obj-26",
					"outlettype" : [ "bang" ],
					"patching_rect" : [ 370.0, 130.0, 58.0, 58.0 ]
				}

			}
, 			{
				"box" : 				{
					"maxclass" : "newobj",
					"text" : "click~",
					"numinlets" : 1,
					"presentation_rect" : [ 372.0, 203.0, 0.0, 0.0 ],
					"fontname" : "Arial",
					"numoutlets" : 1,
					"id" : "obj-27",
					"outlettype" : [ "signal" ],
					"patching_rect" : [ 370.0, 210.0, 41.0, 20.0 ],
					"fontsize" : 12.0
				}

			}
, 			{
				"box" : 				{
					"maxclass" : "button",
					"numinlets" : 1,
					"presentation_rect" : [ 447.0, 99.0, 0.0, 0.0 ],
					"numoutlets" : 1,
					"id" : "obj-20",
					"outlettype" : [ "bang" ],
					"patching_rect" : [ 160.0, 130.0, 58.0, 58.0 ]
				}

			}
, 			{
				"box" : 				{
					"maxclass" : "newobj",
					"text" : "click~",
					"numinlets" : 1,
					"presentation_rect" : [ 447.0, 179.0, 0.0, 0.0 ],
					"fontname" : "Arial",
					"numoutlets" : 1,
					"id" : "obj-21",
					"outlettype" : [ "signal" ],
					"patching_rect" : [ 160.0, 210.0, 41.0, 20.0 ],
					"fontsize" : 12.0
				}

			}
, 			{
				"box" : 				{
					"maxclass" : "button",
					"numinlets" : 1,
					"presentation_rect" : [ 447.0, 99.0, 0.0, 0.0 ],
					"numoutlets" : 1,
					"id" : "obj-22",
					"outlettype" : [ "bang" ],
					"patching_rect" : [ 160.0, 130.0, 58.0, 58.0 ]
				}

			}
, 			{
				"box" : 				{
					"maxclass" : "newobj",
					"text" : "click~",
					"numinlets" : 1,
					"presentation_rect" : [ 447.0, 179.0, 0.0, 0.0 ],
					"fontname" : "Arial",
					"numoutlets" : 1,
					"id" : "obj-23",
					"outlettype" : [ "signal" ],
					"patching_rect" : [ 160.0, 210.0, 41.0, 20.0 ],
					"fontsize" : 12.0
				}

			}
, 			{
				"box" : 				{
					"maxclass" : "newobj",
					"text" : "partconv~ @n 2 @m 2 @k 2 @buffer test",
					"numinlets" : 2,
					"fontname" : "Arial",
					"numoutlets" : 2,
					"id" : "obj-1",
					"outlettype" : [ "signal", "signal" ],
					"patching_rect" : [ 160.0, 270.0, 231.0, 20.0 ],
					"fontsize" : 12.0,
					"saved_object_attributes" : 					{
						"scheme_64" : [ 64, 256, 2048, 16384, 131072 ],
						"scheme_32" : [ 32, 256, 2048, 16384, 131072 ],
						"scheme_256" : [ 256, 2048, 16384, 131072 ],
						"scheme_1024" : [ 1024, 2048, 16384, 131072 ],
						"scheme_512" : [ 512, 2048, 16384, 131072 ],
						"scheme_2048" : [ 2048, 16384, 131072 ],
						"scheme_128" : [ 128, 256, 2048, 16384, 131072 ],
						"scheme_4096" : [ 4096, 16384, 131072 ]
					}

				}

			}
, 			{
				"box" : 				{
					"maxclass" : "button",
					"numinlets" : 1,
					"numoutlets" : 1,
					"id" : "obj-40",
					"outlettype" : [ "bang" ],
					"patching_rect" : [ 800.0, 180.0, 58.0, 58.0 ]
				}

			}
, 			{
				"box" : 				{
					"maxclass" : "newobj",
					"text" : "click~",
					"numinlets" : 1,
					"fontname" : "Arial",
					"numoutlets" : 1,
					"id" : "obj-41",
					"outlettype" : [ "signal" ],
					"patching_rect" : [ 800.0, 260.0, 41.0, 20.0 ],
					"fontsize" : 12.0
				}

			}
, 			{
				"box" : 				{
					"maxclass" : "button",
					"numinlets" : 1,
					"numoutlets" : 1,
					"id" : "obj-42",
					"outlettype" : [ "bang" ],
					"patching_rect" : [ 800.0, 180.0, 58.0, 58.0 ]
				}

			}
, 			{
				"box" : 				{
					"maxclass" : "newobj",
					"text" : "click~",
					"numinlets" : 1,
					"fontname" : "Arial",
					"numoutlets" : 1,
					"id" : "obj-43",
					"outlettype" : [ "signal" ],
					"patching_rect" : [ 800.0, 260.0, 41.0, 20.0 ],
					"fontsize" : 12.0
				}

			}
, 			{
				"box" : 				{
					"maxclass" : "button",
					"numinlets" : 1,
					"numoutlets" : 1,
					"id" : "obj-44",
					"outlettype" : [ "bang" ],
					"patching_rect" : [ 800.0, 180.0, 58.0, 58.0 ]
				}

			}
, 			{
				"box" : 				{
					"maxclass" : "newobj",
					"text" : "click~",
					"numinlets" : 1,
					"fontname" : "Arial",
					"numoutlets" : 1,
					"id" : "obj-45",
					"outlettype" : [ "signal" ],
					"patching_rect" : [ 800.0, 260.0, 41.0, 20.0 ],
					"fontsize" : 12.0
				}

			}
, 			{
				"box" : 				{
					"maxclass" : "button",
					"numoutlets" : 1,
					"outlettype" : [ "signal" ],
					"numoutlets" : 1,
					"id" : "obj-46",
					"outlettype" : [ "bang" ],
					"patching_rect" : [ 800.0, 180.0, 58.0, 58.0 ]
				}

			}
, 			{
				"box" : 				{
					"maxclass" : "newobj",
					"text" : "click~",
					"numoutlets" : 1,
					"outlettype" : [ "signal" ],
					"fontname" : "Arial",
					"numoutlets" : 1,
					"id" : "obj-47",
					"outlettype" : [ "signal" ],
					"patching_rect" : [ 800.0, 260.0, 41.0, 20.0 ],
					"fontsize" : 12.0
				}

			}
, 			{
				"box" : 				{
					"maxclass" : "button",
					"numinlets" : 1,
					"numoutlets" : 1,
					"id" : "obj-48",
					"outlettype" : [ "bang" ],
					"patching_rect" : [ 800.0, 180.0, 58.0, 58.0 ]
				}

			}
, 			{
				"box" : 				{
					"maxclass" : "newobj",
					"text" : "click~",
					"numoutlets" : 1,
					"outlettype" : [ "signal" ],
					"fontname" : "Arial",
					"numoutlets" : 1,
					"id" : "obj-49",
					"outlettype" : [ "signal" ],
					"patching_rect" : [ 800.0, 260.0, 41.0, 20.0 ],
					"fontsize" : 12.0
				}

			}
, 			{
				"box" : 				{
					"maxclass" : "button",
					"numinlets" : 1,
					"numoutlets" : 1,
					"id" : "obj-50",
					"outlettype" : [ "bang" ],
					"patching_rect" : [ 800.0, 180.0, 58.0, 58.0 ]
				}

			}
, 			{
				"box" : 				{
					"maxclass" : "newobj",
					"text" : "click~",
					"numoutlets" : 1,
					"outlettype" : [ "signal" ],
					"fontname" : "Arial",
					"numoutlets" : 1,
					"id" : "obj-51",
					"outlettype" : [ "signal" ],
					"patching_rect" : [ 800.0, 260.0, 41.0, 20.0 ],
					"fontsize" : 12.0
				}

			}
, 			{
				"box" : 				{
					"maxclass" : "button",
					"numinlets" : 1,
					"numoutlets" : 1,
					"id" : "obj-52",
					"outlettype" : [ "bang" ],
					"patching_rect" : [ 800.0, 180.0, 58.0, 58.0 ]
				}

			}
, 			{
				"box" : 				{
					"maxclass" : "newobj",
					"text" : "click~",
					"numoutlets" : 1,
					"outlettype" : [ "signal" ],
					"fontname" : "Arial",
					"numoutlets" : 1,
					"id" : "obj-53",
					"outlettype" : [ "signal" ],
					"patching_rect" : [ 800.0, 260.0, 41.0, 20.0 ],
					"fontsize" : 12.0
				}

			}
, 			{
				"box" : 				{
					"maxclass" : "button",
					"numinlets" : 1,
					"numoutlets" : 1,
					"id" : "obj-54",
					"outlettype" : [ "bang" ],
					"patching_rect" : [ 800.0, 180.0, 58.0, 58.0 ]
				}

			}
, 			{
				"box" : 				{
					"maxclass" : "newobj",
					"text" : "click~",
					"numoutlets" : 1,
					"outlettype" : [ "signal" ],
					"fontname" : "Arial",
					"numoutlets" : 1,
					"id" : "obj-55",
					"outlettype" : [ "signal" ],
					"patching_rect" : [ 800.0, 260.0, 41.0, 20.0 ],
					"fontsize" : 12.0
				}

			}
, 			{
				"box" : 				{
					"maxclass" : "newobj",
					"text" : "partconv~ @n 16 @m 16 @k 1 @buffer reverb",
					"numinlets" : 16,
					"fontname" : "Arial",
					"numoutlets" : 16,
					"id" : "obj-18",
					"outlettype" : [ "signal", "signal", "signal", "signal", "signal", "signal", "signal", "signal", "signal", "signal", "signal", "signal", "signal", "signal", "signal", "signal" ],
					"patching_rect" : [ 470.0, 400.0, 259.0, 20.0 ],
					"fontsize" : 12.0,
					"saved_object_attributes" : 					{
						"scheme_64" : [ 64, 256, 2048, 16384, 131072 ],
						"scheme_32" : [ 32, 256, 2048, 16384, 131072 ],
						"scheme_256" : [ 256, 2048, 16384, 131072 ],
						"scheme_1024" : [ 1024, 2048, 16384, 131072 ],
						"scheme_512" : [ 512, 2048, 16384, 131072 ],
						"scheme_2048" : [ 2048, 16384, 131072 ],
						"scheme_128" : [ 128, 256, 2048, 16384, 131072 ],
						"scheme_4096" : [ 4096, 16384, 131072 ]
					}

				}

			}
, 			{
				"box" : 				{
					"maxclass" : "newobj",
					"text" : "loadbang",
					"numinlets" : 1,
					"fontname" : "Arial",
					"numoutlets" : 1,
					"id" : "obj-12",
					"outlettype" : [ "bang" ],
					"patching_rect" : [ 90.0, 757.0, 61.0, 20.0 ],
					"fontsize" : 12.0
				}

			}
, 			{
				"box" : 				{
					"maxclass" : "message",
					"text" : "read /Users/andy/Projects/cnmat/partconv/reverbs/hamilton_mausoleum.wav 0 -1",
					"numinlets" : 2,
					"fontname" : "Arial",
					"numoutlets" : 1,
					"id" : "obj-13",
					"outlettype" : [ "" ],
					"patching_rect" : [ 90.0, 797.0, 443.0, 18.0 ],
					"fontsize" : 12.0
				}

			}
, 			{
				"box" : 				{
					"maxclass" : "newobj",
					"text" : "buffer~ reverb 1 1",
					"numinlets" : 1,
					"fontname" : "Arial",
					"numoutlets" : 2,
					"id" : "obj-16",
					"outlettype" : [ "float", "bang" ],
					"patching_rect" : [ 90.0, 837.0, 105.0, 20.0 ],
					"fontsize" : 12.0
				}

			}
, 			{
				"box" : 				{
					"maxclass" : "newobj",
					"text" : "auditory.safe~",
					"numoutlets" : 1,
					"outlettype" : [ "signal" ],
					"fontname" : "Arial",
					"numoutlets" : 1,
					"id" : "obj-10",
					"outlettype" : [ "signal" ],
					"patching_rect" : [ 420.0, 460.0, 85.0, 20.0 ],
					"fontsize" : 12.0
				}

			}
, 			{
				"box" : 				{
					"maxclass" : "newobj",
					"text" : "loadbang",
					"numinlets" : 1,
					"fontname" : "Arial",
					"numoutlets" : 1,
					"numinlets" : 1,
					"id" : "obj-11",
					"outlettype" : [ "bang" ],
					"patching_rect" : [ 90.0, 580.0, 61.0, 20.0 ],
					"fontsize" : 12.0
				}

			}
, 			{
				"box" : 				{
					"maxclass" : "message",
					"text" : "read /Users/andy/Projects/cnmat/partconv/reverbs/CaveAndChanda.wav 0 -1",
					"numinlets" : 2,
					"fontname" : "Arial",
					"numoutlets" : 1,
					"id" : "obj-14",
					"outlettype" : [ "" ],
					"patching_rect" : [ 90.0, 622.0, 421.0, 18.0 ],
					"fontsize" : 12.0
				}

			}
, 			{
				"box" : 				{
					"maxclass" : "newobj",
					"text" : "buffer~ test 1 1",
					"numinlets" : 1,
					"fontname" : "Arial",
					"numoutlets" : 2,
					"numinlets" : 1,
					"id" : "obj-15",
					"outlettype" : [ "float", "bang" ],
					"patching_rect" : [ 90.0, 657.0, 91.0, 20.0 ],
					"fontsize" : 12.0
				}

			}
, 			{
				"box" : 				{
					"maxclass" : "ezdac~",
					"numinlets" : 2,
					"numoutlets" : 0,
					"numinlets" : 2,
					"id" : "obj-2",
					"patching_rect" : [ 420.0, 500.0, 45.0, 45.0 ]
				}

			}
 ],
		"lines" : [ 			{
				"patchline" : 				{
					"source" : [ "obj-1", 0 ],
					"destination" : [ "obj-18", 0 ],
					"hidden" : 0,
					"midpoints" : [  ]
				}

			}
, 			{
				"patchline" : 				{
					"source" : [ "obj-1", 1 ],
					"destination" : [ "obj-18", 6 ],
					"hidden" : 0,
					"midpoints" : [  ]
				}

			}
, 			{
				"patchline" : 				{
					"source" : [ "obj-25", 0 ],
					"destination" : [ "obj-1", 1 ],
					"hidden" : 0,
					"midpoints" : [  ]
				}

			}
, 			{
				"patchline" : 				{
					"source" : [ "obj-24", 0 ],
					"destination" : [ "obj-25", 0 ],
					"hidden" : 0,
					"midpoints" : [  ]
				}

			}
, 			{
				"patchline" : 				{
					"source" : [ "obj-26", 0 ],
					"destination" : [ "obj-27", 0 ],
					"hidden" : 0,
					"midpoints" : [  ]
				}

			}
, 			{
				"patchline" : 				{
					"source" : [ "obj-21", 0 ],
					"destination" : [ "obj-1", 0 ],
					"hidden" : 0,
					"midpoints" : [  ]
				}

			}
, 			{
				"patchline" : 				{
					"source" : [ "obj-22", 0 ],
					"destination" : [ "obj-23", 0 ],
					"hidden" : 0,
					"midpoints" : [  ]
				}

			}
, 			{
				"patchline" : 				{
					"source" : [ "obj-20", 0 ],
					"destination" : [ "obj-21", 0 ],
					"hidden" : 0,
					"midpoints" : [  ]
				}

			}
, 			{
				"patchline" : 				{
					"source" : [ "obj-41", 0 ],
					"destination" : [ "obj-18", 15 ],
					"hidden" : 0,
					"midpoints" : [  ]
				}

			}
, 			{
				"patchline" : 				{
					"source" : [ "obj-52", 0 ],
					"destination" : [ "obj-53", 0 ],
					"hidden" : 0,
					"midpoints" : [  ]
				}

			}
, 			{
				"patchline" : 				{
					"source" : [ "obj-54", 0 ],
					"destination" : [ "obj-55", 0 ],
					"hidden" : 0,
					"midpoints" : [  ]
				}

			}
, 			{
				"patchline" : 				{
					"source" : [ "obj-50", 0 ],
					"destination" : [ "obj-51", 0 ],
					"hidden" : 0,
					"midpoints" : [  ]
				}

			}
, 			{
				"patchline" : 				{
					"source" : [ "obj-48", 0 ],
					"destination" : [ "obj-49", 0 ],
					"hidden" : 0,
					"midpoints" : [  ]
				}

			}
, 			{
				"patchline" : 				{
					"source" : [ "obj-40", 0 ],
					"destination" : [ "obj-41", 0 ],
					"hidden" : 0,
					"midpoints" : [  ]
				}

			}
, 			{
				"patchline" : 				{
					"source" : [ "obj-42", 0 ],
					"destination" : [ "obj-43", 0 ],
					"hidden" : 0,
					"midpoints" : [  ]
				}

			}
, 			{
				"patchline" : 				{
					"source" : [ "obj-46", 0 ],
					"destination" : [ "obj-47", 0 ],
					"hidden" : 0,
					"midpoints" : [  ]
				}

			}
, 			{
				"patchline" : 				{
					"source" : [ "obj-44", 0 ],
					"destination" : [ "obj-45", 0 ],
					"hidden" : 0,
					"midpoints" : [  ]
				}

			}
, 			{
				"patchline" : 				{
					"source" : [ "obj-14", 0 ],
					"destination" : [ "obj-15", 0 ],
					"hidden" : 0,
					"midpoints" : [  ]
				}

			}
, 			{
				"patchline" : 				{
					"source" : [ "obj-13", 0 ],
					"destination" : [ "obj-16", 0 ],
					"hidden" : 0,
					"midpoints" : [  ]
				}

			}
, 			{
				"patchline" : 				{
					"source" : [ "obj-12", 0 ],
					"destination" : [ "obj-13", 0 ],
					"hidden" : 0,
					"midpoints" : [  ]
				}

			}
, 			{
				"patchline" : 				{
					"source" : [ "obj-10", 0 ],
					"destination" : [ "obj-2", 0 ],
					"hidden" : 0,
					"midpoints" : [  ]
				}

			}
, 			{
				"patchline" : 				{
					"source" : [ "obj-11", 0 ],
					"destination" : [ "obj-14", 0 ],
					"hidden" : 0,
					"midpoints" : [  ]
				}

			}
, 			{
				"patchline" : 				{
					"source" : [ "obj-18", 0 ],
					"destination" : [ "obj-10", 0 ],
					"hidden" : 0,
					"midpoints" : [  ]
				}

			}
, 			{
				"patchline" : 				{
					"source" : [ "obj-18", 6 ],
					"destination" : [ "obj-10", 0 ],
					"hidden" : 0,
					"midpoints" : [  ]
				}

			}
, 			{
				"patchline" : 				{
					"source" : [ "obj-18", 3 ],
					"destination" : [ "obj-10", 0 ],
					"hidden" : 0,
					"midpoints" : [  ]
				}

			}
, 			{
				"patchline" : 				{
					"source" : [ "obj-18", 15 ],
					"destination" : [ "obj-10", 0 ],
					"hidden" : 0,
					"midpoints" : [  ]
				}

			}
 ]
	}

}
