{
	"patcher" : 	{
		"fileversion" : 1,
		"rect" : [ 8.0, 46.0, 1115.0, 766.0 ],
		"bglocked" : 0,
		"defrect" : [ 8.0, 46.0, 1115.0, 766.0 ],
		"openrect" : [ 0.0, 0.0, 0.0, 0.0 ],
		"openinpresentation" : 0,
		"default_fontsize" : 12.0,
		"default_fontface" : 0,
		"default_fontname" : "Arial",
		"gridonopen" : 0,
		"gridsize" : [ 4.0, 4.0 ],
		"gridsnaponopen" : 0,
		"toolbarvisible" : 1,
		"boxanimatetime" : 200,
		"imprint" : 0,
		"enablehscroll" : 1,
		"enablevscroll" : 1,
		"devicewidth" : 0.0,
		"boxes" : [ 			{
				"box" : 				{
					"maxclass" : "flonum",
					"numoutlets" : 2,
					"patching_rect" : [ 56.0, 684.0, 50.0, 20.0 ],
					"id" : "obj-41",
					"fontname" : "Arial",
					"outlettype" : [ "float", "bang" ],
					"fontsize" : 12.0,
					"numinlets" : 1
				}

			}
, 			{
				"box" : 				{
					"maxclass" : "flonum",
					"numoutlets" : 2,
					"patching_rect" : [ 36.0, 660.0, 50.0, 20.0 ],
					"id" : "obj-39",
					"fontname" : "Arial",
					"outlettype" : [ "float", "bang" ],
					"fontsize" : 12.0,
					"numinlets" : 1
				}

			}
, 			{
				"box" : 				{
					"maxclass" : "flonum",
					"numoutlets" : 2,
					"patching_rect" : [ 16.0, 632.0, 50.0, 20.0 ],
					"id" : "obj-27",
					"fontname" : "Arial",
					"outlettype" : [ "float", "bang" ],
					"fontsize" : 12.0,
					"numinlets" : 1
				}

			}
, 			{
				"box" : 				{
					"maxclass" : "newobj",
					"text" : "route 0 1 2",
					"numoutlets" : 4,
					"patching_rect" : [ 16.0, 600.0, 63.0, 19.0 ],
					"id" : "obj-2",
					"fontname" : "Arial",
					"outlettype" : [ "", "", "", "" ],
					"fontsize" : 11.0,
					"numinlets" : 1
				}

			}
, 			{
				"box" : 				{
					"maxclass" : "message",
					"text" : "3",
					"numoutlets" : 1,
					"patching_rect" : [ 1001.333313, 168.0, 32.0, 15.0 ],
					"id" : "obj-23",
					"fontname" : "Arial",
					"outlettype" : [ "" ],
					"fontsize" : 9.0,
					"numinlets" : 2
				}

			}
, 			{
				"box" : 				{
					"maxclass" : "message",
					"text" : "2",
					"numoutlets" : 1,
					"patching_rect" : [ 966.333313, 168.0, 32.0, 15.0 ],
					"id" : "obj-15",
					"fontname" : "Arial",
					"outlettype" : [ "" ],
					"fontsize" : 9.0,
					"numinlets" : 2
				}

			}
, 			{
				"box" : 				{
					"maxclass" : "message",
					"text" : "1",
					"numoutlets" : 1,
					"patching_rect" : [ 931.333313, 168.0, 32.0, 15.0 ],
					"id" : "obj-14",
					"fontname" : "Arial",
					"outlettype" : [ "" ],
					"fontsize" : 9.0,
					"numinlets" : 2
				}

			}
, 			{
				"box" : 				{
					"maxclass" : "message",
					"text" : "0",
					"numoutlets" : 1,
					"patching_rect" : [ 896.0, 168.0, 32.5, 15.0 ],
					"id" : "obj-13",
					"fontname" : "Arial",
					"outlettype" : [ "" ],
					"fontsize" : 9.0,
					"numinlets" : 2
				}

			}
, 			{
				"box" : 				{
					"maxclass" : "comment",
					"text" : "bpf.help version 0.1 by Yotam Mann & John MacCallum",
					"linecount" : 3,
					"numoutlets" : 0,
					"patching_rect" : [ 936.0, 28.0, 92.0, 38.0 ],
					"id" : "obj-38",
					"fontname" : "Arial",
					"fontsize" : 9.0,
					"frgb" : [ 0.0, 0.0, 0.0, 1.0 ],
					"numinlets" : 1
				}

			}
, 			{
				"box" : 				{
					"maxclass" : "fpic",
					"numoutlets" : 0,
					"patching_rect" : [ 824.0, 28.0, 109.0, 48.0 ],
					"id" : "obj-48",
					"embed" : 1,
					"numinlets" : 1,
					"data" : [ 593, "", "IBkSG0fBZn....PCIgDQRA...zF....LHX....vFnS+e....DLmPIQEBHf.B7g.YHB..BfPRDEDU3wY6bEsiCCBCKLc+++xbOwItcqkVHN1oGVZZRSCWZbLgNfUp0Z01HU3K1cfMLqTJC+N8dqOJZ2kjQs0Cy7Sk2qDqaeuV6esBIWssWky6bs9Oy6qO8gH.RtmAn5O2k2Yb0SWSalKVuE2KffyYwrIBm0++DmmJZpDLx.NpFFBG8epo4IVovKR7deHaImPEMTPsfLpYfdDfKZQ31Tv8FIBwoolyvSDsKyLhCOxxcftdVDIngIZnCNLRBXk3QchHOsZQQUFHTQSsZaqzeXlvQeJ+Qdyi7ZEYBY3hlm2brpqwdXc5NMy3GDVEQOrOEQSgZay1GTHASBmlY3CFn3mQBHMQyqa1HqqofKyLxNMEd.4U.qg4kY3wHwrKfqJftn4gaajHfHfybxTzEMD3ouzORHZYq1F6GYQBQKRb2.thaMAYDsUcaG0d0csy.YDMEghtLyDSzxVsMVPJQyLeEtUbJp5xLavlUMaY5n1bndBO5e+xogbsthpsHfJ2KGdpY73hfjiQbGc6tB7lix9jflOH2DQ1XL1hVBwVzRH1hVBwVzRH1hVBws+KoX0mPXzuH.5spcV4um2ScZ0Z8mWdidNQehZP0+QFaNi6gCOVJkTtmAabiLgqEWP7O1P+6uC5G0ITBWi6mxgtnGCEMTCAzPV2bosQfXrpBzVZldtQu6oxF+i3b+CFmP7MQ+TMlEbQ3RG.....IUjSD4pPfIH" ]
				}

			}
, 			{
				"box" : 				{
					"maxclass" : "comment",
					"text" : "Break-point function",
					"numoutlets" : 0,
					"patching_rect" : [ 36.0, 45.0, 230.0, 19.0 ],
					"id" : "obj-47",
					"fontname" : "Arial",
					"fontsize" : 11.0,
					"frgb" : [ 0.0, 0.0, 0.0, 1.0 ],
					"numinlets" : 1
				}

			}
, 			{
				"box" : 				{
					"maxclass" : "comment",
					"text" : "bpf",
					"numoutlets" : 0,
					"patching_rect" : [ 36.0, 24.0, 186.0, 24.0 ],
					"id" : "obj-42",
					"fontname" : "Helvetica",
					"textcolor" : [ 0.4, 0.4, 0.8, 1.0 ],
					"fontsize" : 18.0,
					"frgb" : [ 0.4, 0.4, 0.8, 1.0 ],
					"numinlets" : 1
				}

			}
, 			{
				"box" : 				{
					"maxclass" : "panel",
					"numoutlets" : 0,
					"patching_rect" : [ 8.0, 13.0, 224.0, 62.0 ],
					"id" : "obj-43",
					"rounded" : 58,
					"bordercolor" : [ 0.4, 0.4, 0.8, 1.0 ],
					"bgcolor" : [ 0.87451, 0.933333, 1.0, 1.0 ],
					"border" : 5,
					"numinlets" : 1
				}

			}
, 			{
				"box" : 				{
					"maxclass" : "comment",
					"text" : "Go to the function at <index>",
					"numoutlets" : 0,
					"patching_rect" : [ 476.0, 56.0, 159.0, 19.0 ],
					"id" : "obj-36",
					"fontname" : "Arial",
					"fontsize" : 11.0,
					"frgb" : [ 0.0, 0.0, 0.0, 1.0 ],
					"numinlets" : 1
				}

			}
, 			{
				"box" : 				{
					"maxclass" : "comment",
					"text" : "Display some functions",
					"numoutlets" : 0,
					"patching_rect" : [ 904.0, 148.0, 124.0, 19.0 ],
					"id" : "obj-34",
					"fontname" : "Arial",
					"fontsize" : 11.0,
					"frgb" : [ 0.0, 0.0, 0.0, 1.0 ],
					"numinlets" : 1
				}

			}
, 			{
				"box" : 				{
					"maxclass" : "comment",
					"text" : "SHIFT + click a point to delete it. ",
					"linecount" : 2,
					"numoutlets" : 0,
					"patching_rect" : [ 8.0, 485.0, 114.0, 32.0 ],
					"id" : "obj-33",
					"fontname" : "Arial",
					"fontsize" : 11.0,
					"frgb" : [ 0.0, 0.0, 0.0, 1.0 ],
					"numinlets" : 1
				}

			}
, 			{
				"box" : 				{
					"maxclass" : "comment",
					"text" : "Select an existing point to move it. ",
					"linecount" : 2,
					"numoutlets" : 0,
					"patching_rect" : [ 8.0, 397.0, 116.0, 32.0 ],
					"id" : "obj-32",
					"fontname" : "Arial",
					"fontsize" : 11.0,
					"frgb" : [ 0.0, 0.0, 0.0, 1.0 ],
					"numinlets" : 1
				}

			}
, 			{
				"box" : 				{
					"maxclass" : "comment",
					"text" : "Click on a blank area to add a point to the current function.",
					"linecount" : 3,
					"numoutlets" : 0,
					"patching_rect" : [ 8.0, 301.0, 119.0, 44.0 ],
					"id" : "obj-31",
					"fontname" : "Arial",
					"fontsize" : 11.0,
					"frgb" : [ 0.0, 0.0, 0.0, 1.0 ],
					"numinlets" : 1
				}

			}
, 			{
				"box" : 				{
					"maxclass" : "comment",
					"text" : "Inputing an x-coordinate outputs the function number followed by x, y pairs",
					"linecount" : 3,
					"numoutlets" : 0,
					"patching_rect" : [ 196.0, 128.0, 150.0, 44.0 ],
					"id" : "obj-26",
					"fontname" : "Arial",
					"fontsize" : 11.0,
					"frgb" : [ 0.0, 0.0, 0.0, 1.0 ],
					"numinlets" : 1
				}

			}
, 			{
				"box" : 				{
					"maxclass" : "comment",
					"text" : "Rename the current function",
					"numoutlets" : 0,
					"patching_rect" : [ 544.0, 80.0, 158.0, 19.0 ],
					"id" : "obj-22",
					"fontname" : "Arial",
					"fontsize" : 11.0,
					"frgb" : [ 0.0, 0.0, 0.0, 1.0 ],
					"numinlets" : 1
				}

			}
, 			{
				"box" : 				{
					"maxclass" : "comment",
					"text" : "Resize the frame",
					"numoutlets" : 0,
					"patching_rect" : [ 660.0, 140.0, 141.0, 19.0 ],
					"id" : "obj-21",
					"fontname" : "Arial",
					"fontsize" : 11.0,
					"frgb" : [ 0.0, 0.0, 0.0, 1.0 ],
					"numinlets" : 1
				}

			}
, 			{
				"box" : 				{
					"maxclass" : "message",
					"text" : "range 50 100",
					"numoutlets" : 1,
					"patching_rect" : [ 1048.0, 325.0, 76.0, 17.0 ],
					"id" : "obj-20",
					"fontname" : "Arial",
					"outlettype" : [ "" ],
					"hidden" : 1,
					"fontsize" : 11.0,
					"numinlets" : 2
				}

			}
, 			{
				"box" : 				{
					"maxclass" : "message",
					"text" : "range 0 1000",
					"numoutlets" : 1,
					"patching_rect" : [ 1048.0, 357.0, 76.0, 17.0 ],
					"id" : "obj-19",
					"fontname" : "Arial",
					"outlettype" : [ "" ],
					"hidden" : 1,
					"fontsize" : 11.0,
					"numinlets" : 2
				}

			}
, 			{
				"box" : 				{
					"maxclass" : "message",
					"text" : "xmin 50, xmax 100, ymin 0, ymax 10",
					"numoutlets" : 1,
					"patching_rect" : [ 464.0, 140.0, 190.0, 17.0 ],
					"id" : "obj-16",
					"fontname" : "Arial",
					"outlettype" : [ "" ],
					"fontsize" : 11.0,
					"numinlets" : 2
				}

			}
, 			{
				"box" : 				{
					"maxclass" : "newobj",
					"text" : "p someFunctions",
					"numoutlets" : 1,
					"patching_rect" : [ 896.0, 124.0, 95.0, 19.0 ],
					"id" : "obj-37",
					"fontname" : "Arial",
					"outlettype" : [ "" ],
					"hidden" : 1,
					"fontsize" : 11.0,
					"numinlets" : 1,
					"patcher" : 					{
						"fileversion" : 1,
						"rect" : [ 624.0, 44.0, 640.0, 480.0 ],
						"bglocked" : 0,
						"defrect" : [ 624.0, 44.0, 640.0, 480.0 ],
						"openrect" : [ 0.0, 0.0, 0.0, 0.0 ],
						"openinpresentation" : 0,
						"default_fontsize" : 12.0,
						"default_fontface" : 0,
						"default_fontname" : "Arial",
						"gridonopen" : 0,
						"gridsize" : [ 5.0, 5.0 ],
						"gridsnaponopen" : 0,
						"toolbarvisible" : 1,
						"boxanimatetime" : 200,
						"imprint" : 0,
						"enablehscroll" : 1,
						"enablevscroll" : 1,
						"devicewidth" : 0.0,
						"boxes" : [ 							{
								"box" : 								{
									"maxclass" : "newobj",
									"text" : "p makeRandom",
									"numoutlets" : 1,
									"patching_rect" : [ 655.0, 200.0, 95.0, 20.0 ],
									"id" : "obj-77",
									"fontname" : "Arial",
									"outlettype" : [ "" ],
									"fontsize" : 12.0,
									"numinlets" : 1,
									"patcher" : 									{
										"fileversion" : 1,
										"rect" : [ 71.0, 73.0, 640.0, 480.0 ],
										"bglocked" : 0,
										"defrect" : [ 71.0, 73.0, 640.0, 480.0 ],
										"openrect" : [ 0.0, 0.0, 0.0, 0.0 ],
										"openinpresentation" : 0,
										"default_fontsize" : 12.0,
										"default_fontface" : 0,
										"default_fontname" : "Arial",
										"gridonopen" : 0,
										"gridsize" : [ 5.0, 5.0 ],
										"gridsnaponopen" : 0,
										"toolbarvisible" : 1,
										"boxanimatetime" : 200,
										"imprint" : 0,
										"enablehscroll" : 1,
										"enablevscroll" : 1,
										"devicewidth" : 0.0,
										"boxes" : [ 											{
												"box" : 												{
													"maxclass" : "newobj",
													"text" : "t b b",
													"numoutlets" : 2,
													"patching_rect" : [ 155.0, 115.0, 34.0, 20.0 ],
													"id" : "obj-4",
													"fontname" : "Arial",
													"outlettype" : [ "bang", "bang" ],
													"fontsize" : 12.0,
													"numinlets" : 1
												}

											}
, 											{
												"box" : 												{
													"maxclass" : "message",
													"text" : "clear",
													"numoutlets" : 1,
													"patching_rect" : [ 100.0, 475.0, 37.0, 18.0 ],
													"id" : "obj-3",
													"fontname" : "Arial",
													"outlettype" : [ "" ],
													"fontsize" : 12.0,
													"numinlets" : 2
												}

											}
, 											{
												"box" : 												{
													"maxclass" : "newobj",
													"text" : "t b i",
													"numoutlets" : 2,
													"patching_rect" : [ 155.0, 245.0, 32.5, 20.0 ],
													"id" : "obj-2",
													"fontname" : "Arial",
													"outlettype" : [ "bang", "int" ],
													"fontsize" : 12.0,
													"numinlets" : 1
												}

											}
, 											{
												"box" : 												{
													"maxclass" : "newobj",
													"text" : "scale 0 100 0. 10.",
													"numoutlets" : 1,
													"patching_rect" : [ 885.0, 390.0, 105.0, 20.0 ],
													"id" : "obj-88",
													"fontname" : "Arial",
													"outlettype" : [ "" ],
													"fontsize" : 12.0,
													"numinlets" : 6
												}

											}
, 											{
												"box" : 												{
													"maxclass" : "newobj",
													"text" : "random 100",
													"numoutlets" : 1,
													"patching_rect" : [ 885.0, 365.0, 75.0, 20.0 ],
													"id" : "obj-89",
													"fontname" : "Arial",
													"outlettype" : [ "int" ],
													"fontsize" : 12.0,
													"numinlets" : 2
												}

											}
, 											{
												"box" : 												{
													"maxclass" : "newobj",
													"text" : "t b b",
													"numoutlets" : 2,
													"patching_rect" : [ 885.0, 315.0, 34.0, 20.0 ],
													"id" : "obj-90",
													"fontname" : "Arial",
													"outlettype" : [ "bang", "bang" ],
													"fontsize" : 12.0,
													"numinlets" : 1
												}

											}
, 											{
												"box" : 												{
													"maxclass" : "newobj",
													"text" : "random 1000",
													"numoutlets" : 1,
													"patching_rect" : [ 865.0, 340.0, 81.0, 20.0 ],
													"id" : "obj-91",
													"fontname" : "Arial",
													"outlettype" : [ "int" ],
													"fontsize" : 12.0,
													"numinlets" : 2
												}

											}
, 											{
												"box" : 												{
													"maxclass" : "newobj",
													"text" : "pack 0. 0.",
													"numoutlets" : 1,
													"patching_rect" : [ 865.0, 415.0, 64.0, 20.0 ],
													"id" : "obj-92",
													"fontname" : "Arial",
													"outlettype" : [ "" ],
													"fontsize" : 12.0,
													"numinlets" : 2
												}

											}
, 											{
												"box" : 												{
													"maxclass" : "newobj",
													"text" : "scale 0 100 0. 10.",
													"numoutlets" : 1,
													"patching_rect" : [ 755.0, 390.0, 105.0, 20.0 ],
													"id" : "obj-83",
													"fontname" : "Arial",
													"outlettype" : [ "" ],
													"fontsize" : 12.0,
													"numinlets" : 6
												}

											}
, 											{
												"box" : 												{
													"maxclass" : "newobj",
													"text" : "random 100",
													"numoutlets" : 1,
													"patching_rect" : [ 755.0, 365.0, 75.0, 20.0 ],
													"id" : "obj-84",
													"fontname" : "Arial",
													"outlettype" : [ "int" ],
													"fontsize" : 12.0,
													"numinlets" : 2
												}

											}
, 											{
												"box" : 												{
													"maxclass" : "newobj",
													"text" : "t b b",
													"numoutlets" : 2,
													"patching_rect" : [ 755.0, 315.0, 34.0, 20.0 ],
													"id" : "obj-85",
													"fontname" : "Arial",
													"outlettype" : [ "bang", "bang" ],
													"fontsize" : 12.0,
													"numinlets" : 1
												}

											}
, 											{
												"box" : 												{
													"maxclass" : "newobj",
													"text" : "random 1000",
													"numoutlets" : 1,
													"patching_rect" : [ 735.0, 340.0, 81.0, 20.0 ],
													"id" : "obj-86",
													"fontname" : "Arial",
													"outlettype" : [ "int" ],
													"fontsize" : 12.0,
													"numinlets" : 2
												}

											}
, 											{
												"box" : 												{
													"maxclass" : "newobj",
													"text" : "pack 0. 0.",
													"numoutlets" : 1,
													"patching_rect" : [ 735.0, 415.0, 64.0, 20.0 ],
													"id" : "obj-87",
													"fontname" : "Arial",
													"outlettype" : [ "" ],
													"fontsize" : 12.0,
													"numinlets" : 2
												}

											}
, 											{
												"box" : 												{
													"maxclass" : "newobj",
													"text" : "scale 0 100 0. 10.",
													"numoutlets" : 1,
													"patching_rect" : [ 630.0, 390.0, 105.0, 20.0 ],
													"id" : "obj-78",
													"fontname" : "Arial",
													"outlettype" : [ "" ],
													"fontsize" : 12.0,
													"numinlets" : 6
												}

											}
, 											{
												"box" : 												{
													"maxclass" : "newobj",
													"text" : "random 100",
													"numoutlets" : 1,
													"patching_rect" : [ 630.0, 365.0, 75.0, 20.0 ],
													"id" : "obj-79",
													"fontname" : "Arial",
													"outlettype" : [ "int" ],
													"fontsize" : 12.0,
													"numinlets" : 2
												}

											}
, 											{
												"box" : 												{
													"maxclass" : "newobj",
													"text" : "t b b",
													"numoutlets" : 2,
													"patching_rect" : [ 630.0, 315.0, 34.0, 20.0 ],
													"id" : "obj-80",
													"fontname" : "Arial",
													"outlettype" : [ "bang", "bang" ],
													"fontsize" : 12.0,
													"numinlets" : 1
												}

											}
, 											{
												"box" : 												{
													"maxclass" : "newobj",
													"text" : "random 1000",
													"numoutlets" : 1,
													"patching_rect" : [ 610.0, 340.0, 81.0, 20.0 ],
													"id" : "obj-81",
													"fontname" : "Arial",
													"outlettype" : [ "int" ],
													"fontsize" : 12.0,
													"numinlets" : 2
												}

											}
, 											{
												"box" : 												{
													"maxclass" : "newobj",
													"text" : "pack 0. 0.",
													"numoutlets" : 1,
													"patching_rect" : [ 610.0, 415.0, 64.0, 20.0 ],
													"id" : "obj-82",
													"fontname" : "Arial",
													"outlettype" : [ "" ],
													"fontsize" : 12.0,
													"numinlets" : 2
												}

											}
, 											{
												"box" : 												{
													"maxclass" : "newobj",
													"text" : "scale 0 100 0. 10.",
													"numoutlets" : 1,
													"patching_rect" : [ 500.0, 385.0, 105.0, 20.0 ],
													"id" : "obj-76",
													"fontname" : "Arial",
													"outlettype" : [ "" ],
													"fontsize" : 12.0,
													"numinlets" : 6
												}

											}
, 											{
												"box" : 												{
													"maxclass" : "newobj",
													"text" : "random 100",
													"numoutlets" : 1,
													"patching_rect" : [ 500.0, 360.0, 75.0, 20.0 ],
													"id" : "obj-77",
													"fontname" : "Arial",
													"outlettype" : [ "int" ],
													"fontsize" : 12.0,
													"numinlets" : 2
												}

											}
, 											{
												"box" : 												{
													"maxclass" : "newobj",
													"text" : "scale 0 100 0. 10.",
													"numoutlets" : 1,
													"patching_rect" : [ 370.0, 340.0, 105.0, 20.0 ],
													"id" : "obj-75",
													"fontname" : "Arial",
													"outlettype" : [ "" ],
													"fontsize" : 12.0,
													"numinlets" : 6
												}

											}
, 											{
												"box" : 												{
													"maxclass" : "newobj",
													"text" : "scale 0 100 0. 10.",
													"numoutlets" : 1,
													"patching_rect" : [ 245.0, 350.0, 105.0, 20.0 ],
													"id" : "obj-74",
													"fontname" : "Arial",
													"outlettype" : [ "" ],
													"fontsize" : 12.0,
													"numinlets" : 6
												}

											}
, 											{
												"box" : 												{
													"maxclass" : "newobj",
													"text" : "t b b b b b b",
													"numoutlets" : 6,
													"patching_rect" : [ 245.0, 275.0, 657.5, 20.0 ],
													"id" : "obj-65",
													"fontname" : "Arial",
													"outlettype" : [ "bang", "bang", "bang", "bang", "bang", "bang" ],
													"fontsize" : 12.0,
													"numinlets" : 1
												}

											}
, 											{
												"box" : 												{
													"maxclass" : "newobj",
													"text" : "t b b",
													"numoutlets" : 2,
													"patching_rect" : [ 500.0, 310.0, 34.0, 20.0 ],
													"id" : "obj-52",
													"fontname" : "Arial",
													"outlettype" : [ "bang", "bang" ],
													"fontsize" : 12.0,
													"numinlets" : 1
												}

											}
, 											{
												"box" : 												{
													"maxclass" : "newobj",
													"text" : "random 1000",
													"numoutlets" : 1,
													"patching_rect" : [ 480.0, 335.0, 81.0, 20.0 ],
													"id" : "obj-51",
													"fontname" : "Arial",
													"outlettype" : [ "int" ],
													"fontsize" : 12.0,
													"numinlets" : 2
												}

											}
, 											{
												"box" : 												{
													"maxclass" : "newobj",
													"text" : "pack 0. 0.",
													"numoutlets" : 1,
													"patching_rect" : [ 480.0, 410.0, 64.0, 20.0 ],
													"id" : "obj-50",
													"fontname" : "Arial",
													"outlettype" : [ "" ],
													"fontsize" : 12.0,
													"numinlets" : 2
												}

											}
, 											{
												"box" : 												{
													"maxclass" : "newobj",
													"text" : "random 100",
													"numoutlets" : 1,
													"patching_rect" : [ 245.0, 325.0, 75.0, 20.0 ],
													"id" : "obj-37",
													"fontname" : "Arial",
													"outlettype" : [ "int" ],
													"fontsize" : 12.0,
													"numinlets" : 2
												}

											}
, 											{
												"box" : 												{
													"maxclass" : "newobj",
													"text" : "random 100",
													"numoutlets" : 1,
													"patching_rect" : [ 370.0, 315.0, 75.0, 20.0 ],
													"id" : "obj-35",
													"fontname" : "Arial",
													"outlettype" : [ "int" ],
													"fontsize" : 12.0,
													"numinlets" : 2
												}

											}
, 											{
												"box" : 												{
													"maxclass" : "message",
													"text" : "10000 $1",
													"numoutlets" : 1,
													"patching_rect" : [ 370.0, 375.0, 61.0, 18.0 ],
													"id" : "obj-34",
													"fontname" : "Arial",
													"outlettype" : [ "" ],
													"fontsize" : 12.0,
													"numinlets" : 2
												}

											}
, 											{
												"box" : 												{
													"maxclass" : "message",
													"text" : "0 $1",
													"numoutlets" : 1,
													"patching_rect" : [ 245.0, 375.0, 34.0, 18.0 ],
													"id" : "obj-33",
													"fontname" : "Arial",
													"outlettype" : [ "" ],
													"fontsize" : 12.0,
													"numinlets" : 2
												}

											}
, 											{
												"box" : 												{
													"maxclass" : "message",
													"text" : "0",
													"numoutlets" : 1,
													"patching_rect" : [ 195.0, 150.0, 32.5, 18.0 ],
													"id" : "obj-30",
													"fontname" : "Arial",
													"outlettype" : [ "" ],
													"fontsize" : 12.0,
													"numinlets" : 2
												}

											}
, 											{
												"box" : 												{
													"maxclass" : "newobj",
													"text" : "metro 50",
													"numoutlets" : 1,
													"patching_rect" : [ 155.0, 185.0, 58.0, 20.0 ],
													"id" : "obj-29",
													"fontname" : "Arial",
													"outlettype" : [ "bang" ],
													"fontsize" : 12.0,
													"numinlets" : 2
												}

											}
, 											{
												"box" : 												{
													"maxclass" : "message",
													"text" : "1",
													"numoutlets" : 1,
													"patching_rect" : [ 155.0, 150.0, 32.5, 18.0 ],
													"id" : "obj-15",
													"fontname" : "Arial",
													"outlettype" : [ "" ],
													"fontsize" : 12.0,
													"numinlets" : 2
												}

											}
, 											{
												"box" : 												{
													"maxclass" : "inlet",
													"numoutlets" : 1,
													"patching_rect" : [ 155.0, 75.0, 25.0, 25.0 ],
													"id" : "obj-14",
													"outlettype" : [ "bang" ],
													"numinlets" : 0,
													"comment" : ""
												}

											}
, 											{
												"box" : 												{
													"maxclass" : "outlet",
													"numoutlets" : 0,
													"patching_rect" : [ 615.0, 535.0, 25.0, 25.0 ],
													"id" : "obj-13",
													"numinlets" : 1,
													"comment" : ""
												}

											}
, 											{
												"box" : 												{
													"maxclass" : "message",
													"text" : "setfunction $1",
													"numoutlets" : 1,
													"patching_rect" : [ 155.0, 410.0, 85.0, 18.0 ],
													"id" : "obj-12",
													"fontname" : "Arial",
													"outlettype" : [ "" ],
													"fontsize" : 12.0,
													"numinlets" : 2
												}

											}
, 											{
												"box" : 												{
													"maxclass" : "newobj",
													"text" : "counter 0 7",
													"numoutlets" : 4,
													"patching_rect" : [ 155.0, 215.0, 73.0, 20.0 ],
													"id" : "obj-1",
													"fontname" : "Arial",
													"outlettype" : [ "int", "", "", "int" ],
													"fontsize" : 12.0,
													"numinlets" : 5
												}

											}
 ],
										"lines" : [ 											{
												"patchline" : 												{
													"source" : [ "obj-12", 0 ],
													"destination" : [ "obj-13", 0 ],
													"hidden" : 0,
													"midpoints" : [  ]
												}

											}
, 											{
												"patchline" : 												{
													"source" : [ "obj-33", 0 ],
													"destination" : [ "obj-13", 0 ],
													"hidden" : 0,
													"midpoints" : [  ]
												}

											}
, 											{
												"patchline" : 												{
													"source" : [ "obj-34", 0 ],
													"destination" : [ "obj-13", 0 ],
													"hidden" : 0,
													"midpoints" : [  ]
												}

											}
, 											{
												"patchline" : 												{
													"source" : [ "obj-50", 0 ],
													"destination" : [ "obj-13", 0 ],
													"hidden" : 0,
													"midpoints" : [  ]
												}

											}
, 											{
												"patchline" : 												{
													"source" : [ "obj-37", 0 ],
													"destination" : [ "obj-74", 0 ],
													"hidden" : 0,
													"midpoints" : [  ]
												}

											}
, 											{
												"patchline" : 												{
													"source" : [ "obj-74", 0 ],
													"destination" : [ "obj-33", 0 ],
													"hidden" : 0,
													"midpoints" : [  ]
												}

											}
, 											{
												"patchline" : 												{
													"source" : [ "obj-75", 0 ],
													"destination" : [ "obj-34", 0 ],
													"hidden" : 0,
													"midpoints" : [  ]
												}

											}
, 											{
												"patchline" : 												{
													"source" : [ "obj-65", 1 ],
													"destination" : [ "obj-35", 0 ],
													"hidden" : 0,
													"midpoints" : [  ]
												}

											}
, 											{
												"patchline" : 												{
													"source" : [ "obj-65", 0 ],
													"destination" : [ "obj-37", 0 ],
													"hidden" : 0,
													"midpoints" : [  ]
												}

											}
, 											{
												"patchline" : 												{
													"source" : [ "obj-65", 2 ],
													"destination" : [ "obj-52", 0 ],
													"hidden" : 0,
													"midpoints" : [  ]
												}

											}
, 											{
												"patchline" : 												{
													"source" : [ "obj-35", 0 ],
													"destination" : [ "obj-75", 0 ],
													"hidden" : 0,
													"midpoints" : [  ]
												}

											}
, 											{
												"patchline" : 												{
													"source" : [ "obj-77", 0 ],
													"destination" : [ "obj-76", 0 ],
													"hidden" : 0,
													"midpoints" : [  ]
												}

											}
, 											{
												"patchline" : 												{
													"source" : [ "obj-76", 0 ],
													"destination" : [ "obj-50", 1 ],
													"hidden" : 0,
													"midpoints" : [  ]
												}

											}
, 											{
												"patchline" : 												{
													"source" : [ "obj-52", 1 ],
													"destination" : [ "obj-77", 0 ],
													"hidden" : 0,
													"midpoints" : [  ]
												}

											}
, 											{
												"patchline" : 												{
													"source" : [ "obj-80", 1 ],
													"destination" : [ "obj-79", 0 ],
													"hidden" : 0,
													"midpoints" : [  ]
												}

											}
, 											{
												"patchline" : 												{
													"source" : [ "obj-78", 0 ],
													"destination" : [ "obj-82", 1 ],
													"hidden" : 0,
													"midpoints" : [  ]
												}

											}
, 											{
												"patchline" : 												{
													"source" : [ "obj-79", 0 ],
													"destination" : [ "obj-78", 0 ],
													"hidden" : 0,
													"midpoints" : [  ]
												}

											}
, 											{
												"patchline" : 												{
													"source" : [ "obj-84", 0 ],
													"destination" : [ "obj-83", 0 ],
													"hidden" : 0,
													"midpoints" : [  ]
												}

											}
, 											{
												"patchline" : 												{
													"source" : [ "obj-83", 0 ],
													"destination" : [ "obj-87", 1 ],
													"hidden" : 0,
													"midpoints" : [  ]
												}

											}
, 											{
												"patchline" : 												{
													"source" : [ "obj-85", 1 ],
													"destination" : [ "obj-84", 0 ],
													"hidden" : 0,
													"midpoints" : [  ]
												}

											}
, 											{
												"patchline" : 												{
													"source" : [ "obj-90", 1 ],
													"destination" : [ "obj-89", 0 ],
													"hidden" : 0,
													"midpoints" : [  ]
												}

											}
, 											{
												"patchline" : 												{
													"source" : [ "obj-88", 0 ],
													"destination" : [ "obj-92", 1 ],
													"hidden" : 0,
													"midpoints" : [  ]
												}

											}
, 											{
												"patchline" : 												{
													"source" : [ "obj-89", 0 ],
													"destination" : [ "obj-88", 0 ],
													"hidden" : 0,
													"midpoints" : [  ]
												}

											}
, 											{
												"patchline" : 												{
													"source" : [ "obj-65", 5 ],
													"destination" : [ "obj-90", 0 ],
													"hidden" : 0,
													"midpoints" : [  ]
												}

											}
, 											{
												"patchline" : 												{
													"source" : [ "obj-65", 4 ],
													"destination" : [ "obj-85", 0 ],
													"hidden" : 0,
													"midpoints" : [  ]
												}

											}
, 											{
												"patchline" : 												{
													"source" : [ "obj-65", 3 ],
													"destination" : [ "obj-80", 0 ],
													"hidden" : 0,
													"midpoints" : [  ]
												}

											}
, 											{
												"patchline" : 												{
													"source" : [ "obj-82", 0 ],
													"destination" : [ "obj-13", 0 ],
													"hidden" : 0,
													"midpoints" : [  ]
												}

											}
, 											{
												"patchline" : 												{
													"source" : [ "obj-87", 0 ],
													"destination" : [ "obj-13", 0 ],
													"hidden" : 0,
													"midpoints" : [  ]
												}

											}
, 											{
												"patchline" : 												{
													"source" : [ "obj-92", 0 ],
													"destination" : [ "obj-13", 0 ],
													"hidden" : 0,
													"midpoints" : [  ]
												}

											}
, 											{
												"patchline" : 												{
													"source" : [ "obj-1", 3 ],
													"destination" : [ "obj-30", 0 ],
													"hidden" : 0,
													"midpoints" : [ 230.0, 256.0, 278.0, 123.0, 204.5, 135.0 ]
												}

											}
, 											{
												"patchline" : 												{
													"source" : [ "obj-52", 0 ],
													"destination" : [ "obj-51", 0 ],
													"hidden" : 0,
													"midpoints" : [  ]
												}

											}
, 											{
												"patchline" : 												{
													"source" : [ "obj-51", 0 ],
													"destination" : [ "obj-50", 0 ],
													"hidden" : 0,
													"midpoints" : [  ]
												}

											}
, 											{
												"patchline" : 												{
													"source" : [ "obj-81", 0 ],
													"destination" : [ "obj-82", 0 ],
													"hidden" : 0,
													"midpoints" : [  ]
												}

											}
, 											{
												"patchline" : 												{
													"source" : [ "obj-80", 0 ],
													"destination" : [ "obj-81", 0 ],
													"hidden" : 0,
													"midpoints" : [  ]
												}

											}
, 											{
												"patchline" : 												{
													"source" : [ "obj-85", 0 ],
													"destination" : [ "obj-86", 0 ],
													"hidden" : 0,
													"midpoints" : [  ]
												}

											}
, 											{
												"patchline" : 												{
													"source" : [ "obj-86", 0 ],
													"destination" : [ "obj-87", 0 ],
													"hidden" : 0,
													"midpoints" : [  ]
												}

											}
, 											{
												"patchline" : 												{
													"source" : [ "obj-91", 0 ],
													"destination" : [ "obj-92", 0 ],
													"hidden" : 0,
													"midpoints" : [  ]
												}

											}
, 											{
												"patchline" : 												{
													"source" : [ "obj-90", 0 ],
													"destination" : [ "obj-91", 0 ],
													"hidden" : 0,
													"midpoints" : [  ]
												}

											}
, 											{
												"patchline" : 												{
													"source" : [ "obj-1", 0 ],
													"destination" : [ "obj-2", 0 ],
													"hidden" : 0,
													"midpoints" : [  ]
												}

											}
, 											{
												"patchline" : 												{
													"source" : [ "obj-2", 1 ],
													"destination" : [ "obj-12", 0 ],
													"hidden" : 0,
													"midpoints" : [  ]
												}

											}
, 											{
												"patchline" : 												{
													"source" : [ "obj-2", 0 ],
													"destination" : [ "obj-65", 0 ],
													"hidden" : 0,
													"midpoints" : [  ]
												}

											}
, 											{
												"patchline" : 												{
													"source" : [ "obj-3", 0 ],
													"destination" : [ "obj-13", 0 ],
													"hidden" : 0,
													"midpoints" : [  ]
												}

											}
, 											{
												"patchline" : 												{
													"source" : [ "obj-14", 0 ],
													"destination" : [ "obj-4", 0 ],
													"hidden" : 0,
													"midpoints" : [  ]
												}

											}
, 											{
												"patchline" : 												{
													"source" : [ "obj-4", 0 ],
													"destination" : [ "obj-15", 0 ],
													"hidden" : 0,
													"midpoints" : [  ]
												}

											}
, 											{
												"patchline" : 												{
													"source" : [ "obj-4", 1 ],
													"destination" : [ "obj-3", 0 ],
													"hidden" : 0,
													"midpoints" : [ 55.0, 192.0 ]
												}

											}
, 											{
												"patchline" : 												{
													"source" : [ "obj-29", 0 ],
													"destination" : [ "obj-1", 0 ],
													"hidden" : 0,
													"midpoints" : [  ]
												}

											}
, 											{
												"patchline" : 												{
													"source" : [ "obj-30", 0 ],
													"destination" : [ "obj-29", 0 ],
													"hidden" : 0,
													"midpoints" : [  ]
												}

											}
, 											{
												"patchline" : 												{
													"source" : [ "obj-15", 0 ],
													"destination" : [ "obj-29", 0 ],
													"hidden" : 0,
													"midpoints" : [  ]
												}

											}
 ]
									}
,
									"saved_object_attributes" : 									{
										"fontname" : "Arial",
										"globalpatchername" : "",
										"default_fontface" : 0,
										"fontface" : 0,
										"fontsize" : 12.0,
										"default_fontname" : "Arial",
										"default_fontsize" : 12.0
									}

								}

							}
, 							{
								"box" : 								{
									"maxclass" : "newobj",
									"text" : "sel 0 1 2 3",
									"numoutlets" : 5,
									"patching_rect" : [ 230.0, 110.0, 276.0, 20.0 ],
									"id" : "obj-6",
									"fontname" : "Arial",
									"outlettype" : [ "bang", "bang", "bang", "bang", "" ],
									"fontsize" : 12.0,
									"numinlets" : 1
								}

							}
, 							{
								"box" : 								{
									"maxclass" : "outlet",
									"numoutlets" : 0,
									"patching_rect" : [ 400.0, 585.0, 25.0, 25.0 ],
									"id" : "obj-2",
									"numinlets" : 1,
									"comment" : ""
								}

							}
, 							{
								"box" : 								{
									"maxclass" : "message",
									"text" : "clear, 0 1.111111 3.538461, 0 81.111115 5.054945, 0 184.444458 2.615384, 0 304.444458 6.153846, 1 161.111115 4.879121, 1 294.444458 8.351648, 1 398.888916 5.274725, 1 444.444458 2.681319, 1 492.22226 7.076923, 2 444.444458 6.593407, 2 505.555573 8.417583, 2 531.111145 3.318681, 2 596.666687 4.989011, 2 608.888916 2.813187, 3 597.777832 6.285714, 3 646.666687 8.483517, 3 694.444458 5.296703, 3 836.666687 6.43956, 3 895.555603 8.065934, 3 978.888916 3.098901, 4 322.222229 2.395604, 4 364.444458 1.098901, 4 537.777832 1.978022, 4 605.555603 1.032967, 4 761.111145 1.956044, 5 47.777779 8.593407, 5 148.888901 6.901099, 5 251.11113 9.362638, 6 738.888916 3.604395, 6 824.444458 2., 6 845.555603 4.461538, 6 893.333374 1.186813",
									"linecount" : 21,
									"numoutlets" : 1,
									"patching_rect" : [ 10.0, 170.0, 242.0, 294.0 ],
									"id" : "obj-1",
									"fontname" : "Arial",
									"outlettype" : [ "" ],
									"fontsize" : 12.0,
									"numinlets" : 2
								}

							}
, 							{
								"box" : 								{
									"maxclass" : "inlet",
									"numoutlets" : 1,
									"patching_rect" : [ 335.0, 20.0, 25.0, 25.0 ],
									"id" : "obj-3",
									"outlettype" : [ "" ],
									"numinlets" : 0,
									"comment" : ""
								}

							}
, 							{
								"box" : 								{
									"maxclass" : "message",
									"text" : "clear, 0 0 5, 0 125 5, 0 126 5.5, 0 250 5.5, 0 251 6, 0 375 6, 0 376 6.5, 0 625 6.5, 0 626 6., 0 750 6., 0 751 5.5, 0 875 5.5, 0 876 5., 0 1000 5., 1 0 4, 1 125 4, 1 126 3.5, 1 250 3.5, 1 251 3, 1 375 3, 1 376 2.5, 1 625 2.5, 1 626 3., 1 750 3., 1 751 3.5, 1 875 3.5, 1 876 4., 1 1000 4., 2 0 0.5, 2 125 0.5, 2 126 1, 2 250 1, 2 251 1.5, 2 375 1.5, 2 376 2, 2 625 2, 2 626 1.5, 2 750 1.5, 2 751 1, 2 875 1, 2 876 0.5, 3 1000 0.5, 3 0 9.5, 3 125 9.5, 3 126 9, 3 250 9, 3 251 8.5, 3 375 8.5, 3 376 8, 3 625 8, 3 626 8.5, 3 750 8.5, 3 751 9, 3 875 9, 3 876 9.5, 3 1000 9.5,",
									"linecount" : 16,
									"numoutlets" : 1,
									"patching_rect" : [ 270.0, 185.0, 205.0, 225.0 ],
									"id" : "obj-89",
									"fontname" : "Arial",
									"outlettype" : [ "" ],
									"fontsize" : 12.0,
									"numinlets" : 2
								}

							}
, 							{
								"box" : 								{
									"maxclass" : "message",
									"text" : "clear, 0 1000. 5, 0 0 5., 0 500. 5, 1 1000 5, 1 0 5, 1 500. 6, 2 1000 5., 2 0 5, 2 500. 7, 3 1000 5, 3 500. 8, 3 0 5, 4 1000 5., 4 0 5, 4 500. 9, 5 1000 5, 5 0 5, 5 500. 4, 6 1000 5., 6 0 5, 6 500. 3, 7 1000 5, 7 0 5, 7 500. 2",
									"linecount" : 10,
									"numoutlets" : 1,
									"patching_rect" : [ 495.0, 190.0, 139.0, 142.0 ],
									"id" : "obj-35",
									"fontname" : "Arial",
									"outlettype" : [ "" ],
									"fontsize" : 12.0,
									"numinlets" : 2
								}

							}
 ],
						"lines" : [ 							{
								"patchline" : 								{
									"source" : [ "obj-1", 0 ],
									"destination" : [ "obj-2", 0 ],
									"hidden" : 0,
									"midpoints" : [  ]
								}

							}
, 							{
								"patchline" : 								{
									"source" : [ "obj-89", 0 ],
									"destination" : [ "obj-2", 0 ],
									"hidden" : 0,
									"midpoints" : [  ]
								}

							}
, 							{
								"patchline" : 								{
									"source" : [ "obj-35", 0 ],
									"destination" : [ "obj-2", 0 ],
									"hidden" : 0,
									"midpoints" : [  ]
								}

							}
, 							{
								"patchline" : 								{
									"source" : [ "obj-6", 2 ],
									"destination" : [ "obj-35", 0 ],
									"hidden" : 0,
									"midpoints" : [  ]
								}

							}
, 							{
								"patchline" : 								{
									"source" : [ "obj-6", 1 ],
									"destination" : [ "obj-89", 0 ],
									"hidden" : 0,
									"midpoints" : [  ]
								}

							}
, 							{
								"patchline" : 								{
									"source" : [ "obj-6", 0 ],
									"destination" : [ "obj-1", 0 ],
									"hidden" : 0,
									"midpoints" : [  ]
								}

							}
, 							{
								"patchline" : 								{
									"source" : [ "obj-6", 3 ],
									"destination" : [ "obj-77", 0 ],
									"hidden" : 0,
									"midpoints" : [  ]
								}

							}
, 							{
								"patchline" : 								{
									"source" : [ "obj-77", 0 ],
									"destination" : [ "obj-2", 0 ],
									"hidden" : 0,
									"midpoints" : [  ]
								}

							}
, 							{
								"patchline" : 								{
									"source" : [ "obj-3", 0 ],
									"destination" : [ "obj-6", 0 ],
									"hidden" : 0,
									"midpoints" : [  ]
								}

							}
 ]
					}
,
					"saved_object_attributes" : 					{
						"fontname" : "Arial",
						"globalpatchername" : "",
						"default_fontface" : 0,
						"fontface" : 0,
						"fontsize" : 12.0,
						"default_fontname" : "Arial",
						"default_fontsize" : 12.0
					}

				}

			}
, 			{
				"box" : 				{
					"maxclass" : "newobj",
					"text" : "print coords",
					"numoutlets" : 0,
					"patching_rect" : [ 132.0, 661.0, 69.0, 19.0 ],
					"id" : "obj-4",
					"fontname" : "Arial",
					"fontsize" : 11.0,
					"numinlets" : 1
				}

			}
, 			{
				"box" : 				{
					"maxclass" : "message",
					"text" : "setfunction 0",
					"numoutlets" : 1,
					"patching_rect" : [ 396.0, 56.0, 73.0, 17.0 ],
					"id" : "obj-40",
					"fontname" : "Arial",
					"outlettype" : [ "" ],
					"fontsize" : 11.0,
					"numinlets" : 2
				}

			}
, 			{
				"box" : 				{
					"maxclass" : "message",
					"text" : "addfunction",
					"numoutlets" : 1,
					"patching_rect" : [ 396.0, 32.0, 67.0, 17.0 ],
					"id" : "obj-25",
					"fontname" : "Arial",
					"outlettype" : [ "" ],
					"fontsize" : 11.0,
					"numinlets" : 2
				}

			}
, 			{
				"box" : 				{
					"maxclass" : "newobj",
					"text" : "print dump",
					"numoutlets" : 0,
					"patching_rect" : [ 1012.0, 661.0, 63.0, 19.0 ],
					"id" : "obj-5",
					"fontname" : "Arial",
					"fontsize" : 11.0,
					"numinlets" : 1
				}

			}
, 			{
				"box" : 				{
					"maxclass" : "flonum",
					"numoutlets" : 2,
					"patching_rect" : [ 132.0, 129.0, 63.0, 19.0 ],
					"id" : "obj-11",
					"fontname" : "Arial",
					"outlettype" : [ "float", "bang" ],
					"maximum" : 1000.0,
					"fontsize" : 11.0,
					"minimum" : 0.0,
					"numinlets" : 1
				}

			}
, 			{
				"box" : 				{
					"maxclass" : "message",
					"text" : "setfunctionname function1",
					"numoutlets" : 1,
					"patching_rect" : [ 396.0, 80.0, 139.0, 17.0 ],
					"id" : "obj-1",
					"fontname" : "Arial",
					"outlettype" : [ "" ],
					"fontsize" : 11.0,
					"numinlets" : 2
				}

			}
, 			{
				"box" : 				{
					"maxclass" : "message",
					"text" : "xmin 0, xmax 1000, ymin 0, ymax 10",
					"numoutlets" : 1,
					"patching_rect" : [ 464.0, 160.0, 190.0, 17.0 ],
					"id" : "obj-18",
					"fontname" : "Arial",
					"outlettype" : [ "" ],
					"fontsize" : 11.0,
					"numinlets" : 2
				}

			}
, 			{
				"box" : 				{
					"maxclass" : "bpf",
					"minor_y_tics" : [  ],
					"numoutlets" : 3,
					"patching_rect" : [ 132.0, 196.0, 900.0, 456.0 ],
					"id" : "obj-17",
					"fontname" : "Arial",
					"color" : [ 1.0, 1.0, 1.0, 1.0 ],
					"major_x_tics" : [  ],
					"major_y_tics" : [  ],
					"outlettype" : [ "list", "list", "list" ],
					"textcolor" : [  ],
					"points" : [ 0.0, 0.0, 0.0, 1.0, 0.0, 0.0, 0.0, 1.0, 0.0, 0.0, 0.0, 0.0, 0.0, 0.0, 0.0, 0.0, 0, "0", 0 ],
					"fontsize" : 10.0,
					"minor_x_tics" : [  ],
					"numinlets" : 1
				}

			}
, 			{
				"box" : 				{
					"maxclass" : "message",
					"text" : "dump",
					"numoutlets" : 1,
					"patching_rect" : [ 512.0, 32.0, 39.0, 17.0 ],
					"id" : "obj-6",
					"fontname" : "Arial",
					"outlettype" : [ "" ],
					"fontsize" : 11.0,
					"numinlets" : 2
				}

			}
, 			{
				"box" : 				{
					"maxclass" : "message",
					"text" : "clear",
					"numoutlets" : 1,
					"patching_rect" : [ 472.0, 32.0, 35.0, 17.0 ],
					"id" : "obj-9",
					"fontname" : "Arial",
					"outlettype" : [ "" ],
					"fontsize" : 11.0,
					"numinlets" : 2
				}

			}
, 			{
				"box" : 				{
					"maxclass" : "multislider",
					"numoutlets" : 2,
					"patching_rect" : [ 132.0, 689.0, 900.0, 15.0 ],
					"settype" : 0,
					"id" : "obj-7",
					"outlettype" : [ "", "" ],
					"orientation" : 0,
					"slidercolor" : [ 0.984314, 0.007843, 0.007843, 1.0 ],
					"numinlets" : 1,
					"setminmax" : [ 50.0, 100.0 ]
				}

			}
 ],
		"lines" : [ 			{
				"patchline" : 				{
					"source" : [ "obj-16", 0 ],
					"destination" : [ "obj-17", 0 ],
					"hidden" : 1,
					"midpoints" : [  ]
				}

			}
, 			{
				"patchline" : 				{
					"source" : [ "obj-17", 0 ],
					"destination" : [ "obj-4", 0 ],
					"hidden" : 0,
					"midpoints" : [  ]
				}

			}
, 			{
				"patchline" : 				{
					"source" : [ "obj-37", 0 ],
					"destination" : [ "obj-17", 0 ],
					"hidden" : 1,
					"midpoints" : [  ]
				}

			}
, 			{
				"patchline" : 				{
					"source" : [ "obj-1", 0 ],
					"destination" : [ "obj-17", 0 ],
					"hidden" : 1,
					"midpoints" : [  ]
				}

			}
, 			{
				"patchline" : 				{
					"source" : [ "obj-9", 0 ],
					"destination" : [ "obj-17", 0 ],
					"hidden" : 1,
					"midpoints" : [  ]
				}

			}
, 			{
				"patchline" : 				{
					"source" : [ "obj-6", 0 ],
					"destination" : [ "obj-17", 0 ],
					"hidden" : 1,
					"midpoints" : [  ]
				}

			}
, 			{
				"patchline" : 				{
					"source" : [ "obj-18", 0 ],
					"destination" : [ "obj-17", 0 ],
					"hidden" : 1,
					"midpoints" : [  ]
				}

			}
, 			{
				"patchline" : 				{
					"source" : [ "obj-11", 0 ],
					"destination" : [ "obj-17", 0 ],
					"hidden" : 0,
					"midpoints" : [  ]
				}

			}
, 			{
				"patchline" : 				{
					"source" : [ "obj-25", 0 ],
					"destination" : [ "obj-17", 0 ],
					"hidden" : 1,
					"midpoints" : [  ]
				}

			}
, 			{
				"patchline" : 				{
					"source" : [ "obj-40", 0 ],
					"destination" : [ "obj-17", 0 ],
					"hidden" : 1,
					"midpoints" : [  ]
				}

			}
, 			{
				"patchline" : 				{
					"source" : [ "obj-17", 0 ],
					"destination" : [ "obj-2", 0 ],
					"hidden" : 0,
					"midpoints" : [ 141.5, 659.0, 102.0, 659.0, 102.0, 573.0, 25.5, 573.0 ]
				}

			}
, 			{
				"patchline" : 				{
					"source" : [ "obj-2", 0 ],
					"destination" : [ "obj-27", 0 ],
					"hidden" : 0,
					"midpoints" : [  ]
				}

			}
, 			{
				"patchline" : 				{
					"source" : [ "obj-2", 1 ],
					"destination" : [ "obj-39", 0 ],
					"hidden" : 0,
					"midpoints" : [  ]
				}

			}
, 			{
				"patchline" : 				{
					"source" : [ "obj-2", 2 ],
					"destination" : [ "obj-41", 0 ],
					"hidden" : 0,
					"midpoints" : [  ]
				}

			}
, 			{
				"patchline" : 				{
					"source" : [ "obj-13", 0 ],
					"destination" : [ "obj-37", 0 ],
					"hidden" : 1,
					"midpoints" : [  ]
				}

			}
, 			{
				"patchline" : 				{
					"source" : [ "obj-14", 0 ],
					"destination" : [ "obj-37", 0 ],
					"hidden" : 1,
					"midpoints" : [  ]
				}

			}
, 			{
				"patchline" : 				{
					"source" : [ "obj-15", 0 ],
					"destination" : [ "obj-37", 0 ],
					"hidden" : 1,
					"midpoints" : [  ]
				}

			}
, 			{
				"patchline" : 				{
					"source" : [ "obj-23", 0 ],
					"destination" : [ "obj-37", 0 ],
					"hidden" : 1,
					"midpoints" : [  ]
				}

			}
, 			{
				"patchline" : 				{
					"source" : [ "obj-11", 0 ],
					"destination" : [ "obj-7", 0 ],
					"hidden" : 1,
					"midpoints" : [  ]
				}

			}
, 			{
				"patchline" : 				{
					"source" : [ "obj-18", 0 ],
					"destination" : [ "obj-19", 0 ],
					"hidden" : 1,
					"midpoints" : [ 1057.5, 355.0 ]
				}

			}
, 			{
				"patchline" : 				{
					"source" : [ "obj-16", 0 ],
					"destination" : [ "obj-20", 0 ],
					"hidden" : 1,
					"midpoints" : [  ]
				}

			}
, 			{
				"patchline" : 				{
					"source" : [ "obj-20", 0 ],
					"destination" : [ "obj-7", 0 ],
					"hidden" : 1,
					"midpoints" : [ 1057.5, 652.0, 1057.5, 656.0, 245.0, 656.0, 245.0, 682.0, 141.5, 682.0 ]
				}

			}
, 			{
				"patchline" : 				{
					"source" : [ "obj-19", 0 ],
					"destination" : [ "obj-7", 0 ],
					"hidden" : 1,
					"midpoints" : [ 1057.5, 656.0, 246.0, 656.0, 246.0, 682.0, 141.5, 682.0 ]
				}

			}
 ]
	}

}
