{
	"patcher" : 	{
		"fileversion" : 1,
		"rect" : [ 368.0, 44.0, 807.0, 659.0 ],
		"bglocked" : 0,
		"defrect" : [ 368.0, 44.0, 807.0, 659.0 ],
		"openrect" : [ 0.0, 0.0, 0.0, 0.0 ],
		"openinpresentation" : 0,
		"default_fontsize" : 12.0,
		"default_fontface" : 0,
		"default_fontname" : "Arial",
		"gridonopen" : 0,
		"gridsize" : [ 15.0, 15.0 ],
		"gridsnaponopen" : 0,
		"toolbarvisible" : 1,
		"boxanimatetime" : 200,
		"imprint" : 0,
		"boxes" : [ 			{
				"box" : 				{
					"maxclass" : "message",
					"text" : "tellmeeverything",
					"fontname" : "Arial",
					"numinlets" : 2,
					"numoutlets" : 1,
					"outlettype" : [ "" ],
					"fontsize" : 12.0,
					"patching_rect" : [ 14.0, 352.0, 98.0, 18.0 ],
					"id" : "obj-67"
				}

			}
, 			{
				"box" : 				{
					"maxclass" : "message",
					"text" : "tellmeeverything",
					"fontname" : "Arial",
					"numinlets" : 2,
					"numoutlets" : 1,
					"outlettype" : [ "" ],
					"fontsize" : 12.0,
					"patching_rect" : [ 485.0, 127.0, 98.0, 18.0 ],
					"id" : "obj-66"
				}

			}
, 			{
				"box" : 				{
					"maxclass" : "message",
					"text" : "swap_keys pisschrist alist",
					"fontname" : "Arial",
					"numinlets" : 2,
					"numoutlets" : 1,
					"outlettype" : [ "" ],
					"fontsize" : 12.0,
					"patching_rect" : [ 385.0, 327.0, 148.0, 18.0 ],
					"id" : "obj-65"
				}

			}
, 			{
				"box" : 				{
					"maxclass" : "message",
					"text" : "swap_indices 0 2",
					"fontname" : "Arial",
					"numinlets" : 2,
					"numoutlets" : 1,
					"outlettype" : [ "" ],
					"fontsize" : 12.0,
					"patching_rect" : [ 385.0, 303.0, 103.0, 18.0 ],
					"id" : "obj-64"
				}

			}
, 			{
				"box" : 				{
					"maxclass" : "message",
					"text" : "remove_key pisschrist",
					"fontname" : "Arial",
					"numinlets" : 2,
					"numoutlets" : 1,
					"outlettype" : [ "" ],
					"fontsize" : 12.0,
					"patching_rect" : [ 426.0, 262.0, 129.0, 18.0 ],
					"id" : "obj-63"
				}

			}
, 			{
				"box" : 				{
					"maxclass" : "message",
					"text" : "remove_index 1",
					"fontname" : "Arial",
					"numinlets" : 2,
					"numoutlets" : 1,
					"outlettype" : [ "" ],
					"fontsize" : 12.0,
					"patching_rect" : [ 426.0, 239.0, 96.0, 18.0 ],
					"id" : "obj-62"
				}

			}
, 			{
				"box" : 				{
					"maxclass" : "message",
					"text" : "**********",
					"fontname" : "Arial",
					"numinlets" : 2,
					"numoutlets" : 1,
					"outlettype" : [ "" ],
					"fontsize" : 12.0,
					"patching_rect" : [ 116.0, 548.0, 57.0, 18.0 ],
					"id" : "obj-61"
				}

			}
, 			{
				"box" : 				{
					"maxclass" : "newobj",
					"text" : "print",
					"fontname" : "Arial",
					"numinlets" : 1,
					"numoutlets" : 0,
					"fontsize" : 12.0,
					"patching_rect" : [ 116.0, 576.0, 34.0, 20.0 ],
					"id" : "obj-60"
				}

			}
, 			{
				"box" : 				{
					"maxclass" : "message",
					"text" : "scramble",
					"fontname" : "Arial",
					"numinlets" : 2,
					"numoutlets" : 1,
					"outlettype" : [ "" ],
					"fontsize" : 12.0,
					"patching_rect" : [ 263.0, 83.0, 59.0, 18.0 ],
					"id" : "obj-54"
				}

			}
, 			{
				"box" : 				{
					"maxclass" : "newobj",
					"text" : "print",
					"fontname" : "Arial",
					"numinlets" : 1,
					"numoutlets" : 0,
					"fontsize" : 12.0,
					"patching_rect" : [ 481.0, 574.0, 34.0, 20.0 ],
					"id" : "obj-57"
				}

			}
, 			{
				"box" : 				{
					"maxclass" : "button",
					"numinlets" : 1,
					"numoutlets" : 1,
					"outlettype" : [ "bang" ],
					"patching_rect" : [ 481.0, 505.0, 20.0, 20.0 ],
					"id" : "obj-58"
				}

			}
, 			{
				"box" : 				{
					"maxclass" : "newobj",
					"text" : "hashtab",
					"fontname" : "Arial",
					"numinlets" : 1,
					"numoutlets" : 4,
					"outlettype" : [ "", "", "", "" ],
					"fontsize" : 12.0,
					"patching_rect" : [ 481.0, 537.0, 59.5, 20.0 ],
					"id" : "obj-59"
				}

			}
, 			{
				"box" : 				{
					"maxclass" : "newobj",
					"text" : "print",
					"fontname" : "Arial",
					"numinlets" : 1,
					"numoutlets" : 0,
					"fontsize" : 12.0,
					"patching_rect" : [ 556.0, 618.0, 34.0, 20.0 ],
					"id" : "obj-56"
				}

			}
, 			{
				"box" : 				{
					"maxclass" : "button",
					"numinlets" : 1,
					"numoutlets" : 1,
					"outlettype" : [ "bang" ],
					"patching_rect" : [ 556.0, 549.0, 20.0, 20.0 ],
					"id" : "obj-55"
				}

			}
, 			{
				"box" : 				{
					"maxclass" : "newobj",
					"text" : "hashtab",
					"fontname" : "Arial",
					"numinlets" : 1,
					"numoutlets" : 4,
					"outlettype" : [ "", "", "", "" ],
					"fontsize" : 12.0,
					"patching_rect" : [ 556.0, 581.0, 59.5, 20.0 ],
					"id" : "obj-50"
				}

			}
, 			{
				"box" : 				{
					"maxclass" : "message",
					"text" : "random",
					"fontname" : "Arial",
					"numinlets" : 2,
					"numoutlets" : 1,
					"outlettype" : [ "" ],
					"fontsize" : 12.0,
					"patching_rect" : [ 264.0, 61.0, 51.0, 18.0 ],
					"id" : "obj-4"
				}

			}
, 			{
				"box" : 				{
					"maxclass" : "message",
					"text" : "tail",
					"fontname" : "Arial",
					"numinlets" : 2,
					"numoutlets" : 1,
					"outlettype" : [ "" ],
					"fontsize" : 12.0,
					"patching_rect" : [ 403.0, 114.0, 32.5, 18.0 ],
					"id" : "obj-53"
				}

			}
, 			{
				"box" : 				{
					"maxclass" : "message",
					"text" : "head",
					"fontname" : "Arial",
					"numinlets" : 2,
					"numoutlets" : 1,
					"outlettype" : [ "" ],
					"fontsize" : 12.0,
					"patching_rect" : [ 356.0, 114.0, 37.0, 18.0 ],
					"id" : "obj-52"
				}

			}
, 			{
				"box" : 				{
					"maxclass" : "comment",
					"text" : "<-- 0 based!",
					"fontname" : "Arial",
					"numinlets" : 1,
					"numoutlets" : 0,
					"frgb" : [ 0.0, 0.0, 0.0, 1.0 ],
					"fontsize" : 12.0,
					"patching_rect" : [ 430.0, 189.0, 150.0, 20.0 ],
					"id" : "obj-51"
				}

			}
, 			{
				"box" : 				{
					"maxclass" : "message",
					"text" : "goto 10",
					"fontname" : "Arial",
					"numinlets" : 2,
					"numoutlets" : 1,
					"outlettype" : [ "" ],
					"fontsize" : 12.0,
					"patching_rect" : [ 375.0, 205.0, 51.0, 18.0 ],
					"id" : "obj-49"
				}

			}
, 			{
				"box" : 				{
					"maxclass" : "message",
					"text" : "goto 1",
					"fontname" : "Arial",
					"numinlets" : 2,
					"numoutlets" : 1,
					"outlettype" : [ "" ],
					"fontsize" : 12.0,
					"patching_rect" : [ 375.0, 179.0, 44.0, 18.0 ],
					"id" : "obj-48"
				}

			}
, 			{
				"box" : 				{
					"maxclass" : "newobj",
					"text" : "print outlet4",
					"fontname" : "Arial",
					"numinlets" : 1,
					"numoutlets" : 0,
					"fontsize" : 12.0,
					"patching_rect" : [ 208.0, 213.0, 73.0, 20.0 ],
					"id" : "obj-45"
				}

			}
, 			{
				"box" : 				{
					"maxclass" : "button",
					"numinlets" : 1,
					"numoutlets" : 1,
					"outlettype" : [ "bang" ],
					"patching_rect" : [ 177.0, 189.0, 20.0, 20.0 ],
					"id" : "obj-44"
				}

			}
, 			{
				"box" : 				{
					"maxclass" : "message",
					"text" : "prev",
					"fontname" : "Arial",
					"numinlets" : 2,
					"numoutlets" : 1,
					"outlettype" : [ "" ],
					"fontsize" : 12.0,
					"patching_rect" : [ 106.0, 84.0, 34.0, 18.0 ],
					"id" : "obj-47"
				}

			}
, 			{
				"box" : 				{
					"maxclass" : "message",
					"text" : "next",
					"fontname" : "Arial",
					"numinlets" : 2,
					"numoutlets" : 1,
					"outlettype" : [ "" ],
					"fontsize" : 12.0,
					"patching_rect" : [ 77.0, 65.0, 33.0, 18.0 ],
					"id" : "obj-46"
				}

			}
, 			{
				"box" : 				{
					"maxclass" : "message",
					"text" : "lookup pisschrist",
					"fontname" : "Arial",
					"numinlets" : 2,
					"numoutlets" : 1,
					"outlettype" : [ "" ],
					"fontsize" : 12.0,
					"patching_rect" : [ 218.0, 382.0, 99.0, 18.0 ],
					"id" : "obj-40"
				}

			}
, 			{
				"box" : 				{
					"maxclass" : "message",
					"text" : "lookup shithole",
					"fontname" : "Arial",
					"numinlets" : 2,
					"numoutlets" : 1,
					"outlettype" : [ "" ],
					"fontsize" : 12.0,
					"patching_rect" : [ 218.0, 356.0, 91.0, 18.0 ],
					"id" : "obj-41"
				}

			}
, 			{
				"box" : 				{
					"maxclass" : "newobj",
					"text" : "print key",
					"fontname" : "Arial",
					"numinlets" : 1,
					"numoutlets" : 0,
					"fontsize" : 12.0,
					"patching_rect" : [ 213.0, 288.0, 56.0, 20.0 ],
					"id" : "obj-3"
				}

			}
, 			{
				"box" : 				{
					"maxclass" : "newobj",
					"text" : "print value",
					"fontname" : "Arial",
					"numinlets" : 1,
					"numoutlets" : 0,
					"fontsize" : 12.0,
					"patching_rect" : [ 14.0, 191.0, 66.0, 20.0 ],
					"id" : "obj-43"
				}

			}
, 			{
				"box" : 				{
					"maxclass" : "newobj",
					"text" : "print key",
					"fontname" : "Arial",
					"numinlets" : 1,
					"numoutlets" : 0,
					"fontsize" : 12.0,
					"patching_rect" : [ 95.0, 191.0, 56.0, 20.0 ],
					"id" : "obj-42"
				}

			}
, 			{
				"box" : 				{
					"maxclass" : "message",
					"text" : "lookup 8.2349",
					"fontname" : "Arial",
					"numinlets" : 2,
					"numoutlets" : 1,
					"outlettype" : [ "" ],
					"fontsize" : 12.0,
					"patching_rect" : [ 366.0, 79.0, 86.0, 18.0 ],
					"id" : "obj-33"
				}

			}
, 			{
				"box" : 				{
					"maxclass" : "message",
					"text" : "store 8.2349 foshizzle",
					"fontname" : "Arial",
					"numinlets" : 2,
					"numoutlets" : 1,
					"outlettype" : [ "" ],
					"fontsize" : 12.0,
					"patching_rect" : [ 351.0, 49.0, 127.0, 18.0 ],
					"id" : "obj-32"
				}

			}
, 			{
				"box" : 				{
					"maxclass" : "message",
					"text" : "clear",
					"fontname" : "Arial",
					"numinlets" : 2,
					"numoutlets" : 1,
					"outlettype" : [ "" ],
					"fontsize" : 12.0,
					"patching_rect" : [ 117.0, 316.0, 37.0, 18.0 ],
					"id" : "obj-39"
				}

			}
, 			{
				"box" : 				{
					"maxclass" : "message",
					"text" : "keys",
					"fontname" : "Arial",
					"numinlets" : 2,
					"numoutlets" : 1,
					"outlettype" : [ "" ],
					"fontsize" : 12.0,
					"patching_rect" : [ 243.0, 528.0, 35.0, 18.0 ],
					"id" : "obj-37"
				}

			}
, 			{
				"box" : 				{
					"maxclass" : "message",
					"text" : "count",
					"fontname" : "Arial",
					"numinlets" : 2,
					"numoutlets" : 1,
					"outlettype" : [ "" ],
					"fontsize" : 12.0,
					"patching_rect" : [ 255.0, 497.0, 40.0, 18.0 ],
					"id" : "obj-38"
				}

			}
, 			{
				"box" : 				{
					"maxclass" : "newobj",
					"text" : "print bar2",
					"fontname" : "Arial",
					"numinlets" : 1,
					"numoutlets" : 0,
					"fontsize" : 12.0,
					"patching_rect" : [ 290.0, 594.0, 61.0, 20.0 ],
					"id" : "obj-35"
				}

			}
, 			{
				"box" : 				{
					"maxclass" : "newobj",
					"text" : "hashtab bar",
					"fontname" : "Arial",
					"numinlets" : 1,
					"numoutlets" : 4,
					"outlettype" : [ "", "", "", "" ],
					"fontsize" : 12.0,
					"patching_rect" : [ 290.0, 556.0, 74.0, 20.0 ],
					"id" : "obj-36"
				}

			}
, 			{
				"box" : 				{
					"maxclass" : "message",
					"text" : "store alist 28 333 2348",
					"fontname" : "Arial",
					"numinlets" : 2,
					"numoutlets" : 1,
					"outlettype" : [ "" ],
					"fontsize" : 12.0,
					"patching_rect" : [ 229.0, 22.0, 132.0, 18.0 ],
					"id" : "obj-34"
				}

			}
, 			{
				"box" : 				{
					"maxclass" : "message",
					"text" : "dump",
					"fontname" : "Arial",
					"numinlets" : 2,
					"numoutlets" : 1,
					"outlettype" : [ "" ],
					"fontsize" : 12.0,
					"patching_rect" : [ 197.0, 68.0, 41.0, 18.0 ],
					"id" : "obj-30"
				}

			}
, 			{
				"box" : 				{
					"maxclass" : "message",
					"text" : "clear",
					"fontname" : "Arial",
					"numinlets" : 2,
					"numoutlets" : 1,
					"outlettype" : [ "" ],
					"fontsize" : 12.0,
					"patching_rect" : [ 17.0, 50.0, 37.0, 18.0 ],
					"id" : "obj-31"
				}

			}
, 			{
				"box" : 				{
					"maxclass" : "message",
					"text" : "keys",
					"fontname" : "Arial",
					"numinlets" : 2,
					"numoutlets" : 1,
					"outlettype" : [ "" ],
					"fontsize" : 12.0,
					"patching_rect" : [ 158.0, 366.0, 35.0, 18.0 ],
					"id" : "obj-29"
				}

			}
, 			{
				"box" : 				{
					"maxclass" : "newobj",
					"text" : "print bar",
					"fontname" : "Arial",
					"numinlets" : 1,
					"numoutlets" : 0,
					"fontsize" : 12.0,
					"patching_rect" : [ 78.0, 449.0, 55.0, 20.0 ],
					"id" : "obj-28"
				}

			}
, 			{
				"box" : 				{
					"maxclass" : "message",
					"text" : "count",
					"fontname" : "Arial",
					"numinlets" : 2,
					"numoutlets" : 1,
					"outlettype" : [ "" ],
					"fontsize" : 12.0,
					"patching_rect" : [ 170.0, 335.0, 40.0, 18.0 ],
					"id" : "obj-27"
				}

			}
, 			{
				"box" : 				{
					"maxclass" : "newobj",
					"text" : "prepend hashtab",
					"fontname" : "Arial",
					"numinlets" : 1,
					"numoutlets" : 1,
					"outlettype" : [ "" ],
					"fontsize" : 12.0,
					"patching_rect" : [ 78.0, 282.0, 101.0, 20.0 ],
					"id" : "obj-26"
				}

			}
, 			{
				"box" : 				{
					"maxclass" : "newobj",
					"text" : "route hashtab",
					"fontname" : "Arial",
					"numinlets" : 1,
					"numoutlets" : 2,
					"outlettype" : [ "", "" ],
					"fontsize" : 12.0,
					"patching_rect" : [ 78.0, 254.0, 84.0, 20.0 ],
					"id" : "obj-25"
				}

			}
, 			{
				"box" : 				{
					"maxclass" : "newobj",
					"text" : "hashtab bar",
					"fontname" : "Arial",
					"numinlets" : 1,
					"numoutlets" : 4,
					"outlettype" : [ "", "", "", "" ],
					"fontsize" : 12.0,
					"patching_rect" : [ 78.0, 411.0, 74.0, 20.0 ],
					"id" : "obj-23"
				}

			}
, 			{
				"box" : 				{
					"maxclass" : "button",
					"numinlets" : 1,
					"numoutlets" : 1,
					"outlettype" : [ "bang" ],
					"patching_rect" : [ 16.0, 134.0, 20.0, 20.0 ],
					"id" : "obj-21"
				}

			}
, 			{
				"box" : 				{
					"maxclass" : "message",
					"text" : "set foo",
					"fontname" : "Arial",
					"numinlets" : 2,
					"numoutlets" : 1,
					"outlettype" : [ "" ],
					"fontsize" : 12.0,
					"patching_rect" : [ 562.0, 90.0, 47.0, 18.0 ],
					"id" : "obj-15"
				}

			}
, 			{
				"box" : 				{
					"maxclass" : "button",
					"numinlets" : 1,
					"numoutlets" : 1,
					"outlettype" : [ "bang" ],
					"patching_rect" : [ 588.0, 265.0, 20.0, 20.0 ],
					"id" : "obj-24"
				}

			}
, 			{
				"box" : 				{
					"maxclass" : "newobj",
					"text" : "print",
					"fontname" : "Arial",
					"numinlets" : 1,
					"numoutlets" : 0,
					"fontsize" : 12.0,
					"patching_rect" : [ 626.0, 522.0, 34.0, 20.0 ],
					"id" : "obj-22"
				}

			}
, 			{
				"box" : 				{
					"maxclass" : "newobj",
					"text" : "sprintf foo%d",
					"fontname" : "Arial",
					"numinlets" : 1,
					"numoutlets" : 1,
					"outlettype" : [ "" ],
					"fontsize" : 12.0,
					"patching_rect" : [ 570.0, 399.0, 81.0, 20.0 ],
					"id" : "obj-20"
				}

			}
, 			{
				"box" : 				{
					"maxclass" : "newobj",
					"text" : "prepend store",
					"fontname" : "Arial",
					"numinlets" : 1,
					"numoutlets" : 1,
					"outlettype" : [ "" ],
					"fontsize" : 12.0,
					"patching_rect" : [ 626.0, 486.0, 85.0, 20.0 ],
					"id" : "obj-19"
				}

			}
, 			{
				"box" : 				{
					"maxclass" : "newobj",
					"text" : "random 10000",
					"fontname" : "Arial",
					"numinlets" : 2,
					"numoutlets" : 1,
					"outlettype" : [ "int" ],
					"fontsize" : 12.0,
					"patching_rect" : [ 639.0, 357.0, 88.0, 20.0 ],
					"id" : "obj-18"
				}

			}
, 			{
				"box" : 				{
					"maxclass" : "newobj",
					"text" : "pack s 0",
					"fontname" : "Arial",
					"numinlets" : 2,
					"numoutlets" : 1,
					"outlettype" : [ "" ],
					"fontsize" : 12.0,
					"patching_rect" : [ 626.0, 448.0, 55.0, 20.0 ],
					"id" : "obj-17"
				}

			}
, 			{
				"box" : 				{
					"maxclass" : "newobj",
					"text" : "t i b",
					"fontname" : "Arial",
					"numinlets" : 1,
					"numoutlets" : 2,
					"outlettype" : [ "int", "bang" ],
					"fontsize" : 12.0,
					"patching_rect" : [ 625.0, 323.0, 32.5, 20.0 ],
					"id" : "obj-16"
				}

			}
, 			{
				"box" : 				{
					"maxclass" : "message",
					"text" : "keys",
					"fontname" : "Arial",
					"numinlets" : 2,
					"numoutlets" : 1,
					"outlettype" : [ "" ],
					"fontsize" : 12.0,
					"patching_rect" : [ 17.0, 93.0, 35.0, 18.0 ],
					"id" : "obj-14"
				}

			}
, 			{
				"box" : 				{
					"maxclass" : "newobj",
					"text" : "uzi 1000",
					"fontname" : "Arial",
					"numinlets" : 2,
					"numoutlets" : 3,
					"outlettype" : [ "bang", "bang", "int" ],
					"fontsize" : 12.0,
					"patching_rect" : [ 588.0, 295.0, 56.0, 20.0 ],
					"id" : "obj-13"
				}

			}
, 			{
				"box" : 				{
					"maxclass" : "message",
					"text" : "lookup pisschrist",
					"fontname" : "Arial",
					"numinlets" : 2,
					"numoutlets" : 1,
					"outlettype" : [ "" ],
					"fontsize" : 12.0,
					"patching_rect" : [ 682.0, 114.0, 99.0, 18.0 ],
					"id" : "obj-11"
				}

			}
, 			{
				"box" : 				{
					"maxclass" : "message",
					"text" : "lookup shithole",
					"fontname" : "Arial",
					"numinlets" : 2,
					"numoutlets" : 1,
					"outlettype" : [ "" ],
					"fontsize" : 12.0,
					"patching_rect" : [ 682.0, 88.0, 91.0, 18.0 ],
					"id" : "obj-12"
				}

			}
, 			{
				"box" : 				{
					"maxclass" : "message",
					"text" : "lookup pisschrist",
					"fontname" : "Arial",
					"numinlets" : 2,
					"numoutlets" : 1,
					"outlettype" : [ "" ],
					"fontsize" : 12.0,
					"patching_rect" : [ 203.0, 165.0, 99.0, 18.0 ],
					"id" : "obj-10"
				}

			}
, 			{
				"box" : 				{
					"maxclass" : "message",
					"text" : "store pisschrist 666",
					"fontname" : "Arial",
					"numinlets" : 2,
					"numoutlets" : 1,
					"outlettype" : [ "" ],
					"fontsize" : 12.0,
					"patching_rect" : [ 99.0, 13.0, 114.0, 18.0 ],
					"id" : "obj-9"
				}

			}
, 			{
				"box" : 				{
					"maxclass" : "message",
					"text" : "lookup shithole",
					"fontname" : "Arial",
					"numinlets" : 2,
					"numoutlets" : 1,
					"outlettype" : [ "" ],
					"fontsize" : 12.0,
					"patching_rect" : [ 203.0, 139.0, 91.0, 18.0 ],
					"id" : "obj-8"
				}

			}
, 			{
				"box" : 				{
					"maxclass" : "newobj",
					"text" : "print",
					"fontname" : "Arial",
					"numinlets" : 1,
					"numoutlets" : 0,
					"fontsize" : 12.0,
					"patching_rect" : [ 601.0, 188.0, 34.0, 20.0 ],
					"id" : "obj-7"
				}

			}
, 			{
				"box" : 				{
					"maxclass" : "message",
					"text" : "count",
					"fontname" : "Arial",
					"numinlets" : 2,
					"numoutlets" : 1,
					"outlettype" : [ "" ],
					"fontsize" : 12.0,
					"patching_rect" : [ 601.0, 130.0, 40.0, 18.0 ],
					"id" : "obj-6"
				}

			}
, 			{
				"box" : 				{
					"maxclass" : "message",
					"text" : "count",
					"fontname" : "Arial",
					"numinlets" : 2,
					"numoutlets" : 1,
					"outlettype" : [ "" ],
					"fontsize" : 12.0,
					"patching_rect" : [ 62.0, 34.0, 40.0, 18.0 ],
					"id" : "obj-5"
				}

			}
, 			{
				"box" : 				{
					"maxclass" : "newobj",
					"text" : "hashtab suckapunch",
					"fontname" : "Arial",
					"numinlets" : 1,
					"numoutlets" : 4,
					"outlettype" : [ "", "", "", "" ],
					"fontsize" : 12.0,
					"patching_rect" : [ 601.0, 157.0, 121.0, 20.0 ],
					"id" : "obj-2"
				}

			}
, 			{
				"box" : 				{
					"maxclass" : "newobj",
					"text" : "hashtab foo",
					"fontname" : "Arial",
					"numinlets" : 1,
					"numoutlets" : 4,
					"outlettype" : [ "", "", "", "" ],
					"fontsize" : 12.0,
					"patching_rect" : [ 62.0, 142.0, 73.0, 20.0 ],
					"id" : "obj-1"
				}

			}
 ],
		"lines" : [ 			{
				"patchline" : 				{
					"source" : [ "obj-63", 0 ],
					"destination" : [ "obj-1", 0 ],
					"hidden" : 0,
					"midpoints" : [  ]
				}

			}
, 			{
				"patchline" : 				{
					"source" : [ "obj-61", 0 ],
					"destination" : [ "obj-60", 0 ],
					"hidden" : 0,
					"midpoints" : [  ]
				}

			}
, 			{
				"patchline" : 				{
					"source" : [ "obj-54", 0 ],
					"destination" : [ "obj-1", 0 ],
					"hidden" : 0,
					"midpoints" : [  ]
				}

			}
, 			{
				"patchline" : 				{
					"source" : [ "obj-50", 0 ],
					"destination" : [ "obj-56", 0 ],
					"hidden" : 0,
					"midpoints" : [  ]
				}

			}
, 			{
				"patchline" : 				{
					"source" : [ "obj-55", 0 ],
					"destination" : [ "obj-50", 0 ],
					"hidden" : 0,
					"midpoints" : [  ]
				}

			}
, 			{
				"patchline" : 				{
					"source" : [ "obj-53", 0 ],
					"destination" : [ "obj-1", 0 ],
					"hidden" : 0,
					"midpoints" : [  ]
				}

			}
, 			{
				"patchline" : 				{
					"source" : [ "obj-52", 0 ],
					"destination" : [ "obj-1", 0 ],
					"hidden" : 0,
					"midpoints" : [  ]
				}

			}
, 			{
				"patchline" : 				{
					"source" : [ "obj-44", 0 ],
					"destination" : [ "obj-45", 0 ],
					"hidden" : 0,
					"midpoints" : [  ]
				}

			}
, 			{
				"patchline" : 				{
					"source" : [ "obj-47", 0 ],
					"destination" : [ "obj-1", 0 ],
					"hidden" : 0,
					"midpoints" : [  ]
				}

			}
, 			{
				"patchline" : 				{
					"source" : [ "obj-41", 0 ],
					"destination" : [ "obj-23", 0 ],
					"hidden" : 0,
					"midpoints" : [  ]
				}

			}
, 			{
				"patchline" : 				{
					"source" : [ "obj-40", 0 ],
					"destination" : [ "obj-23", 0 ],
					"hidden" : 0,
					"midpoints" : [  ]
				}

			}
, 			{
				"patchline" : 				{
					"source" : [ "obj-1", 1 ],
					"destination" : [ "obj-42", 0 ],
					"hidden" : 0,
					"midpoints" : [  ]
				}

			}
, 			{
				"patchline" : 				{
					"source" : [ "obj-1", 0 ],
					"destination" : [ "obj-43", 0 ],
					"hidden" : 0,
					"midpoints" : [  ]
				}

			}
, 			{
				"patchline" : 				{
					"source" : [ "obj-1", 0 ],
					"destination" : [ "obj-25", 0 ],
					"hidden" : 0,
					"midpoints" : [  ]
				}

			}
, 			{
				"patchline" : 				{
					"source" : [ "obj-33", 0 ],
					"destination" : [ "obj-1", 0 ],
					"hidden" : 0,
					"midpoints" : [  ]
				}

			}
, 			{
				"patchline" : 				{
					"source" : [ "obj-32", 0 ],
					"destination" : [ "obj-1", 0 ],
					"hidden" : 0,
					"midpoints" : [  ]
				}

			}
, 			{
				"patchline" : 				{
					"source" : [ "obj-31", 0 ],
					"destination" : [ "obj-1", 0 ],
					"hidden" : 0,
					"midpoints" : [  ]
				}

			}
, 			{
				"patchline" : 				{
					"source" : [ "obj-23", 0 ],
					"destination" : [ "obj-28", 0 ],
					"hidden" : 0,
					"midpoints" : [  ]
				}

			}
, 			{
				"patchline" : 				{
					"source" : [ "obj-27", 0 ],
					"destination" : [ "obj-23", 0 ],
					"hidden" : 0,
					"midpoints" : [  ]
				}

			}
, 			{
				"patchline" : 				{
					"source" : [ "obj-26", 0 ],
					"destination" : [ "obj-23", 0 ],
					"hidden" : 0,
					"midpoints" : [  ]
				}

			}
, 			{
				"patchline" : 				{
					"source" : [ "obj-25", 0 ],
					"destination" : [ "obj-26", 0 ],
					"hidden" : 0,
					"midpoints" : [  ]
				}

			}
, 			{
				"patchline" : 				{
					"source" : [ "obj-15", 0 ],
					"destination" : [ "obj-2", 0 ],
					"hidden" : 0,
					"midpoints" : [  ]
				}

			}
, 			{
				"patchline" : 				{
					"source" : [ "obj-12", 0 ],
					"destination" : [ "obj-2", 0 ],
					"hidden" : 0,
					"midpoints" : [  ]
				}

			}
, 			{
				"patchline" : 				{
					"source" : [ "obj-11", 0 ],
					"destination" : [ "obj-2", 0 ],
					"hidden" : 0,
					"midpoints" : [  ]
				}

			}
, 			{
				"patchline" : 				{
					"source" : [ "obj-6", 0 ],
					"destination" : [ "obj-2", 0 ],
					"hidden" : 0,
					"midpoints" : [  ]
				}

			}
, 			{
				"patchline" : 				{
					"source" : [ "obj-2", 0 ],
					"destination" : [ "obj-7", 0 ],
					"hidden" : 0,
					"midpoints" : [  ]
				}

			}
, 			{
				"patchline" : 				{
					"source" : [ "obj-10", 0 ],
					"destination" : [ "obj-1", 0 ],
					"hidden" : 0,
					"midpoints" : [  ]
				}

			}
, 			{
				"patchline" : 				{
					"source" : [ "obj-9", 0 ],
					"destination" : [ "obj-1", 0 ],
					"hidden" : 0,
					"midpoints" : [  ]
				}

			}
, 			{
				"patchline" : 				{
					"source" : [ "obj-5", 0 ],
					"destination" : [ "obj-1", 0 ],
					"hidden" : 0,
					"midpoints" : [  ]
				}

			}
, 			{
				"patchline" : 				{
					"source" : [ "obj-8", 0 ],
					"destination" : [ "obj-1", 0 ],
					"hidden" : 0,
					"midpoints" : [  ]
				}

			}
, 			{
				"patchline" : 				{
					"source" : [ "obj-14", 0 ],
					"destination" : [ "obj-1", 0 ],
					"hidden" : 0,
					"midpoints" : [  ]
				}

			}
, 			{
				"patchline" : 				{
					"source" : [ "obj-13", 2 ],
					"destination" : [ "obj-16", 0 ],
					"hidden" : 0,
					"midpoints" : [  ]
				}

			}
, 			{
				"patchline" : 				{
					"source" : [ "obj-16", 1 ],
					"destination" : [ "obj-18", 0 ],
					"hidden" : 0,
					"midpoints" : [  ]
				}

			}
, 			{
				"patchline" : 				{
					"source" : [ "obj-16", 0 ],
					"destination" : [ "obj-20", 0 ],
					"hidden" : 0,
					"midpoints" : [  ]
				}

			}
, 			{
				"patchline" : 				{
					"source" : [ "obj-20", 0 ],
					"destination" : [ "obj-17", 0 ],
					"hidden" : 0,
					"midpoints" : [  ]
				}

			}
, 			{
				"patchline" : 				{
					"source" : [ "obj-17", 0 ],
					"destination" : [ "obj-19", 0 ],
					"hidden" : 0,
					"midpoints" : [  ]
				}

			}
, 			{
				"patchline" : 				{
					"source" : [ "obj-18", 0 ],
					"destination" : [ "obj-17", 1 ],
					"hidden" : 0,
					"midpoints" : [  ]
				}

			}
, 			{
				"patchline" : 				{
					"source" : [ "obj-19", 0 ],
					"destination" : [ "obj-22", 0 ],
					"hidden" : 0,
					"midpoints" : [  ]
				}

			}
, 			{
				"patchline" : 				{
					"source" : [ "obj-24", 0 ],
					"destination" : [ "obj-13", 0 ],
					"hidden" : 0,
					"midpoints" : [  ]
				}

			}
, 			{
				"patchline" : 				{
					"source" : [ "obj-19", 0 ],
					"destination" : [ "obj-1", 0 ],
					"hidden" : 0,
					"midpoints" : [  ]
				}

			}
, 			{
				"patchline" : 				{
					"source" : [ "obj-21", 0 ],
					"destination" : [ "obj-1", 0 ],
					"hidden" : 0,
					"midpoints" : [  ]
				}

			}
, 			{
				"patchline" : 				{
					"source" : [ "obj-29", 0 ],
					"destination" : [ "obj-23", 0 ],
					"hidden" : 0,
					"midpoints" : [  ]
				}

			}
, 			{
				"patchline" : 				{
					"source" : [ "obj-30", 0 ],
					"destination" : [ "obj-1", 0 ],
					"hidden" : 0,
					"midpoints" : [  ]
				}

			}
, 			{
				"patchline" : 				{
					"source" : [ "obj-34", 0 ],
					"destination" : [ "obj-1", 0 ],
					"hidden" : 0,
					"midpoints" : [  ]
				}

			}
, 			{
				"patchline" : 				{
					"source" : [ "obj-37", 0 ],
					"destination" : [ "obj-36", 0 ],
					"hidden" : 0,
					"midpoints" : [  ]
				}

			}
, 			{
				"patchline" : 				{
					"source" : [ "obj-38", 0 ],
					"destination" : [ "obj-36", 0 ],
					"hidden" : 0,
					"midpoints" : [  ]
				}

			}
, 			{
				"patchline" : 				{
					"source" : [ "obj-36", 0 ],
					"destination" : [ "obj-35", 0 ],
					"hidden" : 0,
					"midpoints" : [  ]
				}

			}
, 			{
				"patchline" : 				{
					"source" : [ "obj-39", 0 ],
					"destination" : [ "obj-23", 0 ],
					"hidden" : 0,
					"midpoints" : [  ]
				}

			}
, 			{
				"patchline" : 				{
					"source" : [ "obj-25", 0 ],
					"destination" : [ "obj-3", 0 ],
					"hidden" : 0,
					"midpoints" : [  ]
				}

			}
, 			{
				"patchline" : 				{
					"source" : [ "obj-46", 0 ],
					"destination" : [ "obj-1", 0 ],
					"hidden" : 0,
					"midpoints" : [  ]
				}

			}
, 			{
				"patchline" : 				{
					"source" : [ "obj-1", 3 ],
					"destination" : [ "obj-44", 0 ],
					"hidden" : 0,
					"midpoints" : [  ]
				}

			}
, 			{
				"patchline" : 				{
					"source" : [ "obj-49", 0 ],
					"destination" : [ "obj-1", 0 ],
					"hidden" : 0,
					"midpoints" : [  ]
				}

			}
, 			{
				"patchline" : 				{
					"source" : [ "obj-48", 0 ],
					"destination" : [ "obj-1", 0 ],
					"hidden" : 0,
					"midpoints" : [  ]
				}

			}
, 			{
				"patchline" : 				{
					"source" : [ "obj-4", 0 ],
					"destination" : [ "obj-1", 0 ],
					"hidden" : 0,
					"midpoints" : [  ]
				}

			}
, 			{
				"patchline" : 				{
					"source" : [ "obj-58", 0 ],
					"destination" : [ "obj-59", 0 ],
					"hidden" : 0,
					"midpoints" : [  ]
				}

			}
, 			{
				"patchline" : 				{
					"source" : [ "obj-59", 0 ],
					"destination" : [ "obj-57", 0 ],
					"hidden" : 0,
					"midpoints" : [  ]
				}

			}
, 			{
				"patchline" : 				{
					"source" : [ "obj-62", 0 ],
					"destination" : [ "obj-1", 0 ],
					"hidden" : 0,
					"midpoints" : [  ]
				}

			}
, 			{
				"patchline" : 				{
					"source" : [ "obj-64", 0 ],
					"destination" : [ "obj-1", 0 ],
					"hidden" : 0,
					"midpoints" : [  ]
				}

			}
, 			{
				"patchline" : 				{
					"source" : [ "obj-65", 0 ],
					"destination" : [ "obj-1", 0 ],
					"hidden" : 0,
					"midpoints" : [  ]
				}

			}
, 			{
				"patchline" : 				{
					"source" : [ "obj-66", 0 ],
					"destination" : [ "obj-2", 0 ],
					"hidden" : 0,
					"midpoints" : [  ]
				}

			}
, 			{
				"patchline" : 				{
					"source" : [ "obj-67", 0 ],
					"destination" : [ "obj-23", 0 ],
					"hidden" : 0,
					"midpoints" : [  ]
				}

			}
 ]
	}

}
