{
	"patcher" : 	{
		"fileversion" : 1,
		"appversion" : 		{
			"major" : 6,
			"minor" : 1,
			"revision" : 3,
			"architecture" : "x86"
		}
,
		"rect" : [ 51.0, 44.0, 740.0, 645.0 ],
		"bglocked" : 0,
		"openinpresentation" : 0,
		"default_fontsize" : 12.0,
		"default_fontface" : 0,
		"default_fontname" : "Arial",
		"gridonopen" : 0,
		"gridsize" : [ 8.0, 8.0 ],
		"gridsnaponopen" : 0,
		"statusbarvisible" : 2,
		"toolbarvisible" : 1,
		"boxanimatetime" : 200,
		"imprint" : 0,
		"enablehscroll" : 1,
		"enablevscroll" : 1,
		"devicewidth" : 0.0,
		"description" : "",
		"digest" : "",
		"tags" : "",
		"boxes" : [ 			{
				"box" : 				{
					"fontname" : "Arial",
					"fontsize" : 9.0,
					"id" : "obj-1",
					"maxclass" : "newobj",
					"numinlets" : 1,
					"numoutlets" : 1,
					"outlettype" : [ "bang" ],
					"patching_rect" : [ 113.0, 45.0, 85.0, 17.0 ],
					"text" : "loadbang"
				}

			}
, 			{
				"box" : 				{
					"id" : "obj-2",
					"maxclass" : "toggle",
					"numinlets" : 1,
					"numoutlets" : 1,
					"outlettype" : [ "int" ],
					"parameter_enable" : 0,
					"patching_rect" : [ 108.0, 117.0, 15.0, 15.0 ]
				}

			}
, 			{
				"box" : 				{
					"fontname" : "Arial",
					"fontsize" : 9.0,
					"id" : "obj-3",
					"maxclass" : "newobj",
					"numinlets" : 2,
					"numoutlets" : 1,
					"outlettype" : [ "bang" ],
					"patching_rect" : [ 102.0, 140.0, 58.0, 17.0 ],
					"text" : "metro 200"
				}

			}
, 			{
				"box" : 				{
					"bgcolor" : [ 0.6, 0.6, 1.0, 1.0 ],
					"fontname" : "Arial",
					"fontsize" : 9.0,
					"id" : "obj-4",
					"maxclass" : "message",
					"numinlets" : 2,
					"numoutlets" : 1,
					"outlettype" : [ "" ],
					"patching_rect" : [ 124.0, 161.0, 23.0, 15.0 ],
					"text" : "0.5"
				}

			}
, 			{
				"box" : 				{
					"color" : [ 1.0, 0.890196, 0.090196, 1.0 ],
					"fontname" : "Arial",
					"fontsize" : 9.0,
					"id" : "obj-5",
					"maxclass" : "newobj",
					"numinlets" : 1,
					"numoutlets" : 1,
					"outlettype" : [ "" ],
					"patching_rect" : [ 137.0, 209.0, 142.0, 17.0 ],
					"text" : "basicresonators~ 880. 0.5 1."
				}

			}
, 			{
				"box" : 				{
					"fontname" : "Arial",
					"fontsize" : 9.0,
					"frgb" : 0.0,
					"id" : "obj-6",
					"linecount" : 2,
					"maxclass" : "comment",
					"numinlets" : 1,
					"numoutlets" : 0,
					"patching_rect" : [ 155.0, 157.0, 71.0, 27.0 ],
					"text" : "Float: Impulse amplitude"
				}

			}
, 			{
				"box" : 				{
					"fontname" : "Arial",
					"fontsize" : 9.0,
					"frgb" : 0.0,
					"id" : "obj-7",
					"linecount" : 5,
					"maxclass" : "comment",
					"numinlets" : 1,
					"numoutlets" : 0,
					"patching_rect" : [ 404.0, 70.0, 254.0, 57.0 ],
					"text" : "The basicresonators~ object can be excited with an input signal or by an impulse of arbitrary size. An incoming float is interpreted as the amplitude of an impulse. The impulse is taken to come at the first sample of the next signal vector computed."
				}

			}
, 			{
				"box" : 				{
					"fontname" : "Arial",
					"fontsize" : 9.0,
					"id" : "obj-8",
					"maxclass" : "newobj",
					"numinlets" : 0,
					"numoutlets" : 1,
					"outlettype" : [ "" ],
					"patching_rect" : [ 230.0, 367.0, 90.0, 17.0 ],
					"text" : "r resonators-help"
				}

			}
, 			{
				"box" : 				{
					"color" : [ 0.4, 0.4, 0.8, 1.0 ],
					"fontname" : "Arial",
					"fontsize" : 14.0,
					"id" : "obj-10",
					"maxclass" : "newobj",
					"numinlets" : 0,
					"numoutlets" : 0,
					"patcher" : 					{
						"fileversion" : 1,
						"appversion" : 						{
							"major" : 6,
							"minor" : 1,
							"revision" : 3,
							"architecture" : "x86"
						}
,
						"rect" : [ 430.0, 44.0, 608.0, 628.0 ],
						"bglocked" : 0,
						"openinpresentation" : 0,
						"default_fontsize" : 12.0,
						"default_fontface" : 0,
						"default_fontname" : "Arial",
						"gridonopen" : 0,
						"gridsize" : [ 8.0, 8.0 ],
						"gridsnaponopen" : 0,
						"statusbarvisible" : 2,
						"toolbarvisible" : 1,
						"boxanimatetime" : 200,
						"imprint" : 0,
						"enablehscroll" : 1,
						"enablevscroll" : 1,
						"devicewidth" : 0.0,
						"description" : "",
						"digest" : "",
						"tags" : "",
						"boxes" : [ 							{
								"box" : 								{
									"fontname" : "Arial",
									"fontsize" : 10.0,
									"frgb" : 0.0,
									"id" : "obj-1",
									"linecount" : 4,
									"maxclass" : "comment",
									"numinlets" : 1,
									"numoutlets" : 0,
									"patching_rect" : [ 422.0, 476.0, 140.0, 51.0 ],
									"text" : "note: this abstraction uses 'zl group' which is only good for 256 items, i.e. 85 components",
									"textcolor" : [ 1.0, 0.890196, 0.090196, 1.0 ]
								}

							}
, 							{
								"box" : 								{
									"bgcolor" : [ 0.4, 0.4, 0.8, 1.0 ],
									"id" : "obj-2",
									"maxclass" : "panel",
									"numinlets" : 1,
									"numoutlets" : 0,
									"patching_rect" : [ 419.0, 470.0, 147.0, 66.0 ],
									"rounded" : 10
								}

							}
, 							{
								"box" : 								{
									"fontname" : "Arial",
									"fontsize" : 9.0,
									"id" : "obj-3",
									"maxclass" : "message",
									"numinlets" : 2,
									"numoutlets" : 1,
									"outlettype" : [ "" ],
									"patching_rect" : [ 287.0, 464.0, 65.0, 15.0 ],
									"text" : "what-is-this"
								}

							}
, 							{
								"box" : 								{
									"fontname" : "Arial",
									"fontsize" : 9.0,
									"id" : "obj-4",
									"maxclass" : "newobj",
									"numinlets" : 1,
									"numoutlets" : 1,
									"outlettype" : [ "float" ],
									"patcher" : 									{
										"fileversion" : 1,
										"appversion" : 										{
											"major" : 6,
											"minor" : 1,
											"revision" : 3,
											"architecture" : "x86"
										}
,
										"rect" : [ 60.0, 55.0, 357.0, 481.0 ],
										"bglocked" : 0,
										"openinpresentation" : 0,
										"default_fontsize" : 12.0,
										"default_fontface" : 0,
										"default_fontname" : "Arial",
										"gridonopen" : 0,
										"gridsize" : [ 8.0, 8.0 ],
										"gridsnaponopen" : 0,
										"statusbarvisible" : 2,
										"toolbarvisible" : 1,
										"boxanimatetime" : 200,
										"imprint" : 0,
										"enablehscroll" : 1,
										"enablevscroll" : 1,
										"devicewidth" : 0.0,
										"description" : "",
										"digest" : "",
										"tags" : "",
										"boxes" : [ 											{
												"box" : 												{
													"fontname" : "Arial",
													"fontsize" : 9.0,
													"id" : "obj-1",
													"maxclass" : "newobj",
													"numinlets" : 1,
													"numoutlets" : 2,
													"outlettype" : [ "float", "" ],
													"patching_rect" : [ 105.0, 318.0, 38.0, 17.0 ],
													"text" : "t 0.5 l"
												}

											}
, 											{
												"box" : 												{
													"comment" : "",
													"id" : "obj-2",
													"maxclass" : "outlet",
													"numinlets" : 1,
													"numoutlets" : 0,
													"patching_rect" : [ 105.0, 369.0, 15.0, 15.0 ]
												}

											}
, 											{
												"box" : 												{
													"fontname" : "Arial",
													"fontsize" : 9.0,
													"id" : "obj-3",
													"maxclass" : "newobj",
													"numinlets" : 2,
													"numoutlets" : 2,
													"outlettype" : [ "", "" ],
													"patching_rect" : [ 105.0, 178.0, 65.0, 17.0 ],
													"text" : "route symbol"
												}

											}
, 											{
												"box" : 												{
													"fontname" : "Arial",
													"fontsize" : 9.0,
													"id" : "obj-4",
													"maxclass" : "newobj",
													"numinlets" : 1,
													"numoutlets" : 1,
													"outlettype" : [ "" ],
													"patching_rect" : [ 105.0, 239.0, 25.0, 17.0 ],
													"text" : "iter"
												}

											}
, 											{
												"box" : 												{
													"fontname" : "Arial",
													"fontsize" : 9.0,
													"id" : "obj-5",
													"maxclass" : "newobj",
													"numinlets" : 2,
													"numoutlets" : 2,
													"outlettype" : [ "", "" ],
													"patching_rect" : [ 105.0, 283.0, 97.0, 17.0 ],
													"text" : "zl group 256"
												}

											}
, 											{
												"box" : 												{
													"fontname" : "Arial",
													"fontsize" : 9.0,
													"id" : "obj-6",
													"maxclass" : "newobj",
													"numinlets" : 1,
													"numoutlets" : 1,
													"outlettype" : [ "" ],
													"patching_rect" : [ 105.0, 108.0, 70.0, 17.0 ],
													"text" : "prepend refer"
												}

											}
, 											{
												"box" : 												{
													"fontname" : "Arial",
													"fontsize" : 9.0,
													"id" : "obj-7",
													"maxclass" : "message",
													"numinlets" : 2,
													"numoutlets" : 1,
													"outlettype" : [ "" ],
													"patching_rect" : [ 50.0, 109.0, 31.0, 15.0 ],
													"text" : "dump"
												}

											}
, 											{
												"box" : 												{
													"fontname" : "Arial",
													"fontsize" : 9.0,
													"id" : "obj-8",
													"maxclass" : "newobj",
													"numinlets" : 1,
													"numoutlets" : 2,
													"outlettype" : [ "bang", "" ],
													"patching_rect" : [ 50.0, 73.0, 28.0, 17.0 ],
													"text" : "t b s"
												}

											}
, 											{
												"box" : 												{
													"coll_data" : 													{
														"count" : 44,
														"data" : [ 															{
																"key" : 2,
																"value" : [ 68.870094, 0.018847, 1.025365 ]
															}
, 															{
																"key" : 3,
																"value" : [ 76.798737, 0.001387, 0.812959 ]
															}
, 															{
																"key" : 4,
																"value" : [ 153.632996, 0.000157, 1.709837 ]
															}
, 															{
																"key" : 5,
																"value" : [ 331.670715, 0.005563, 2.718331 ]
															}
, 															{
																"key" : 6,
																"value" : [ 584.910217, 0.003633, 8.470998 ]
															}
, 															{
																"key" : 7,
																"value" : [ 716.436279, 0.000422, 3.576834 ]
															}
, 															{
																"key" : 8,
																"value" : [ 951.031433, 0.000499, 8.975781 ]
															}
, 															{
																"key" : 9,
																"value" : [ 1081.078735, 0.000219, 1.956324 ]
															}
, 															{
																"key" : 10,
																"value" : [ 1723.979126, 0.000256, 2.408033 ]
															}
, 															{
																"key" : 11,
																"value" : [ 1803.259155, 0.002516, 6.264031 ]
															}
, 															{
																"key" : 12,
																"value" : [ 1874.294312, 0.000192, 3.197672 ]
															}
, 															{
																"key" : 13,
																"value" : [ 1943.138672, 0.000867, 2.433625 ]
															}
, 															{
																"key" : 14,
																"value" : [ 2013.626831, 0.001289, 6.823446 ]
															}
, 															{
																"key" : 15,
																"value" : [ 2123.859619, 0.001192, 6.114969 ]
															}
, 															{
																"key" : 16,
																"value" : [ 3161.855713, 0.000241, 3.362504 ]
															}
, 															{
																"key" : 17,
																"value" : [ 3276.757568, 0.000268, 1.102739 ]
															}
, 															{
																"key" : 18,
																"value" : [ 3352.7146, 0.000177, 2.006015 ]
															}
, 															{
																"key" : 19,
																"value" : [ 3461.062012, 0.000656, 4.602165 ]
															}
, 															{
																"key" : 20,
																"value" : [ 3536.530273, 0.001187, 5.335497 ]
															}
, 															{
																"key" : 21,
																"value" : [ 3605.865234, 0.000268, 4.084842 ]
															}
, 															{
																"key" : 22,
																"value" : [ 4844.053711, 0.000419, 6.805682 ]
															}
, 															{
																"key" : 23,
																"value" : [ 4914.829102, 0.000493, 8.114322 ]
															}
, 															{
																"key" : 24,
																"value" : [ 5588.390625, 0.0008, 9.56846 ]
															}
, 															{
																"key" : 25,
																"value" : [ 8557.279297, 0.000664, 4.417527 ]
															}
, 															{
																"key" : 26,
																"value" : [ 8670.727539, 0.000128, 1.556648 ]
															}
, 															{
																"key" : 27,
																"value" : [ 10511.861328, 0.010369, 13.224075 ]
															}
, 															{
																"key" : 28,
																"value" : [ 12354.094727, 0.002859, 10.128166 ]
															}
, 															{
																"key" : 29,
																"value" : [ 12423.429688, 0.000318, 3.70574 ]
															}
, 															{
																"key" : 30,
																"value" : [ 13866.517578, 0.014462, 16.493029 ]
															}
, 															{
																"key" : 31,
																"value" : [ 13931.472656, 0.001243, 5.532115 ]
															}
, 															{
																"key" : 32,
																"value" : [ 15215.597656, 0.00048, 6.74961 ]
															}
, 															{
																"key" : 33,
																"value" : [ 15447.731445, 0.014499, 15.247563 ]
															}
, 															{
																"key" : 34,
																"value" : [ 15513.826172, 0.002359, 6.18425 ]
															}
, 															{
																"key" : 35,
																"value" : [ 15789.638672, 0.002187, 6.090732 ]
															}
, 															{
																"key" : 36,
																"value" : [ 16195.080078, 0.011736, 17.267841 ]
															}
, 															{
																"key" : 37,
																"value" : [ 17310.613281, 0.001164, 7.856104 ]
															}
, 															{
																"key" : 38,
																"value" : [ 17390.949219, 0.002608, 12.661162 ]
															}
, 															{
																"key" : 39,
																"value" : [ 17483.601562, 0.014441, 16.258587 ]
															}
, 															{
																"key" : 40,
																"value" : [ 17534.939453, 0.002646, 7.879301 ]
															}
, 															{
																"key" : 41,
																"value" : [ 17606.703125, 0.000501, 6.552191 ]
															}
, 															{
																"key" : 42,
																"value" : [ 19207.242188, 0.001623, 7.808167 ]
															}
, 															{
																"key" : 43,
																"value" : [ 19279.248047, 0.000914, 8.128489 ]
															}
, 															{
																"key" : 44,
																"value" : [ 19602.009766, 0.00296, 10.865641 ]
															}
, 															{
																"key" : 45,
																"value" : [ 21790.335938, 0.007668, 10.993763 ]
															}
 ]
													}
,
													"fontname" : "Arial",
													"fontsize" : 9.0,
													"id" : "obj-9",
													"maxclass" : "newobj",
													"numinlets" : 1,
													"numoutlets" : 4,
													"outlettype" : [ "", "", "", "" ],
													"patching_rect" : [ 105.0, 138.0, 169.0, 17.0 ],
													"saved_object_attributes" : 													{
														"embed" : 1
													}
,
													"text" : "coll no-probm 1"
												}

											}
, 											{
												"box" : 												{
													"comment" : "(sym) coll name",
													"id" : "obj-10",
													"maxclass" : "inlet",
													"numinlets" : 0,
													"numoutlets" : 1,
													"outlettype" : [ "" ],
													"patching_rect" : [ 50.0, 34.0, 15.0, 15.0 ]
												}

											}
 ],
										"lines" : [ 											{
												"patchline" : 												{
													"destination" : [ "obj-2", 0 ],
													"disabled" : 0,
													"hidden" : 0,
													"source" : [ "obj-1", 1 ]
												}

											}
, 											{
												"patchline" : 												{
													"destination" : [ "obj-2", 0 ],
													"disabled" : 0,
													"hidden" : 0,
													"source" : [ "obj-1", 0 ]
												}

											}
, 											{
												"patchline" : 												{
													"destination" : [ "obj-8", 0 ],
													"disabled" : 0,
													"hidden" : 0,
													"source" : [ "obj-10", 0 ]
												}

											}
, 											{
												"patchline" : 												{
													"destination" : [ "obj-4", 0 ],
													"disabled" : 0,
													"hidden" : 0,
													"source" : [ "obj-3", 1 ]
												}

											}
, 											{
												"patchline" : 												{
													"destination" : [ "obj-4", 0 ],
													"disabled" : 0,
													"hidden" : 0,
													"source" : [ "obj-3", 0 ]
												}

											}
, 											{
												"patchline" : 												{
													"destination" : [ "obj-5", 0 ],
													"disabled" : 0,
													"hidden" : 0,
													"source" : [ "obj-4", 0 ]
												}

											}
, 											{
												"patchline" : 												{
													"destination" : [ "obj-1", 0 ],
													"disabled" : 0,
													"hidden" : 0,
													"source" : [ "obj-5", 0 ]
												}

											}
, 											{
												"patchline" : 												{
													"destination" : [ "obj-9", 0 ],
													"disabled" : 0,
													"hidden" : 0,
													"source" : [ "obj-6", 0 ]
												}

											}
, 											{
												"patchline" : 												{
													"destination" : [ "obj-9", 0 ],
													"disabled" : 0,
													"hidden" : 0,
													"source" : [ "obj-7", 0 ]
												}

											}
, 											{
												"patchline" : 												{
													"destination" : [ "obj-6", 0 ],
													"disabled" : 0,
													"hidden" : 0,
													"source" : [ "obj-8", 1 ]
												}

											}
, 											{
												"patchline" : 												{
													"destination" : [ "obj-7", 0 ],
													"disabled" : 0,
													"hidden" : 0,
													"source" : [ "obj-8", 0 ]
												}

											}
, 											{
												"patchline" : 												{
													"destination" : [ "obj-3", 0 ],
													"disabled" : 0,
													"hidden" : 0,
													"source" : [ "obj-9", 0 ]
												}

											}
, 											{
												"patchline" : 												{
													"destination" : [ "obj-5", 0 ],
													"disabled" : 0,
													"hidden" : 0,
													"source" : [ "obj-9", 3 ]
												}

											}
 ]
									}
,
									"patching_rect" : [ 287.0, 488.0, 85.0, 17.0 ],
									"saved_object_attributes" : 									{
										"default_fontface" : 0,
										"default_fontname" : "Arial",
										"default_fontsize" : 12.0,
										"description" : "",
										"digest" : "",
										"fontface" : 0,
										"fontname" : "Arial",
										"fontsize" : 12.0,
										"globalpatchername" : "",
										"tags" : ""
									}
,
									"text" : "p coll-listdumper"
								}

							}
, 							{
								"box" : 								{
									"fontname" : "Arial",
									"fontsize" : 9.0,
									"id" : "obj-5",
									"maxclass" : "newobj",
									"numinlets" : 1,
									"numoutlets" : 0,
									"patching_rect" : [ 287.0, 513.0, 90.0, 17.0 ],
									"text" : "s resonators-help"
								}

							}
, 							{
								"box" : 								{
									"fontname" : "Arial",
									"fontsize" : 9.0,
									"frgb" : 0.0,
									"id" : "obj-6",
									"maxclass" : "comment",
									"numinlets" : 1,
									"numoutlets" : 0,
									"patching_rect" : [ 52.0, 554.0, 113.0, 17.0 ],
									"text" : "makes it easier to read"
								}

							}
, 							{
								"box" : 								{
									"coll_data" : 									{
										"count" : 44,
										"data" : [ 											{
												"key" : 2,
												"value" : [ 68.870094, 0.018847, 1.025365 ]
											}
, 											{
												"key" : 3,
												"value" : [ 76.798737, 0.001387, 0.812959 ]
											}
, 											{
												"key" : 4,
												"value" : [ 153.632996, 0.000157, 1.709837 ]
											}
, 											{
												"key" : 5,
												"value" : [ 331.670715, 0.005563, 2.718331 ]
											}
, 											{
												"key" : 6,
												"value" : [ 584.910217, 0.003633, 8.470998 ]
											}
, 											{
												"key" : 7,
												"value" : [ 716.436279, 0.000422, 3.576834 ]
											}
, 											{
												"key" : 8,
												"value" : [ 951.031433, 0.000499, 8.975781 ]
											}
, 											{
												"key" : 9,
												"value" : [ 1081.078735, 0.000219, 1.956324 ]
											}
, 											{
												"key" : 10,
												"value" : [ 1723.979126, 0.000256, 2.408033 ]
											}
, 											{
												"key" : 11,
												"value" : [ 1803.259155, 0.002516, 6.264031 ]
											}
, 											{
												"key" : 12,
												"value" : [ 1874.294312, 0.000192, 3.197672 ]
											}
, 											{
												"key" : 13,
												"value" : [ 1943.138672, 0.000867, 2.433625 ]
											}
, 											{
												"key" : 14,
												"value" : [ 2013.626831, 0.001289, 6.823446 ]
											}
, 											{
												"key" : 15,
												"value" : [ 2123.859619, 0.001192, 6.114969 ]
											}
, 											{
												"key" : 16,
												"value" : [ 3161.855713, 0.000241, 3.362504 ]
											}
, 											{
												"key" : 17,
												"value" : [ 3276.757568, 0.000268, 1.102739 ]
											}
, 											{
												"key" : 18,
												"value" : [ 3352.7146, 0.000177, 2.006015 ]
											}
, 											{
												"key" : 19,
												"value" : [ 3461.062012, 0.000656, 4.602165 ]
											}
, 											{
												"key" : 20,
												"value" : [ 3536.530273, 0.001187, 5.335497 ]
											}
, 											{
												"key" : 21,
												"value" : [ 3605.865234, 0.000268, 4.084842 ]
											}
, 											{
												"key" : 22,
												"value" : [ 4844.053711, 0.000419, 6.805682 ]
											}
, 											{
												"key" : 23,
												"value" : [ 4914.829102, 0.000493, 8.114322 ]
											}
, 											{
												"key" : 24,
												"value" : [ 5588.390625, 0.0008, 9.56846 ]
											}
, 											{
												"key" : 25,
												"value" : [ 8557.279297, 0.000664, 4.417527 ]
											}
, 											{
												"key" : 26,
												"value" : [ 8670.727539, 0.000128, 1.556648 ]
											}
, 											{
												"key" : 27,
												"value" : [ 10511.861328, 0.010369, 13.224075 ]
											}
, 											{
												"key" : 28,
												"value" : [ 12354.094727, 0.002859, 10.128166 ]
											}
, 											{
												"key" : 29,
												"value" : [ 12423.429688, 0.000318, 3.70574 ]
											}
, 											{
												"key" : 30,
												"value" : [ 13866.517578, 0.014462, 16.493029 ]
											}
, 											{
												"key" : 31,
												"value" : [ 13931.472656, 0.001243, 5.532115 ]
											}
, 											{
												"key" : 32,
												"value" : [ 15215.597656, 0.00048, 6.74961 ]
											}
, 											{
												"key" : 33,
												"value" : [ 15447.731445, 0.014499, 15.247563 ]
											}
, 											{
												"key" : 34,
												"value" : [ 15513.826172, 0.002359, 6.18425 ]
											}
, 											{
												"key" : 35,
												"value" : [ 15789.638672, 0.002187, 6.090732 ]
											}
, 											{
												"key" : 36,
												"value" : [ 16195.080078, 0.011736, 17.267841 ]
											}
, 											{
												"key" : 37,
												"value" : [ 17310.613281, 0.001164, 7.856104 ]
											}
, 											{
												"key" : 38,
												"value" : [ 17390.949219, 0.002608, 12.661162 ]
											}
, 											{
												"key" : 39,
												"value" : [ 17483.601562, 0.014441, 16.258587 ]
											}
, 											{
												"key" : 40,
												"value" : [ 17534.939453, 0.002646, 7.879301 ]
											}
, 											{
												"key" : 41,
												"value" : [ 17606.703125, 0.000501, 6.552191 ]
											}
, 											{
												"key" : 42,
												"value" : [ 19207.242188, 0.001623, 7.808167 ]
											}
, 											{
												"key" : 43,
												"value" : [ 19279.248047, 0.000914, 8.128489 ]
											}
, 											{
												"key" : 44,
												"value" : [ 19602.009766, 0.00296, 10.865641 ]
											}
, 											{
												"key" : 45,
												"value" : [ 21790.335938, 0.007668, 10.993763 ]
											}
 ]
									}
,
									"fontname" : "Arial",
									"fontsize" : 9.0,
									"id" : "obj-7",
									"maxclass" : "newobj",
									"numinlets" : 1,
									"numoutlets" : 4,
									"outlettype" : [ "", "", "", "" ],
									"patching_rect" : [ 182.0, 488.0, 94.0, 17.0 ],
									"saved_object_attributes" : 									{
										"embed" : 1
									}
,
									"text" : "coll what-is-this 1"
								}

							}
, 							{
								"box" : 								{
									"fontname" : "Arial",
									"fontsize" : 9.0,
									"frgb" : 0.0,
									"id" : "obj-8",
									"linecount" : 4,
									"maxclass" : "comment",
									"numinlets" : 1,
									"numoutlets" : 0,
									"patching_rect" : [ 51.0, 495.0, 102.0, 47.0 ],
									"text" : "Store them in separate collections with one frequency component per index"
								}

							}
, 							{
								"box" : 								{
									"fontname" : "Arial",
									"fontsize" : 36.0,
									"frgb" : 0.0,
									"id" : "obj-9",
									"maxclass" : "comment",
									"numinlets" : 1,
									"numoutlets" : 0,
									"patching_rect" : [ 34.0, 441.0, 100.0, 47.0 ],
									"text" : "3...",
									"textcolor" : [ 0.4, 0.4, 0.8, 1.0 ]
								}

							}
, 							{
								"box" : 								{
									"fontname" : "Arial",
									"fontsize" : 36.0,
									"frgb" : 0.0,
									"id" : "obj-10",
									"maxclass" : "comment",
									"numinlets" : 1,
									"numoutlets" : 0,
									"patching_rect" : [ 33.0, 285.0, 100.0, 47.0 ],
									"text" : "2...",
									"textcolor" : [ 0.4, 0.4, 0.8, 1.0 ]
								}

							}
, 							{
								"box" : 								{
									"hidden" : 1,
									"id" : "obj-11",
									"maxclass" : "button",
									"numinlets" : 1,
									"numoutlets" : 1,
									"outlettype" : [ "bang" ],
									"patching_rect" : [ 380.0, 173.0, 15.0, 15.0 ]
								}

							}
, 							{
								"box" : 								{
									"hidden" : 1,
									"id" : "obj-12",
									"maxclass" : "button",
									"numinlets" : 1,
									"numoutlets" : 1,
									"outlettype" : [ "bang" ],
									"patching_rect" : [ 414.0, 189.0, 15.0, 15.0 ]
								}

							}
, 							{
								"box" : 								{
									"hidden" : 1,
									"id" : "obj-13",
									"maxclass" : "button",
									"numinlets" : 1,
									"numoutlets" : 1,
									"outlettype" : [ "bang" ],
									"patching_rect" : [ 380.0, 32.0, 15.0, 15.0 ]
								}

							}
, 							{
								"box" : 								{
									"hidden" : 1,
									"id" : "obj-14",
									"maxclass" : "button",
									"numinlets" : 1,
									"numoutlets" : 1,
									"outlettype" : [ "bang" ],
									"patching_rect" : [ 380.0, 371.0, 15.0, 15.0 ]
								}

							}
, 							{
								"box" : 								{
									"fontname" : "Arial",
									"fontsize" : 10.0,
									"frgb" : 0.0,
									"id" : "obj-15",
									"linecount" : 2,
									"maxclass" : "comment",
									"numinlets" : 1,
									"numoutlets" : 0,
									"patching_rect" : [ 422.0, 172.0, 140.0, 29.0 ],
									"text" : "note: max allows only 256 items per index in a coll",
									"textcolor" : [ 1.0, 0.890196, 0.090196, 1.0 ]
								}

							}
, 							{
								"box" : 								{
									"coll_data" : 									{
										"count" : 1,
										"data" : [ 											{
												"key" : "tubularbell",
												"value" : [ 55.033997, 0.007688, 0.22365, 57.453999, 0.001074, 0.275675, 64.974991, 0.000344, 1.205618, 67.100998, 0.000343, 1.19569, 74.752991, 0.00055, 0.422953, 80.709984, 0.000554, 4.355912, 89.092995, 0.000561, 2.821024, 99.332001, 0.000362, 0.778361, 106.003998, 0.001197, 0.982313, 130.531998, 0.000953, 1.696837, 137.360001, 0.000392, 2.690805, 148.563004, 0.000366, 2.265277, 157.608002, 0.000513, 3.611323, 165.25, 0.001761, 3.820774, 174.370987, 0.002966, 1.162609, 181.643982, 0.000576, 1.001477, 186.36998, 0.000834, 1.611794, 191.063965, 0.003771, 2.196068, 206.147995, 0.000571, 2.013352, 210.743973, 0.001398, 0.995539, 214.289963, 0.002871, 2.079766, 240.306, 0.001051, 13.982533, 287.570984, 0.023614, 5.610853, 293.052002, 0.02252, 1.44152, 371.285004, 0.000913, 1.621439, 571.859009, 0.051998, 0.820176, 935.881897, 0.172225, 0.288869, 1367.75, 0.039492, 4.170716, 1370.703125, 0.071488, 3.365682, 1376.578003, 0.088138, 1.652226, 1557.43396, 0.146852, 3.653641, 1879.739502, 0.081108, 1.590494, 1881.360962, 0.050548, 2.569069, 1886.347168, 0.100205, 3.356101, 2238.96875, 0.004383, 3.748203, 2424.685547, 0.003074, 7.335242, 2443.835938, 0.012659, 1.345984, 3051.962891, 0.044948, 6.99262, 3126.86792, 0.017701, 6.850494, 3702.765625, 0.016628, 2.782289, 3989.600586, 0.002295, 16.584969, 4378.521973, 0.018616, 9.424932, 4545.341797, 0.004602, 75.61393, 4705.530762, 0.008206, 5.640258, 4712.428223, 0.013113, 89.576363, 5085.185547, 0.004341, 24.564522, 5191.1875, 0.001106, 29.310265, 5804.791504, 0.002701, 34.254292, 6206.34375, 0.000584, 16.682171, 6238.568848, 0.000975, 18.588646, 6315.720215, 0.004216, 6.86815, 6530.737793, 0.001939, 15.251987, 6662.9375, 0.000525, 3.668626, 7931.773926, 0.004198, 8.956491, 8014.837891, 0.00192, 26.619677, 8839.701172, 0.000511, 46.7752, 9483.171875, 0.002546, 33.862347, 9563.246094, 0.001693, 8.390629, 9952.574219, 0.000427, 47.439774, 11552.598633, 0.000343, 11.630795, 11593.709961, 0.000969, 29.637774, 11601.259766, 0.000865, 40.935738, 12221.638672, 0.000526, 26.091555, 12282.230469, 0.004292, 74.684525, 12834.739258, 0.000656, 14.306746, 12969.5, 0.000366, 20.928431, 12993.40918, 0.000931, 56.3918 ]
											}
 ]
									}
,
									"fontname" : "Arial",
									"fontsize" : 9.0,
									"id" : "obj-16",
									"maxclass" : "newobj",
									"numinlets" : 1,
									"numoutlets" : 4,
									"outlettype" : [ "", "", "", "" ],
									"patching_rect" : [ 236.0, 321.0, 59.0, 17.0 ],
									"saved_object_attributes" : 									{
										"embed" : 1
									}
,
									"text" : "coll bell 1"
								}

							}
, 							{
								"box" : 								{
									"coll_data" : 									{
										"count" : 1,
										"data" : [ 											{
												"key" : "cbass",
												"value" : [ 41.5, 0.08, 0.388112, 83.399994, 0.4, 0.73463, 115.0, 0.3, 5.821497, 125.169991, 0.14, 0.93076, 126.299988, 0.18, 0.717288, 166.25, 0.07, 0.970249, 167.599991, 0.07, 0.831642, 207.269974, 0.03, 1.474098, 208.899994, 0.04, 1.171217, 248.899994, 0.02, 1.669536, 252.139969, 0.02, 1.512206, 286.399994, 0.0125, 1.925262, 287.399994, 0.0125, 1.512206, 333.299988, 0.0125, 1.512206, 335.099976, 0.0135, 0.900255, 375.0, 0.035, 1.670228, 376.799988, 0.035, 1.108857, 415.699982, 0.006, 1.17816, 418.799988, 0.007, 0.693035, 458.299988, 0.025, 4.075054, 461.599976, 0.025, 2.910748, 498.0, 0.007, 2.910748, 499.0, 0.008, 0.977192, 543.0, 0.006, 5.544283, 546.0, 0.0065, 2.910748, 586.0, 0.0125, 11.088566, 591.0, 0.0125, 3.32657, 627.0, 0.0045, 3.645379, 631.0, 0.0045, 2.910748, 667.0, 0.00125, 4.075054, 673.0, 0.00125, 2.199115, 710.0, 0.0015, 5.329429, 713.0, 0.0015, 2.307814, 752.0, 0.0015, 2.349377, 757.0, 0.0065, 19.557446, 793.0, 0.001, 4.892842, 796.0, 0.002, 7.297668, 835.0, 0.00075, 1.884956, 840.0, 0.0017, 7.33232, 875.0, 0.003, 2.633534, 876.699646, 0.006, 8.385727, 917.0, 0.002, 8.870852, 957.299988, 0.003, 8.385727, 968.0, 0.002, 3.880998, 1002.0, 0.002594, 5.472906, 1043.899292, 0.002174, 5.73171, 1086.199585, 0.001819, 6.005406, 1126.099976, 0.001537, 6.27552, 1170.0, 0.001277, 6.586789, 1212.0, 0.00107, 6.899032, 1254.0, 0.000896, 7.226071, 1291.0, 0.000766, 7.526973, 1332.0, 0.000645, 7.875093, 1377.0, 0.000533, 8.275741, 1419.0, 0.000447, 8.668032, 1462.0, 0.000373, 9.088942, 1504.0, 0.000312, 9.519773, 1546.0, 0.000261, 9.971066, 1587.0, 0.00022, 10.43222 ]
											}
 ]
									}
,
									"fontname" : "Arial",
									"fontsize" : 9.0,
									"id" : "obj-17",
									"maxclass" : "newobj",
									"numinlets" : 1,
									"numoutlets" : 4,
									"outlettype" : [ "", "", "", "" ],
									"patching_rect" : [ 302.0, 321.0, 61.0, 17.0 ],
									"saved_object_attributes" : 									{
										"embed" : 1
									}
,
									"text" : "coll bass 1"
								}

							}
, 							{
								"box" : 								{
									"fontname" : "Arial",
									"fontsize" : 9.0,
									"frgb" : 0.0,
									"id" : "obj-18",
									"linecount" : 4,
									"maxclass" : "comment",
									"numinlets" : 1,
									"numoutlets" : 0,
									"patching_rect" : [ 50.0, 341.0, 102.0, 47.0 ],
									"text" : "Store them in separate collections and switch between them using refer"
								}

							}
, 							{
								"box" : 								{
									"fontname" : "Arial",
									"fontsize" : 9.0,
									"id" : "obj-19",
									"maxclass" : "message",
									"numinlets" : 2,
									"numoutlets" : 1,
									"outlettype" : [ "" ],
									"patching_rect" : [ 175.0, 288.0, 31.0, 15.0 ],
									"text" : "dump"
								}

							}
, 							{
								"box" : 								{
									"fontname" : "Arial",
									"fontsize" : 9.0,
									"id" : "obj-20",
									"maxclass" : "newobj",
									"numinlets" : 1,
									"numoutlets" : 0,
									"patching_rect" : [ 156.0, 352.0, 90.0, 17.0 ],
									"text" : "s resonators-help"
								}

							}
, 							{
								"box" : 								{
									"fontname" : "Arial",
									"fontsize" : 9.0,
									"id" : "obj-21",
									"maxclass" : "newobj",
									"numinlets" : 1,
									"numoutlets" : 3,
									"outlettype" : [ "float", "bang", "" ],
									"patching_rect" : [ 156.0, 261.0, 48.0, 17.0 ],
									"text" : "t 0.5 b s"
								}

							}
, 							{
								"box" : 								{
									"fontname" : "Arial",
									"fontsize" : 9.0,
									"id" : "obj-22",
									"maxclass" : "message",
									"numinlets" : 2,
									"numoutlets" : 1,
									"outlettype" : [ "" ],
									"patching_rect" : [ 198.0, 231.0, 60.0, 15.0 ],
									"text" : "refer bass"
								}

							}
, 							{
								"box" : 								{
									"fontname" : "Arial",
									"fontsize" : 9.0,
									"id" : "obj-23",
									"maxclass" : "message",
									"numinlets" : 2,
									"numoutlets" : 1,
									"outlettype" : [ "" ],
									"patching_rect" : [ 98.0, 231.0, 83.0, 15.0 ],
									"text" : "refer bell"
								}

							}
, 							{
								"box" : 								{
									"coll_data" : 									{
										"count" : 1,
										"data" : [ 											{
												"key" : "cbass",
												"value" : [ 41.5, 0.08, 0.388112, 83.399994, 0.4, 0.73463, 115.0, 0.3, 5.821497, 125.169991, 0.14, 0.93076, 126.299988, 0.18, 0.717288, 166.25, 0.07, 0.970249, 167.599991, 0.07, 0.831642, 207.269974, 0.03, 1.474098, 208.899994, 0.04, 1.171217, 248.899994, 0.02, 1.669536, 252.139969, 0.02, 1.512206, 286.399994, 0.0125, 1.925262, 287.399994, 0.0125, 1.512206, 333.299988, 0.0125, 1.512206, 335.099976, 0.0135, 0.900255, 375.0, 0.035, 1.670228, 376.799988, 0.035, 1.108857, 415.699982, 0.006, 1.17816, 418.799988, 0.007, 0.693035, 458.299988, 0.025, 4.075054, 461.599976, 0.025, 2.910748, 498.0, 0.007, 2.910748, 499.0, 0.008, 0.977192, 543.0, 0.006, 5.544283, 546.0, 0.0065, 2.910748, 586.0, 0.0125, 11.088566, 591.0, 0.0125, 3.32657, 627.0, 0.0045, 3.645379, 631.0, 0.0045, 2.910748, 667.0, 0.00125, 4.075054, 673.0, 0.00125, 2.199115, 710.0, 0.0015, 5.329429, 713.0, 0.0015, 2.307814, 752.0, 0.0015, 2.349377, 757.0, 0.0065, 19.557446, 793.0, 0.001, 4.892842, 796.0, 0.002, 7.297668, 835.0, 0.00075, 1.884956, 840.0, 0.0017, 7.33232, 875.0, 0.003, 2.633534, 876.699646, 0.006, 8.385727, 917.0, 0.002, 8.870852, 957.299988, 0.003, 8.385727, 968.0, 0.002, 3.880998, 1002.0, 0.002594, 5.472906, 1043.899292, 0.002174, 5.73171, 1086.199585, 0.001819, 6.005406, 1126.099976, 0.001537, 6.27552, 1170.0, 0.001277, 6.586789, 1212.0, 0.00107, 6.899032, 1254.0, 0.000896, 7.226071, 1291.0, 0.000766, 7.526973, 1332.0, 0.000645, 7.875093, 1377.0, 0.000533, 8.275741, 1419.0, 0.000447, 8.668032, 1462.0, 0.000373, 9.088942, 1504.0, 0.000312, 9.519773, 1546.0, 0.000261, 9.971066, 1587.0, 0.00022, 10.43222 ]
											}
 ]
									}
,
									"fontname" : "Arial",
									"fontsize" : 9.0,
									"id" : "obj-24",
									"maxclass" : "newobj",
									"numinlets" : 1,
									"numoutlets" : 4,
									"outlettype" : [ "", "", "", "" ],
									"patching_rect" : [ 175.0, 321.0, 53.0, 17.0 ],
									"saved_object_attributes" : 									{
										"embed" : 1
									}
,
									"text" : "coll"
								}

							}
, 							{
								"box" : 								{
									"fontname" : "Arial",
									"fontsize" : 9.0,
									"id" : "obj-25",
									"maxclass" : "newobj",
									"numinlets" : 1,
									"numoutlets" : 2,
									"outlettype" : [ "float", "" ],
									"patching_rect" : [ 193.0, 93.0, 40.0, 17.0 ],
									"text" : "t 0.5 s"
								}

							}
, 							{
								"box" : 								{
									"fontname" : "Arial",
									"fontsize" : 9.0,
									"id" : "obj-26",
									"items" : [ "bell", ",", "bass" ],
									"maxclass" : "umenu",
									"numinlets" : 1,
									"numoutlets" : 3,
									"outlettype" : [ "int", "", "" ],
									"parameter_enable" : 0,
									"patching_rect" : [ 103.0, 65.0, 100.0, 17.0 ]
								}

							}
, 							{
								"box" : 								{
									"coll_data" : 									{
										"count" : 2,
										"data" : [ 											{
												"key" : "bass",
												"value" : [ 41.5, 0.08, 0.388112, 83.399994, 0.4, 0.73463, 115.0, 0.3, 5.821497, 125.169991, 0.14, 0.93076, 126.299988, 0.18, 0.717288, 166.25, 0.07, 0.970249, 167.599991, 0.07, 0.831642, 207.269974, 0.03, 1.474098, 208.899994, 0.04, 1.171217, 248.899994, 0.02, 1.669536, 252.139969, 0.02, 1.512206, 286.399994, 0.0125, 1.925262, 287.399994, 0.0125, 1.512206, 333.299988, 0.0125, 1.512206, 335.099976, 0.0135, 0.900255, 375.0, 0.035, 1.670228, 376.799988, 0.035, 1.108857, 415.699982, 0.006, 1.17816, 418.799988, 0.007, 0.693035, 458.299988, 0.025, 4.075054, 461.599976, 0.025, 2.910748, 498.0, 0.007, 2.910748, 499.0, 0.008, 0.977192, 543.0, 0.006, 5.544283, 546.0, 0.0065, 2.910748, 586.0, 0.0125, 11.088566, 591.0, 0.0125, 3.32657, 627.0, 0.0045, 3.645379, 631.0, 0.0045, 2.910748, 667.0, 0.00125, 4.075054, 673.0, 0.00125, 2.199115, 710.0, 0.0015, 5.329429, 713.0, 0.0015, 2.307814, 752.0, 0.0015, 2.349377, 757.0, 0.0065, 19.557446, 793.0, 0.001, 4.892842, 796.0, 0.002, 7.297668, 835.0, 0.00075, 1.884956, 840.0, 0.0017, 7.33232, 875.0, 0.003, 2.633534, 876.699646, 0.006, 8.385727, 917.0, 0.002, 8.870852, 957.299988, 0.003, 8.385727, 968.0, 0.002, 3.880998, 1002.0, 0.002594, 5.472906, 1043.899292, 0.002174, 5.73171, 1086.199585, 0.001819, 6.005406, 1126.099976, 0.001537, 6.27552, 1170.0, 0.001277, 6.586789, 1212.0, 0.00107, 6.899032, 1254.0, 0.000896, 7.226071, 1291.0, 0.000766, 7.526973, 1332.0, 0.000645, 7.875093, 1377.0, 0.000533, 8.275741, 1419.0, 0.000447, 8.668032, 1462.0, 0.000373, 9.088942, 1504.0, 0.000312, 9.519773, 1546.0, 0.000261, 9.971066, 1587.0, 0.00022, 10.43222 ]
											}
, 											{
												"key" : "bell",
												"value" : [ 55.033997, 0.007688, 0.22365, 57.453999, 0.001074, 0.275675, 64.974991, 0.000344, 1.205618, 67.100998, 0.000343, 1.19569, 74.752991, 0.00055, 0.422953, 80.709984, 0.000554, 4.355912, 89.092995, 0.000561, 2.821024, 99.332001, 0.000362, 0.778361, 106.003998, 0.001197, 0.982313, 130.531998, 0.000953, 1.696837, 137.360001, 0.000392, 2.690805, 148.563004, 0.000366, 2.265277, 157.608002, 0.000513, 3.611323, 165.25, 0.001761, 3.820774, 174.370987, 0.002966, 1.162609, 181.643982, 0.000576, 1.001477, 186.36998, 0.000834, 1.611794, 191.063965, 0.003771, 2.196068, 206.147995, 0.000571, 2.013352, 210.743973, 0.001398, 0.995539, 214.289963, 0.002871, 2.079766, 240.306, 0.001051, 13.982533, 287.570984, 0.023614, 5.610853, 293.052002, 0.02252, 1.44152, 371.285004, 0.000913, 1.621439, 571.859009, 0.051998, 0.820176, 935.881897, 0.172225, 0.288869, 1367.75, 0.039492, 4.170716, 1370.703125, 0.071488, 3.365682, 1376.578003, 0.088138, 1.652226, 1557.43396, 0.146852, 3.653641, 1879.739502, 0.081108, 1.590494, 1881.360962, 0.050548, 2.569069, 1886.347168, 0.100205, 3.356101, 2238.96875, 0.004383, 3.748203, 2424.685547, 0.003074, 7.335242, 2443.835938, 0.012659, 1.345984, 3051.962891, 0.044948, 6.99262, 3126.86792, 0.017701, 6.850494, 3702.765625, 0.016628, 2.782289, 3989.600586, 0.002295, 16.584969, 4378.521973, 0.018616, 9.424932, 4545.341797, 0.004602, 75.61393, 4705.530762, 0.008206, 5.640258, 4712.428223, 0.013113, 89.576363, 5085.185547, 0.004341, 24.564522, 5191.1875, 0.001106, 29.310265, 5804.791504, 0.002701, 34.254292, 6206.34375, 0.000584, 16.682171, 6238.568848, 0.000975, 18.588646, 6315.720215, 0.004216, 6.86815, 6530.737793, 0.001939, 15.251987, 6662.9375, 0.000525, 3.668626, 7931.773926, 0.004198, 8.956491, 8014.837891, 0.00192, 26.619677, 8839.701172, 0.000511, 46.7752, 9483.171875, 0.002546, 33.862347, 9563.246094, 0.001693, 8.390629, 9952.574219, 0.000427, 47.439774, 11552.598633, 0.000343, 11.630795, 11593.709961, 0.000969, 29.637774, 11601.259766, 0.000865, 40.935738, 12221.638672, 0.000526, 26.091555, 12282.230469, 0.004292, 74.684525, 12834.739258, 0.000656, 14.306746, 12969.5, 0.000366, 20.928431, 12993.40918, 0.000931, 56.3918 ]
											}
 ]
									}
,
									"fontname" : "Arial",
									"fontsize" : 9.0,
									"id" : "obj-27",
									"maxclass" : "newobj",
									"numinlets" : 1,
									"numoutlets" : 4,
									"outlettype" : [ "", "", "", "" ],
									"patching_rect" : [ 223.0, 120.0, 68.0, 17.0 ],
									"saved_object_attributes" : 									{
										"embed" : 1
									}
,
									"text" : "coll models 1"
								}

							}
, 							{
								"box" : 								{
									"fontname" : "Arial",
									"fontsize" : 9.0,
									"id" : "obj-28",
									"maxclass" : "newobj",
									"numinlets" : 1,
									"numoutlets" : 0,
									"patching_rect" : [ 193.0, 147.0, 90.0, 17.0 ],
									"text" : "s resonators-help"
								}

							}
, 							{
								"box" : 								{
									"fontname" : "Arial",
									"fontsize" : 9.0,
									"frgb" : 0.0,
									"id" : "obj-29",
									"linecount" : 3,
									"maxclass" : "comment",
									"numinlets" : 1,
									"numoutlets" : 0,
									"patching_rect" : [ 53.0, 139.0, 100.0, 37.0 ],
									"text" : "Store them in a single collection and look them up by name"
								}

							}
, 							{
								"box" : 								{
									"bgcolor" : [ 0.4, 0.4, 0.8, 1.0 ],
									"id" : "obj-30",
									"maxclass" : "panel",
									"numinlets" : 1,
									"numoutlets" : 0,
									"patching_rect" : [ 419.0, 166.0, 146.0, 42.0 ],
									"rounded" : 10
								}

							}
, 							{
								"box" : 								{
									"fontname" : "Arial",
									"fontsize" : 36.0,
									"frgb" : 0.0,
									"id" : "obj-31",
									"maxclass" : "comment",
									"numinlets" : 1,
									"numoutlets" : 0,
									"patching_rect" : [ 28.0, 87.0, 100.0, 47.0 ],
									"text" : "1...",
									"textcolor" : [ 0.4, 0.4, 0.8, 1.0 ]
								}

							}
 ],
						"lines" : [ 							{
								"patchline" : 								{
									"color" : [ 0.4, 0.4, 0.8, 1.0 ],
									"destination" : [ "obj-12", 0 ],
									"disabled" : 0,
									"hidden" : 0,
									"source" : [ "obj-11", 0 ]
								}

							}
, 							{
								"patchline" : 								{
									"color" : [ 0.4, 0.4, 0.8, 1.0 ],
									"destination" : [ "obj-14", 0 ],
									"disabled" : 0,
									"hidden" : 0,
									"source" : [ "obj-13", 0 ]
								}

							}
, 							{
								"patchline" : 								{
									"destination" : [ "obj-24", 0 ],
									"disabled" : 0,
									"hidden" : 0,
									"source" : [ "obj-19", 0 ]
								}

							}
, 							{
								"patchline" : 								{
									"destination" : [ "obj-19", 0 ],
									"disabled" : 0,
									"hidden" : 0,
									"source" : [ "obj-21", 1 ]
								}

							}
, 							{
								"patchline" : 								{
									"destination" : [ "obj-20", 0 ],
									"disabled" : 0,
									"hidden" : 0,
									"source" : [ "obj-21", 0 ]
								}

							}
, 							{
								"patchline" : 								{
									"destination" : [ "obj-24", 0 ],
									"disabled" : 0,
									"hidden" : 0,
									"midpoints" : [ 212.0, 286.0, 212.0, 300.0 ],
									"source" : [ "obj-21", 2 ]
								}

							}
, 							{
								"patchline" : 								{
									"destination" : [ "obj-21", 0 ],
									"disabled" : 0,
									"hidden" : 0,
									"source" : [ "obj-22", 0 ]
								}

							}
, 							{
								"patchline" : 								{
									"destination" : [ "obj-21", 0 ],
									"disabled" : 0,
									"hidden" : 0,
									"source" : [ "obj-23", 0 ]
								}

							}
, 							{
								"patchline" : 								{
									"destination" : [ "obj-20", 0 ],
									"disabled" : 0,
									"hidden" : 0,
									"source" : [ "obj-24", 0 ]
								}

							}
, 							{
								"patchline" : 								{
									"destination" : [ "obj-27", 0 ],
									"disabled" : 0,
									"hidden" : 0,
									"source" : [ "obj-25", 1 ]
								}

							}
, 							{
								"patchline" : 								{
									"destination" : [ "obj-28", 0 ],
									"disabled" : 0,
									"hidden" : 0,
									"source" : [ "obj-25", 0 ]
								}

							}
, 							{
								"patchline" : 								{
									"destination" : [ "obj-25", 0 ],
									"disabled" : 0,
									"hidden" : 0,
									"source" : [ "obj-26", 1 ]
								}

							}
, 							{
								"patchline" : 								{
									"destination" : [ "obj-28", 0 ],
									"disabled" : 0,
									"hidden" : 0,
									"source" : [ "obj-27", 0 ]
								}

							}
, 							{
								"patchline" : 								{
									"destination" : [ "obj-4", 0 ],
									"disabled" : 0,
									"hidden" : 0,
									"source" : [ "obj-3", 0 ]
								}

							}
, 							{
								"patchline" : 								{
									"destination" : [ "obj-5", 0 ],
									"disabled" : 0,
									"hidden" : 0,
									"source" : [ "obj-4", 0 ]
								}

							}
 ]
					}
,
					"patching_rect" : [ 523.0, 289.0, 193.0, 22.0 ],
					"saved_object_attributes" : 					{
						"default_fontface" : 0,
						"default_fontname" : "Arial",
						"default_fontsize" : 12.0,
						"description" : "",
						"digest" : "",
						"fontface" : 0,
						"fontname" : "Arial",
						"fontsize" : 12.0,
						"globalpatchername" : "",
						"tags" : ""
					}
,
					"text" : "p storing-models-in-colls-2"
				}

			}
, 			{
				"box" : 				{
					"color" : [ 0.4, 0.4, 0.8, 1.0 ],
					"fontname" : "Arial",
					"fontsize" : 14.0,
					"id" : "obj-11",
					"maxclass" : "newobj",
					"numinlets" : 0,
					"numoutlets" : 0,
					"patcher" : 					{
						"fileversion" : 1,
						"appversion" : 						{
							"major" : 6,
							"minor" : 1,
							"revision" : 3,
							"architecture" : "x86"
						}
,
						"rect" : [ 712.0, 183.0, 373.0, 281.0 ],
						"bglocked" : 0,
						"openinpresentation" : 0,
						"default_fontsize" : 12.0,
						"default_fontface" : 0,
						"default_fontname" : "Arial",
						"gridonopen" : 0,
						"gridsize" : [ 8.0, 8.0 ],
						"gridsnaponopen" : 0,
						"statusbarvisible" : 2,
						"toolbarvisible" : 1,
						"boxanimatetime" : 200,
						"imprint" : 0,
						"enablehscroll" : 1,
						"enablevscroll" : 1,
						"devicewidth" : 0.0,
						"description" : "",
						"digest" : "",
						"tags" : "",
						"boxes" : [ 							{
								"box" : 								{
									"fgcolor" : [ 0.4, 0.4, 0.8, 1.0 ],
									"id" : "obj-1",
									"maxclass" : "button",
									"numinlets" : 1,
									"numoutlets" : 1,
									"outlettype" : [ "bang" ],
									"patching_rect" : [ 56.0, 101.0, 15.0, 15.0 ]
								}

							}
, 							{
								"box" : 								{
									"fontname" : "Arial",
									"fontsize" : 9.0,
									"id" : "obj-2",
									"maxclass" : "newobj",
									"numinlets" : 1,
									"numoutlets" : 3,
									"outlettype" : [ "float", "dump", "clear" ],
									"patching_rect" : [ 56.0, 126.0, 84.0, 17.0 ],
									"text" : "t 0.4 dump clear"
								}

							}
, 							{
								"box" : 								{
									"coll_data" : 									{
										"count" : 1,
										"data" : [ 											{
												"key" : "resonances",
												"value" : [ 41.5, 0.08, 0.388112, 83.400002, 0.4, 0.73463, 115.0, 0.3, 5.821497, 125.169998, 0.14, 0.93076, 126.300003, 0.18, 0.717288, 166.25, 0.07, 0.970249, 167.600006, 0.07, 0.831642, 207.270004, 0.03, 1.474098, 208.899994, 0.04, 1.171217, 248.899994, 0.02, 1.669536, 252.139999, 0.02, 1.512206, 286.399994, 0.0125, 1.925262, 287.399994, 0.0125, 1.512206, 333.299988, 0.0125, 1.512206, 335.100006, 0.0135, 0.900255, 375.0, 0.035, 1.670228, 376.799988, 0.035, 1.108857, 415.700012, 0.006, 1.17816, 418.799988, 0.007, 0.693035, 458.299988, 0.025, 4.075054, 461.600006, 0.025, 2.910748, 498.0, 0.007, 2.910748, 499.0, 0.008, 0.977192, 543.0, 0.006, 5.544283, 546.0, 0.0065, 2.910748, 586.0, 0.0125, 11.088566, 591.0, 0.0125, 3.32657, 627.0, 0.0045, 3.645379, 631.0, 0.0045, 2.910748, 667.0, 0.00125, 4.075054, 673.0, 0.00125, 2.2, 710.0, 0.0015, 5.329429, 713.0, 0.0015, 2.307814, 752.0, 0.0015, 2.349377, 757.0, 0.0065, 19.557446, 793.0, 0.001, 4.892842, 796.0, 0.002, 7.297668, 835.0, 0.00075, 1.884956, 840.0, 0.0017, 7.33232, 875.0, 0.003, 2.633534, 876.700012, 0.006, 8.385727, 917.0, 0.002, 8.870852, 957.299988, 0.003, 8.385727, 968.0, 0.002, 3.880998, 1002.0, 0.002594, 5.472906, 1043.900024, 0.002174, 5.73171, 1086.199951, 0.001819, 6.005406, 1126.099976, 0.001537, 6.27552, 1170.0, 0.001277, 6.586789, 1212.0, 0.00107, 6.9, 1254.0, 0.000896, 7.226071, 1291.0, 0.000766, 7.526973, 1332.0, 0.000645, 7.875093, 1377.0, 0.000533, 8.275741, 1419.0, 0.000447, 8.668032, 1462.0, 0.000373, 9.088942, 1504.0, 0.000312, 9.519773, 1546.0, 0.000261, 9.971066, 1587.0, 0.00022, 10.43222 ]
											}
 ]
									}
,
									"fontname" : "Arial",
									"fontsize" : 9.0,
									"id" : "obj-3",
									"maxclass" : "newobj",
									"numinlets" : 1,
									"numoutlets" : 4,
									"outlettype" : [ "", "", "", "" ],
									"patching_rect" : [ 93.0, 150.0, 40.0, 17.0 ],
									"saved_object_attributes" : 									{
										"embed" : 1
									}
,
									"text" : "coll"
								}

							}
, 							{
								"box" : 								{
									"bgcolor" : [ 0.611765, 0.701961, 1.0, 1.0 ],
									"fontname" : "Arial",
									"fontsize" : 9.0,
									"id" : "obj-4",
									"maxclass" : "message",
									"numinlets" : 2,
									"numoutlets" : 1,
									"outlettype" : [ "" ],
									"patching_rect" : [ 10.0, 50.0, 323.0, 15.0 ],
									"text" : "241.5 0.08 0.4 383.4 0.4 0.73 1115. 0.3 5.8 925.18 0.14 0.93, 0.3"
								}

							}
, 							{
								"box" : 								{
									"fontname" : "Arial",
									"fontsize" : 9.0,
									"id" : "obj-5",
									"maxclass" : "newobj",
									"numinlets" : 1,
									"numoutlets" : 0,
									"patching_rect" : [ 10.0, 206.0, 90.0, 17.0 ],
									"text" : "s resonators-help"
								}

							}
, 							{
								"box" : 								{
									"fontname" : "Arial",
									"fontsize" : 9.0,
									"frgb" : 0.0,
									"id" : "obj-6",
									"maxclass" : "comment",
									"numinlets" : 1,
									"numoutlets" : 0,
									"patching_rect" : [ 10.0, 32.0, 341.0, 17.0 ],
									"text" : "Message boxes are unwieldy for models with more than a few resonances."
								}

							}
, 							{
								"box" : 								{
									"fontname" : "Arial",
									"fontsize" : 9.0,
									"frgb" : 0.0,
									"id" : "obj-7",
									"linecount" : 3,
									"maxclass" : "comment",
									"numinlets" : 1,
									"numoutlets" : 0,
									"patching_rect" : [ 144.0, 129.0, 157.0, 37.0 ],
									"text" : "Collections can be used to store lists of floats and provide a textual way to view and edit resonance models."
								}

							}
 ],
						"lines" : [ 							{
								"patchline" : 								{
									"destination" : [ "obj-2", 0 ],
									"disabled" : 0,
									"hidden" : 0,
									"source" : [ "obj-1", 0 ]
								}

							}
, 							{
								"patchline" : 								{
									"destination" : [ "obj-3", 0 ],
									"disabled" : 0,
									"hidden" : 0,
									"source" : [ "obj-2", 1 ]
								}

							}
, 							{
								"patchline" : 								{
									"destination" : [ "obj-5", 0 ],
									"disabled" : 0,
									"hidden" : 0,
									"midpoints" : [ 130.5, 191.0, 19.5, 191.0 ],
									"source" : [ "obj-2", 2 ]
								}

							}
, 							{
								"patchline" : 								{
									"destination" : [ "obj-5", 0 ],
									"disabled" : 0,
									"hidden" : 0,
									"midpoints" : [ 65.5, 191.0, 19.5, 191.0 ],
									"source" : [ "obj-2", 0 ]
								}

							}
, 							{
								"patchline" : 								{
									"destination" : [ "obj-5", 0 ],
									"disabled" : 0,
									"hidden" : 0,
									"midpoints" : [ 102.5, 191.0, 19.5, 191.0 ],
									"source" : [ "obj-3", 0 ]
								}

							}
, 							{
								"patchline" : 								{
									"destination" : [ "obj-5", 0 ],
									"disabled" : 0,
									"hidden" : 0,
									"source" : [ "obj-4", 0 ]
								}

							}
 ]
					}
,
					"patching_rect" : [ 523.0, 259.0, 179.0, 22.0 ],
					"saved_object_attributes" : 					{
						"default_fontface" : 0,
						"default_fontname" : "Arial",
						"default_fontsize" : 12.0,
						"description" : "",
						"digest" : "",
						"fontface" : 0,
						"fontname" : "Arial",
						"fontsize" : 12.0,
						"globalpatchername" : "",
						"tags" : ""
					}
,
					"text" : "p storing-models-in-colls"
				}

			}
, 			{
				"box" : 				{
					"fontname" : "Arial",
					"fontsize" : 9.0,
					"id" : "obj-12",
					"maxclass" : "message",
					"numinlets" : 2,
					"numoutlets" : 1,
					"outlettype" : [ "" ],
					"patching_rect" : [ 98.0, 394.0, 27.0, 15.0 ],
					"text" : "stop"
				}

			}
, 			{
				"box" : 				{
					"fontname" : "Arial",
					"fontsize" : 9.0,
					"id" : "obj-13",
					"maxclass" : "message",
					"numinlets" : 2,
					"numoutlets" : 1,
					"outlettype" : [ "" ],
					"patching_rect" : [ 26.0, 394.0, 65.0, 15.0 ],
					"text" : "startwindow"
				}

			}
, 			{
				"box" : 				{
					"fontname" : "Arial",
					"fontsize" : 9.0,
					"frgb" : 0.0,
					"id" : "obj-14",
					"maxclass" : "comment",
					"numinlets" : 1,
					"numoutlets" : 0,
					"patching_rect" : [ 29.0, 380.0, 75.0, 17.0 ],
					"text" : "start audio"
				}

			}
, 			{
				"box" : 				{
					"bgcolor" : [ 1.0, 1.0, 1.0, 1.0 ],
					"border" : 2,
					"bordercolor" : [ 0.4, 0.4, 0.8, 1.0 ],
					"id" : "obj-15",
					"maxclass" : "panel",
					"numinlets" : 1,
					"numoutlets" : 0,
					"patching_rect" : [ 13.0, 373.0, 123.0, 43.0 ],
					"rounded" : 0
				}

			}
, 			{
				"box" : 				{
					"fontname" : "Arial",
					"fontsize" : 9.0,
					"frgb" : 0.0,
					"id" : "obj-30",
					"linecount" : 2,
					"maxclass" : "comment",
					"numinlets" : 1,
					"numoutlets" : 0,
					"patching_rect" : [ 417.0, 40.0, 267.0, 27.0 ],
					"text" : "A bank of 2-pole resonating filters with common input (the inlet) and outputs summed together (outlet)"
				}

			}
, 			{
				"box" : 				{
					"fontname" : "Arial",
					"fontsize" : 9.0,
					"frgb" : 0.0,
					"id" : "obj-31",
					"maxclass" : "comment",
					"numinlets" : 1,
					"numoutlets" : 0,
					"patching_rect" : [ 414.0, 24.0, 192.0, 17.0 ],
					"text" : "Resonant filter bank"
				}

			}
, 			{
				"box" : 				{
					"fontname" : "Arial",
					"fontsize" : 18.0,
					"frgb" : 0.0,
					"id" : "obj-32",
					"maxclass" : "comment",
					"numinlets" : 1,
					"numoutlets" : 0,
					"patching_rect" : [ 410.0, 0.0, 185.0, 27.0 ],
					"text" : "basicresonators~",
					"textcolor" : [ 0.4, 0.4, 0.8, 1.0 ]
				}

			}
, 			{
				"box" : 				{
					"fontname" : "Arial",
					"fontsize" : 9.0,
					"id" : "obj-34",
					"maxclass" : "newobj",
					"numinlets" : 0,
					"numoutlets" : 0,
					"patcher" : 					{
						"fileversion" : 1,
						"appversion" : 						{
							"major" : 6,
							"minor" : 1,
							"revision" : 3,
							"architecture" : "x86"
						}
,
						"rect" : [ 40.0, 55.0, 324.0, 337.0 ],
						"bglocked" : 0,
						"openinpresentation" : 0,
						"default_fontsize" : 12.0,
						"default_fontface" : 0,
						"default_fontname" : "Arial",
						"gridonopen" : 0,
						"gridsize" : [ 8.0, 8.0 ],
						"gridsnaponopen" : 0,
						"statusbarvisible" : 2,
						"toolbarvisible" : 1,
						"boxanimatetime" : 200,
						"imprint" : 0,
						"enablehscroll" : 1,
						"enablevscroll" : 1,
						"devicewidth" : 0.0,
						"description" : "",
						"digest" : "",
						"tags" : "",
						"boxes" : [ 							{
								"box" : 								{
									"fontname" : "Arial",
									"fontsize" : 9.0,
									"id" : "obj-1",
									"maxclass" : "message",
									"numinlets" : 2,
									"numoutlets" : 1,
									"outlettype" : [ "" ],
									"patching_rect" : [ 101.0, 272.0, 65.0, 15.0 ],
									"text" : "startwindow"
								}

							}
, 							{
								"box" : 								{
									"fontname" : "Arial",
									"fontsize" : 9.0,
									"id" : "obj-2",
									"maxclass" : "newobj",
									"numinlets" : 2,
									"numoutlets" : 0,
									"patching_rect" : [ 101.0, 293.0, 29.0, 17.0 ],
									"text" : "dac~"
								}

							}
, 							{
								"box" : 								{
									"bgcolor" : [ 0.866667, 0.866667, 0.866667, 1.0 ],
									"fontname" : "Arial",
									"fontsize" : 9.0,
									"htextcolor" : [ 0.870588, 0.870588, 0.870588, 1.0 ],
									"id" : "obj-3",
									"interval" : 250.0,
									"maxclass" : "number~",
									"mode" : 2,
									"numinlets" : 2,
									"numoutlets" : 2,
									"outlettype" : [ "signal", "float" ],
									"patching_rect" : [ 77.0, 241.0, 51.0, 17.0 ],
									"sig" : 0.0
								}

							}
, 							{
								"box" : 								{
									"bgcolor" : [ 0.866667, 0.866667, 0.866667, 1.0 ],
									"fontname" : "Arial",
									"fontsize" : 9.0,
									"htextcolor" : [ 0.870588, 0.870588, 0.870588, 1.0 ],
									"id" : "obj-4",
									"interval" : 250.0,
									"maxclass" : "number~",
									"mode" : 2,
									"numinlets" : 2,
									"numoutlets" : 2,
									"outlettype" : [ "signal", "float" ],
									"patching_rect" : [ 23.0, 241.0, 51.0, 17.0 ],
									"sig" : 0.0
								}

							}
, 							{
								"box" : 								{
									"fontname" : "Arial",
									"fontsize" : 9.0,
									"id" : "obj-5",
									"maxclass" : "newobj",
									"numinlets" : 2,
									"numoutlets" : 4,
									"outlettype" : [ "signal", "signal", "float", "float" ],
									"patching_rect" : [ 23.0, 218.0, 53.0, 17.0 ],
									"text" : "minmax~"
								}

							}
, 							{
								"box" : 								{
									"fontname" : "Arial",
									"fontsize" : 9.0,
									"id" : "obj-6",
									"maxclass" : "newobj",
									"numinlets" : 2,
									"numoutlets" : 1,
									"outlettype" : [ "signal" ],
									"patching_rect" : [ 23.0, 177.0, 42.0, 17.0 ],
									"text" : "*~ 100"
								}

							}
, 							{
								"box" : 								{
									"fontname" : "Arial",
									"fontsize" : 9.0,
									"id" : "obj-7",
									"maxclass" : "newobj",
									"numinlets" : 1,
									"numoutlets" : 1,
									"outlettype" : [ "" ],
									"patching_rect" : [ 23.0, 197.0, 124.0, 17.0 ],
									"text" : "basicresonators~ 480. 0.5 1."
								}

							}
, 							{
								"box" : 								{
									"fontname" : "Arial",
									"fontsize" : 9.0,
									"id" : "obj-8",
									"linecount" : 2,
									"maxclass" : "newobj",
									"numinlets" : 1,
									"numoutlets" : 1,
									"outlettype" : [ "signal" ],
									"patching_rect" : [ 23.0, 156.0, 34.0, 27.0 ],
									"text" : "noise~"
								}

							}
, 							{
								"box" : 								{
									"bgcolor" : [ 0.866667, 0.866667, 0.866667, 1.0 ],
									"fontname" : "Arial",
									"fontsize" : 9.0,
									"htextcolor" : [ 0.870588, 0.870588, 0.870588, 1.0 ],
									"id" : "obj-9",
									"interval" : 250.0,
									"maxclass" : "number~",
									"mode" : 2,
									"numinlets" : 2,
									"numoutlets" : 2,
									"outlettype" : [ "signal", "float" ],
									"patching_rect" : [ 209.0, 242.0, 51.0, 17.0 ],
									"sig" : 0.0
								}

							}
, 							{
								"box" : 								{
									"bgcolor" : [ 0.866667, 0.866667, 0.866667, 1.0 ],
									"fontname" : "Arial",
									"fontsize" : 9.0,
									"htextcolor" : [ 0.870588, 0.870588, 0.870588, 1.0 ],
									"id" : "obj-10",
									"interval" : 250.0,
									"maxclass" : "number~",
									"mode" : 2,
									"numinlets" : 2,
									"numoutlets" : 2,
									"outlettype" : [ "signal", "float" ],
									"patching_rect" : [ 155.0, 242.0, 51.0, 17.0 ],
									"sig" : 0.0
								}

							}
, 							{
								"box" : 								{
									"fontname" : "Arial",
									"fontsize" : 9.0,
									"id" : "obj-11",
									"maxclass" : "newobj",
									"numinlets" : 2,
									"numoutlets" : 4,
									"outlettype" : [ "signal", "signal", "float", "float" ],
									"patching_rect" : [ 155.0, 219.0, 53.0, 17.0 ],
									"text" : "minmax~"
								}

							}
, 							{
								"box" : 								{
									"fontname" : "Arial",
									"fontsize" : 9.0,
									"id" : "obj-12",
									"maxclass" : "newobj",
									"numinlets" : 2,
									"numoutlets" : 1,
									"outlettype" : [ "signal" ],
									"patching_rect" : [ 155.0, 178.0, 42.0, 17.0 ],
									"text" : "*~ 100"
								}

							}
, 							{
								"box" : 								{
									"fontname" : "Arial",
									"fontsize" : 9.0,
									"id" : "obj-13",
									"maxclass" : "newobj",
									"numinlets" : 1,
									"numoutlets" : 1,
									"outlettype" : [ "" ],
									"patching_rect" : [ 155.0, 198.0, 124.0, 17.0 ],
									"text" : "basicresonators~ 480. 0.5 1."
								}

							}
, 							{
								"box" : 								{
									"fontname" : "Arial",
									"fontsize" : 9.0,
									"id" : "obj-14",
									"maxclass" : "newobj",
									"numinlets" : 2,
									"numoutlets" : 1,
									"outlettype" : [ "signal" ],
									"patching_rect" : [ 155.0, 157.0, 62.0, 17.0 ],
									"text" : "cycle~ 480."
								}

							}
, 							{
								"box" : 								{
									"fontname" : "Arial",
									"fontsize" : 9.0,
									"frgb" : 0.0,
									"id" : "obj-15",
									"linecount" : 5,
									"maxclass" : "comment",
									"numinlets" : 1,
									"numoutlets" : 0,
									"patching_rect" : [ 13.0, 69.0, 275.0, 57.0 ],
									"text" : "Unless your model has lots of very wide resonances, you'll probably have to boost input signals a lot to hear them. The issue is that only the spectral energy that lines up with the filters will appear in the output. But beware: energy focused at the same frequency as a resonance will come through loud and clear."
								}

							}
, 							{
								"box" : 								{
									"fontname" : "Arial",
									"fontsize" : 9.0,
									"frgb" : 0.0,
									"id" : "obj-16",
									"linecount" : 2,
									"maxclass" : "comment",
									"numinlets" : 1,
									"numoutlets" : 0,
									"patching_rect" : [ 12.0, 37.0, 269.0, 27.0 ],
									"text" : "Why does this example multiply the noise~ amplitude by 100 before passing the signal through the resonant filter?"
								}

							}
 ],
						"lines" : [ 							{
								"patchline" : 								{
									"destination" : [ "obj-2", 0 ],
									"disabled" : 0,
									"hidden" : 0,
									"source" : [ "obj-1", 0 ]
								}

							}
, 							{
								"patchline" : 								{
									"destination" : [ "obj-10", 0 ],
									"disabled" : 0,
									"hidden" : 0,
									"source" : [ "obj-11", 0 ]
								}

							}
, 							{
								"patchline" : 								{
									"destination" : [ "obj-9", 0 ],
									"disabled" : 0,
									"hidden" : 0,
									"source" : [ "obj-11", 1 ]
								}

							}
, 							{
								"patchline" : 								{
									"destination" : [ "obj-13", 0 ],
									"disabled" : 0,
									"hidden" : 0,
									"source" : [ "obj-12", 0 ]
								}

							}
, 							{
								"patchline" : 								{
									"destination" : [ "obj-11", 0 ],
									"disabled" : 0,
									"hidden" : 0,
									"source" : [ "obj-13", 0 ]
								}

							}
, 							{
								"patchline" : 								{
									"destination" : [ "obj-12", 0 ],
									"disabled" : 0,
									"hidden" : 0,
									"source" : [ "obj-14", 0 ]
								}

							}
, 							{
								"patchline" : 								{
									"destination" : [ "obj-3", 0 ],
									"disabled" : 0,
									"hidden" : 0,
									"source" : [ "obj-5", 1 ]
								}

							}
, 							{
								"patchline" : 								{
									"destination" : [ "obj-4", 0 ],
									"disabled" : 0,
									"hidden" : 0,
									"source" : [ "obj-5", 0 ]
								}

							}
, 							{
								"patchline" : 								{
									"destination" : [ "obj-7", 0 ],
									"disabled" : 0,
									"hidden" : 0,
									"source" : [ "obj-6", 0 ]
								}

							}
, 							{
								"patchline" : 								{
									"destination" : [ "obj-5", 0 ],
									"disabled" : 0,
									"hidden" : 0,
									"source" : [ "obj-7", 0 ]
								}

							}
, 							{
								"patchline" : 								{
									"destination" : [ "obj-6", 0 ],
									"disabled" : 0,
									"hidden" : 0,
									"source" : [ "obj-8", 0 ]
								}

							}
 ]
					}
,
					"patching_rect" : [ 362.0, 159.0, 41.0, 17.0 ],
					"saved_object_attributes" : 					{
						"default_fontface" : 0,
						"default_fontname" : "Arial",
						"default_fontsize" : 12.0,
						"description" : "",
						"digest" : "",
						"fontface" : 0,
						"fontname" : "Arial",
						"fontsize" : 12.0,
						"globalpatchername" : "",
						"tags" : ""
					}
,
					"text" : "p why?"
				}

			}
, 			{
				"box" : 				{
					"bgcolor" : [ 0.611765, 0.701961, 1.0, 1.0 ],
					"fontname" : "Arial",
					"fontsize" : 9.0,
					"id" : "obj-35",
					"maxclass" : "message",
					"numinlets" : 2,
					"numoutlets" : 1,
					"outlettype" : [ "" ],
					"patching_rect" : [ 317.0, 259.0, 179.0, 15.0 ],
					"text" : "640. 0.5 4. 843.5 0.4 2. 2041. 0.3 8."
				}

			}
, 			{
				"box" : 				{
					"id" : "obj-36",
					"maxclass" : "toggle",
					"numinlets" : 1,
					"numoutlets" : 1,
					"outlettype" : [ "int" ],
					"parameter_enable" : 0,
					"patching_rect" : [ 274.0, 159.0, 15.0, 15.0 ]
				}

			}
, 			{
				"box" : 				{
					"fontname" : "Arial",
					"fontsize" : 9.0,
					"id" : "obj-37",
					"maxclass" : "newobj",
					"numinlets" : 2,
					"numoutlets" : 1,
					"outlettype" : [ "signal" ],
					"patching_rect" : [ 274.0, 180.0, 51.0, 17.0 ],
					"text" : "selector~"
				}

			}
, 			{
				"box" : 				{
					"fontname" : "Arial",
					"fontsize" : 9.0,
					"id" : "obj-38",
					"maxclass" : "newobj",
					"numinlets" : 2,
					"numoutlets" : 1,
					"outlettype" : [ "signal" ],
					"patching_rect" : [ 315.0, 159.0, 45.0, 17.0 ],
					"text" : "*~ 100."
				}

			}
, 			{
				"box" : 				{
					"fontname" : "Arial",
					"fontsize" : 9.0,
					"id" : "obj-39",
					"maxclass" : "newobj",
					"numinlets" : 1,
					"numoutlets" : 1,
					"outlettype" : [ "signal" ],
					"patching_rect" : [ 315.0, 139.0, 36.0, 17.0 ],
					"text" : "noise~"
				}

			}
, 			{
				"box" : 				{
					"bgcolor" : [ 0.6, 0.6, 1.0, 1.0 ],
					"fontname" : "Arial",
					"fontsize" : 9.0,
					"id" : "obj-40",
					"maxclass" : "message",
					"numinlets" : 2,
					"numoutlets" : 1,
					"outlettype" : [ "" ],
					"patching_rect" : [ 317.0, 303.0, 31.0, 15.0 ],
					"text" : "clear"
				}

			}
, 			{
				"box" : 				{
					"fontname" : "Arial",
					"fontsize" : 9.0,
					"id" : "obj-41",
					"maxclass" : "newobj",
					"numinlets" : 1,
					"numoutlets" : 1,
					"outlettype" : [ "bang" ],
					"patching_rect" : [ 21.0, 145.0, 47.0, 17.0 ],
					"text" : "loadbang"
				}

			}
, 			{
				"box" : 				{
					"id" : "obj-42",
					"maxclass" : "toggle",
					"numinlets" : 1,
					"numoutlets" : 1,
					"outlettype" : [ "int" ],
					"parameter_enable" : 0,
					"patching_rect" : [ 21.0, 166.0, 15.0, 15.0 ]
				}

			}
, 			{
				"box" : 				{
					"fontname" : "Arial",
					"fontsize" : 9.0,
					"id" : "obj-43",
					"maxclass" : "newobj",
					"numinlets" : 2,
					"numoutlets" : 1,
					"outlettype" : [ "bang" ],
					"patching_rect" : [ 21.0, 185.0, 55.0, 17.0 ],
					"text" : "metro 600"
				}

			}
, 			{
				"box" : 				{
					"bgcolor" : [ 0.6, 0.6, 1.0, 1.0 ],
					"fontname" : "Arial",
					"fontsize" : 9.0,
					"id" : "obj-44",
					"maxclass" : "message",
					"numinlets" : 2,
					"numoutlets" : 1,
					"outlettype" : [ "" ],
					"patching_rect" : [ 21.0, 213.0, 23.0, 15.0 ],
					"text" : "0.5"
				}

			}
, 			{
				"box" : 				{
					"bgcolor" : [ 0.611765, 0.701961, 1.0, 1.0 ],
					"fontname" : "Arial",
					"fontsize" : 9.0,
					"id" : "obj-45",
					"maxclass" : "message",
					"numinlets" : 2,
					"numoutlets" : 1,
					"outlettype" : [ "" ],
					"patching_rect" : [ 317.0, 238.0, 131.0, 15.0 ],
					"text" : "540. 0.5 4. 543.5 0.4 2."
				}

			}
, 			{
				"box" : 				{
					"fontname" : "Arial",
					"fontsize" : 9.0,
					"id" : "obj-46",
					"maxclass" : "newobj",
					"numinlets" : 2,
					"numoutlets" : 0,
					"patching_rect" : [ 145.0, 436.0, 29.0, 17.0 ],
					"text" : "dac~"
				}

			}
, 			{
				"box" : 				{
					"color" : [ 1.0, 0.890196, 0.090196, 1.0 ],
					"fontname" : "Arial",
					"fontsize" : 9.0,
					"id" : "obj-47",
					"maxclass" : "newobj",
					"numinlets" : 1,
					"numoutlets" : 1,
					"outlettype" : [ "" ],
					"patching_rect" : [ 145.0, 406.0, 142.0, 17.0 ],
					"text" : "basicresonators~ 480. 0.5 1."
				}

			}
, 			{
				"box" : 				{
					"fontname" : "Arial",
					"fontsize" : 9.0,
					"frgb" : 0.0,
					"id" : "obj-48",
					"linecount" : 2,
					"maxclass" : "comment",
					"numinlets" : 1,
					"numoutlets" : 0,
					"patching_rect" : [ 52.0, 209.0, 71.0, 27.0 ],
					"text" : "Float: Impulse amplitude"
				}

			}
, 			{
				"box" : 				{
					"fontname" : "Arial",
					"fontsize" : 9.0,
					"frgb" : 0.0,
					"id" : "obj-49",
					"maxclass" : "comment",
					"numinlets" : 1,
					"numoutlets" : 0,
					"patching_rect" : [ 317.0, 222.0, 164.0, 17.0 ],
					"text" : "frequency, gain, decayrate triples"
				}

			}
, 			{
				"box" : 				{
					"fontname" : "Arial",
					"fontsize" : 9.0,
					"frgb" : 0.0,
					"id" : "obj-50",
					"maxclass" : "comment",
					"numinlets" : 1,
					"numoutlets" : 0,
					"patching_rect" : [ 354.0, 304.0, 138.0, 17.0 ],
					"text" : "set filter state variables to 0"
				}

			}
, 			{
				"box" : 				{
					"fontname" : "Arial",
					"fontsize" : 9.0,
					"frgb" : 0.0,
					"id" : "obj-51",
					"maxclass" : "comment",
					"numinlets" : 1,
					"numoutlets" : 0,
					"patching_rect" : [ 327.0, 182.0, 100.0, 17.0 ],
					"text" : "Excitation signal"
				}

			}
 ],
		"lines" : [ 			{
				"patchline" : 				{
					"destination" : [ "obj-2", 0 ],
					"disabled" : 0,
					"hidden" : 0,
					"source" : [ "obj-1", 0 ]
				}

			}
, 			{
				"patchline" : 				{
					"destination" : [ "obj-46", 0 ],
					"disabled" : 0,
					"hidden" : 0,
					"midpoints" : [ 107.5, 429.0, 154.5, 429.0 ],
					"source" : [ "obj-12", 0 ]
				}

			}
, 			{
				"patchline" : 				{
					"destination" : [ "obj-46", 0 ],
					"disabled" : 0,
					"hidden" : 0,
					"midpoints" : [ 35.5, 429.0, 154.5, 429.0 ],
					"source" : [ "obj-13", 0 ]
				}

			}
, 			{
				"patchline" : 				{
					"destination" : [ "obj-3", 0 ],
					"disabled" : 0,
					"hidden" : 0,
					"source" : [ "obj-2", 0 ]
				}

			}
, 			{
				"patchline" : 				{
					"destination" : [ "obj-4", 0 ],
					"disabled" : 0,
					"hidden" : 0,
					"source" : [ "obj-3", 0 ]
				}

			}
, 			{
				"patchline" : 				{
					"destination" : [ "obj-47", 0 ],
					"disabled" : 0,
					"hidden" : 0,
					"midpoints" : [ 326.5, 275.0, 154.5, 275.0 ],
					"source" : [ "obj-35", 0 ]
				}

			}
, 			{
				"patchline" : 				{
					"destination" : [ "obj-37", 0 ],
					"disabled" : 0,
					"hidden" : 0,
					"source" : [ "obj-36", 0 ]
				}

			}
, 			{
				"patchline" : 				{
					"destination" : [ "obj-47", 0 ],
					"disabled" : 0,
					"hidden" : 0,
					"source" : [ "obj-37", 0 ]
				}

			}
, 			{
				"patchline" : 				{
					"destination" : [ "obj-37", 1 ],
					"disabled" : 0,
					"hidden" : 0,
					"source" : [ "obj-38", 0 ]
				}

			}
, 			{
				"patchline" : 				{
					"destination" : [ "obj-38", 0 ],
					"disabled" : 0,
					"hidden" : 0,
					"source" : [ "obj-39", 0 ]
				}

			}
, 			{
				"patchline" : 				{
					"destination" : [ "obj-5", 0 ],
					"disabled" : 0,
					"hidden" : 0,
					"midpoints" : [ 194.0, 198.0 ],
					"source" : [ "obj-4", 0 ]
				}

			}
, 			{
				"patchline" : 				{
					"destination" : [ "obj-47", 0 ],
					"disabled" : 0,
					"hidden" : 0,
					"midpoints" : [ 326.5, 316.0, 154.5, 316.0 ],
					"source" : [ "obj-40", 0 ]
				}

			}
, 			{
				"patchline" : 				{
					"destination" : [ "obj-42", 0 ],
					"disabled" : 0,
					"hidden" : 0,
					"source" : [ "obj-41", 0 ]
				}

			}
, 			{
				"patchline" : 				{
					"destination" : [ "obj-43", 0 ],
					"disabled" : 0,
					"hidden" : 0,
					"source" : [ "obj-42", 0 ]
				}

			}
, 			{
				"patchline" : 				{
					"destination" : [ "obj-44", 0 ],
					"disabled" : 0,
					"hidden" : 0,
					"source" : [ "obj-43", 0 ]
				}

			}
, 			{
				"patchline" : 				{
					"destination" : [ "obj-47", 0 ],
					"disabled" : 0,
					"hidden" : 0,
					"midpoints" : [ 91.0, 250.0 ],
					"source" : [ "obj-44", 0 ]
				}

			}
, 			{
				"patchline" : 				{
					"destination" : [ "obj-47", 0 ],
					"disabled" : 0,
					"hidden" : 0,
					"midpoints" : [ 326.5, 251.0, 154.5, 251.0 ],
					"source" : [ "obj-45", 0 ]
				}

			}
, 			{
				"patchline" : 				{
					"destination" : [ "obj-46", 0 ],
					"disabled" : 0,
					"hidden" : 0,
					"source" : [ "obj-47", 0 ]
				}

			}
, 			{
				"patchline" : 				{
					"destination" : [ "obj-46", 1 ],
					"disabled" : 0,
					"hidden" : 0,
					"source" : [ "obj-5", 0 ]
				}

			}
, 			{
				"patchline" : 				{
					"destination" : [ "obj-47", 0 ],
					"disabled" : 0,
					"hidden" : 0,
					"midpoints" : [ 239.5, 397.0, 154.5, 397.0 ],
					"source" : [ "obj-8", 0 ]
				}

			}
 ],
		"dependency_cache" : [  ]
	}

}
