{
	"patcher" : 	{
		"fileversion" : 1,
		"rect" : [ -1395.0, 121.0, 1208.0, 815.0 ],
		"bglocked" : 0,
		"defrect" : [ -1395.0, 121.0, 1208.0, 815.0 ],
		"openrect" : [ 0.0, 0.0, 0.0, 0.0 ],
		"openinpresentation" : 0,
		"default_fontsize" : 12.0,
		"default_fontface" : 0,
		"default_fontname" : "Arial",
		"gridonopen" : 0,
		"gridsize" : [ 10.0, 10.0 ],
		"gridsnaponopen" : 0,
		"toolbarvisible" : 1,
		"boxanimatetime" : 200,
		"imprint" : 0,
		"boxes" : [ 			{
				"box" : 				{
					"maxclass" : "newobj",
					"text" : "print",
					"numinlets" : 1,
					"numoutlets" : 0,
					"id" : "obj-11",
					"fontname" : "Arial",
					"fontsize" : 11.595187,
					"patching_rect" : [ 530.0, 390.0, 33.0, 20.0 ]
				}

			}
, 			{
				"box" : 				{
					"maxclass" : "jit.pwindow",
					"numinlets" : 1,
					"numoutlets" : 2,
					"id" : "obj-2",
					"outlettype" : [ "", "" ],
					"patching_rect" : [ 230.0, 180.0, 325.0, 200.0 ],
					"name" : "crap"
				}

			}
, 			{
				"box" : 				{
					"maxclass" : "jit.fpsgui",
					"numinlets" : 1,
					"numoutlets" : 2,
					"id" : "obj-52",
					"fontname" : "Arial",
					"outlettype" : [ "", "" ],
					"fontsize" : 11.595187,
					"patching_rect" : [ 80.0, 340.0, 80.0, 35.0 ]
				}

			}
, 			{
				"box" : 				{
					"maxclass" : "number",
					"numinlets" : 1,
					"numoutlets" : 2,
					"id" : "obj-120",
					"fontname" : "Arial",
					"outlettype" : [ "int", "bang" ],
					"triscale" : 0.9,
					"fontsize" : 11.595187,
					"patching_rect" : [ 74.0, 258.0, 50.0, 20.0 ]
				}

			}
, 			{
				"box" : 				{
					"maxclass" : "toggle",
					"numinlets" : 1,
					"numoutlets" : 1,
					"id" : "obj-123",
					"outlettype" : [ "int" ],
					"patching_rect" : [ 30.0, 258.0, 20.0, 20.0 ]
				}

			}
, 			{
				"box" : 				{
					"maxclass" : "newobj",
					"text" : "qmetro 20",
					"numinlets" : 2,
					"numoutlets" : 1,
					"id" : "obj-124",
					"fontname" : "Arial",
					"outlettype" : [ "bang" ],
					"fontsize" : 11.595187,
					"patching_rect" : [ 30.0, 284.0, 63.0, 20.0 ]
				}

			}
, 			{
				"box" : 				{
					"maxclass" : "newobj",
					"text" : "t b erase b",
					"numinlets" : 1,
					"numoutlets" : 3,
					"id" : "obj-125",
					"fontname" : "Arial",
					"outlettype" : [ "bang", "erase", "bang" ],
					"fontsize" : 11.595187,
					"patching_rect" : [ 30.0, 310.0, 63.0, 20.0 ]
				}

			}
, 			{
				"box" : 				{
					"maxclass" : "newobj",
					"text" : "jit.gl.render crap",
					"numinlets" : 1,
					"numoutlets" : 2,
					"id" : "obj-13",
					"fontname" : "Arial",
					"outlettype" : [ "bang", "" ],
					"fontsize" : 12.0,
					"patching_rect" : [ 30.0, 380.0, 97.0, 20.0 ]
				}

			}
, 			{
				"box" : 				{
					"maxclass" : "newobj",
					"text" : "mxj bpf @drawto crap",
					"numinlets" : 1,
					"numoutlets" : 1,
					"id" : "obj-1",
					"fontname" : "Arial",
					"outlettype" : [ "" ],
					"fontsize" : 12.0,
					"patching_rect" : [ 230.0, 80.0, 127.0, 20.0 ]
				}

			}
 ],
		"lines" : [ 			{
				"patchline" : 				{
					"source" : [ "obj-2", 1 ],
					"destination" : [ "obj-1", 0 ],
					"hidden" : 0,
					"midpoints" : [ 592.0, 390.0, 703.0, 231.0, 420.0, 49.0 ]
				}

			}
, 			{
				"patchline" : 				{
					"source" : [ "obj-2", 1 ],
					"destination" : [ "obj-11", 0 ],
					"hidden" : 0,
					"midpoints" : [  ]
				}

			}
, 			{
				"patchline" : 				{
					"source" : [ "obj-125", 0 ],
					"destination" : [ "obj-13", 0 ],
					"hidden" : 0,
					"midpoints" : [  ]
				}

			}
, 			{
				"patchline" : 				{
					"source" : [ "obj-125", 1 ],
					"destination" : [ "obj-13", 0 ],
					"hidden" : 0,
					"midpoints" : [  ]
				}

			}
, 			{
				"patchline" : 				{
					"source" : [ "obj-124", 0 ],
					"destination" : [ "obj-125", 0 ],
					"hidden" : 0,
					"midpoints" : [  ]
				}

			}
, 			{
				"patchline" : 				{
					"source" : [ "obj-120", 0 ],
					"destination" : [ "obj-124", 1 ],
					"hidden" : 0,
					"midpoints" : [  ]
				}

			}
, 			{
				"patchline" : 				{
					"source" : [ "obj-123", 0 ],
					"destination" : [ "obj-124", 0 ],
					"hidden" : 0,
					"midpoints" : [  ]
				}

			}
, 			{
				"patchline" : 				{
					"source" : [ "obj-125", 2 ],
					"destination" : [ "obj-52", 0 ],
					"hidden" : 0,
					"midpoints" : [  ]
				}

			}
 ]
	}

}
