{
	"patcher" : 	{
		"fileversion" : 1,
		"rect" : [ 217.0, 45.0, 953.0, 789.0 ],
		"bglocked" : 0,
		"defrect" : [ 217.0, 45.0, 953.0, 789.0 ],
		"openrect" : [ 0.0, 0.0, 0.0, 0.0 ],
		"openinpresentation" : 0,
		"default_fontsize" : 12.0,
		"default_fontface" : 0,
		"default_fontname" : "Arial",
		"gridonopen" : 0,
		"gridsize" : [ 15.0, 15.0 ],
		"gridsnaponopen" : 0,
		"toolbarvisible" : 1,
		"boxanimatetime" : 200,
		"imprint" : 0,
		"boxes" : [ 			{
				"box" : 				{
					"maxclass" : "number",
					"fontsize" : 9.0,
					"numinlets" : 1,
					"triscale" : 0.9,
					"htextcolor" : [ 0.870588, 0.870588, 0.870588, 1.0 ],
					"numoutlets" : 2,
					"patching_rect" : [ 527.0, 289.0, 35.0, 17.0 ],
					"outlettype" : [ "int", "bang" ],
					"id" : "obj-1",
					"fontname" : "Arial",
					"bgcolor" : [ 0.866667, 0.866667, 0.866667, 1.0 ]
				}

			}
, 			{
				"box" : 				{
					"maxclass" : "comment",
					"text" : "set the subdivision manually",
					"linecount" : 3,
					"fontsize" : 9.0,
					"numinlets" : 1,
					"frgb" : [ 0.0, 0.0, 0.0, 1.0 ],
					"numoutlets" : 0,
					"patching_rect" : [ 15.0, 142.0, 69.0, 38.0 ],
					"id" : "obj-2",
					"fontname" : "Arial"
				}

			}
, 			{
				"box" : 				{
					"maxclass" : "number",
					"fontsize" : 9.0,
					"numinlets" : 1,
					"triscale" : 0.9,
					"htextcolor" : [ 0.870588, 0.870588, 0.870588, 1.0 ],
					"numoutlets" : 2,
					"patching_rect" : [ 15.0, 97.0, 35.0, 17.0 ],
					"outlettype" : [ "int", "bang" ],
					"id" : "obj-3",
					"fontname" : "Arial",
					"bgcolor" : [ 0.866667, 0.866667, 0.866667, 1.0 ]
				}

			}
, 			{
				"box" : 				{
					"maxclass" : "message",
					"text" : "/subdivision $1",
					"fontsize" : 9.0,
					"numinlets" : 2,
					"numoutlets" : 1,
					"patching_rect" : [ 15.0, 120.0, 81.0, 15.0 ],
					"outlettype" : [ "" ],
					"id" : "obj-4",
					"fontname" : "Arial"
				}

			}
, 			{
				"box" : 				{
					"maxclass" : "toggle",
					"numinlets" : 1,
					"numoutlets" : 1,
					"patching_rect" : [ 102.0, 96.0, 15.0, 15.0 ],
					"outlettype" : [ "int" ],
					"id" : "obj-5"
				}

			}
, 			{
				"box" : 				{
					"maxclass" : "message",
					"text" : "/auto $1",
					"fontsize" : 9.0,
					"numinlets" : 2,
					"numoutlets" : 1,
					"patching_rect" : [ 102.0, 120.0, 50.0, 15.0 ],
					"outlettype" : [ "" ],
					"id" : "obj-6",
					"fontname" : "Arial"
				}

			}
, 			{
				"box" : 				{
					"maxclass" : "button",
					"numinlets" : 1,
					"numoutlets" : 1,
					"patching_rect" : [ 467.0, 322.0, 15.0, 15.0 ],
					"outlettype" : [ "bang" ],
					"id" : "obj-7"
				}

			}
, 			{
				"box" : 				{
					"maxclass" : "button",
					"numinlets" : 1,
					"numoutlets" : 1,
					"patching_rect" : [ 446.0, 322.0, 15.0, 15.0 ],
					"outlettype" : [ "bang" ],
					"id" : "obj-8"
				}

			}
, 			{
				"box" : 				{
					"maxclass" : "comment",
					"text" : "8-way subdivision",
					"linecount" : 2,
					"fontsize" : 9.0,
					"numinlets" : 1,
					"frgb" : [ 0.0, 0.0, 0.0, 1.0 ],
					"numoutlets" : 0,
					"patching_rect" : [ 51.0, 431.0, 58.0, 27.0 ],
					"id" : "obj-9",
					"fontname" : "Arial"
				}

			}
, 			{
				"box" : 				{
					"maxclass" : "scope~",
					"numinlets" : 2,
					"numoutlets" : 0,
					"patching_rect" : [ 30.0, 297.0, 130.0, 130.0 ],
					"id" : "obj-10",
					"rounded" : 0,
					"bgcolor" : [ 0.529412, 0.529412, 0.529412, 1.0 ]
				}

			}
, 			{
				"box" : 				{
					"maxclass" : "newobj",
					"text" : "rate~ 0.125",
					"fontsize" : 9.0,
					"numinlets" : 2,
					"numoutlets" : 1,
					"patching_rect" : [ 30.0, 273.0, 65.0, 17.0 ],
					"outlettype" : [ "signal" ],
					"id" : "obj-11",
					"fontname" : "Arial"
				}

			}
, 			{
				"box" : 				{
					"maxclass" : "message",
					"text" : "reset",
					"fontsize" : 9.0,
					"numinlets" : 2,
					"numoutlets" : 1,
					"patching_rect" : [ 856.0, 91.0, 34.0, 15.0 ],
					"outlettype" : [ "" ],
					"id" : "obj-12",
					"fontname" : "Arial"
				}

			}
, 			{
				"box" : 				{
					"maxclass" : "message",
					"text" : "reset, jump 0.25 0, hold 7.999, jump 0.0625 0.75, ramp 1.3 0.75 33, hold 10",
					"fontsize" : 9.0,
					"numinlets" : 2,
					"numoutlets" : 1,
					"patching_rect" : [ 629.0, 246.0, 367.0, 15.0 ],
					"outlettype" : [ "" ],
					"id" : "obj-13",
					"fontname" : "Arial"
				}

			}
, 			{
				"box" : 				{
					"maxclass" : "message",
					"text" : "1.",
					"fontsize" : 9.0,
					"numinlets" : 2,
					"numoutlets" : 1,
					"patching_rect" : [ 532.0, 421.0, 17.0, 15.0 ],
					"outlettype" : [ "" ],
					"id" : "obj-14",
					"fontname" : "Arial"
				}

			}
, 			{
				"box" : 				{
					"maxclass" : "message",
					"text" : "1.",
					"fontsize" : 9.0,
					"numinlets" : 2,
					"numoutlets" : 1,
					"patching_rect" : [ 445.0, 384.0, 17.0, 15.0 ],
					"outlettype" : [ "" ],
					"id" : "obj-15",
					"fontname" : "Arial"
				}

			}
, 			{
				"box" : 				{
					"maxclass" : "message",
					"text" : "reset, jump 0.25 0, hold 7.999, jump 0.0625 0.75, hold 10",
					"fontsize" : 9.0,
					"numinlets" : 2,
					"numoutlets" : 1,
					"patching_rect" : [ 629.0, 221.0, 280.0, 15.0 ],
					"outlettype" : [ "" ],
					"id" : "obj-16",
					"fontname" : "Arial"
				}

			}
, 			{
				"box" : 				{
					"maxclass" : "newobj",
					"text" : "sig~ 0",
					"fontsize" : 9.0,
					"numinlets" : 1,
					"numoutlets" : 1,
					"patching_rect" : [ 462.0, 153.0, 38.0, 17.0 ],
					"outlettype" : [ "signal" ],
					"id" : "obj-17",
					"fontname" : "Arial"
				}

			}
, 			{
				"box" : 				{
					"maxclass" : "newobj",
					"text" : "selector~ 2",
					"fontsize" : 9.0,
					"numinlets" : 3,
					"numoutlets" : 1,
					"patching_rect" : [ 533.0, 196.0, 62.0, 17.0 ],
					"outlettype" : [ "signal" ],
					"id" : "obj-18",
					"fontname" : "Arial"
				}

			}
, 			{
				"box" : 				{
					"maxclass" : "message",
					"text" : "reset, jump 1 0, hold 16",
					"fontsize" : 9.0,
					"numinlets" : 2,
					"numoutlets" : 1,
					"patching_rect" : [ 718.0, 16.0, 121.0, 15.0 ],
					"outlettype" : [ "" ],
					"id" : "obj-19",
					"fontname" : "Arial"
				}

			}
, 			{
				"box" : 				{
					"maxclass" : "message",
					"text" : "1.5 0 3, hold 2.2, jump 1. 0",
					"fontsize" : 9.0,
					"numinlets" : 2,
					"numoutlets" : 1,
					"patching_rect" : [ 568.0, 16.0, 136.0, 15.0 ],
					"outlettype" : [ "" ],
					"id" : "obj-20",
					"fontname" : "Arial"
				}

			}
, 			{
				"box" : 				{
					"maxclass" : "message",
					"text" : "3 0. 2",
					"fontsize" : 9.0,
					"numinlets" : 2,
					"numoutlets" : 1,
					"patching_rect" : [ 706.0, 40.0, 37.0, 15.0 ],
					"outlettype" : [ "" ],
					"id" : "obj-21",
					"fontname" : "Arial"
				}

			}
, 			{
				"box" : 				{
					"maxclass" : "comment",
					"text" : "BPS",
					"fontsize" : 9.0,
					"numinlets" : 1,
					"frgb" : [ 0.0, 0.0, 0.0, 1.0 ],
					"numoutlets" : 0,
					"patching_rect" : [ 290.0, 105.0, 31.0, 17.0 ],
					"id" : "obj-22",
					"fontname" : "Arial"
				}

			}
, 			{
				"box" : 				{
					"maxclass" : "comment",
					"text" : "BPM",
					"fontsize" : 9.0,
					"numinlets" : 1,
					"frgb" : [ 0.0, 0.0, 0.0, 1.0 ],
					"numoutlets" : 0,
					"patching_rect" : [ 293.0, 52.0, 30.0, 17.0 ],
					"id" : "obj-23",
					"fontname" : "Arial"
				}

			}
, 			{
				"box" : 				{
					"maxclass" : "newobj",
					"text" : "/ 60.",
					"fontsize" : 9.0,
					"numinlets" : 2,
					"numoutlets" : 1,
					"patching_rect" : [ 213.0, 71.0, 34.0, 17.0 ],
					"outlettype" : [ "float" ],
					"id" : "obj-24",
					"fontname" : "Arial"
				}

			}
, 			{
				"box" : 				{
					"maxclass" : "flonum",
					"fontsize" : 18.0,
					"numinlets" : 1,
					"triscale" : 0.9,
					"htextcolor" : [ 0.870588, 0.870588, 0.870588, 1.0 ],
					"numoutlets" : 2,
					"patching_rect" : [ 214.0, 41.0, 77.0, 27.0 ],
					"outlettype" : [ "float", "bang" ],
					"id" : "obj-25",
					"fontname" : "Arial",
					"bgcolor" : [ 0.866667, 0.866667, 0.866667, 1.0 ]
				}

			}
, 			{
				"box" : 				{
					"maxclass" : "comment",
					"text" : "Subdivisions signal",
					"linecount" : 2,
					"fontsize" : 9.0,
					"numinlets" : 1,
					"frgb" : [ 0.0, 0.0, 0.0, 1.0 ],
					"numoutlets" : 0,
					"patching_rect" : [ 164.0, 627.0, 63.0, 27.0 ],
					"id" : "obj-26",
					"fontname" : "Arial"
				}

			}
, 			{
				"box" : 				{
					"maxclass" : "comment",
					"text" : "downbeats signal",
					"linecount" : 2,
					"fontsize" : 9.0,
					"numinlets" : 1,
					"frgb" : [ 0.0, 0.0, 0.0, 1.0 ],
					"numoutlets" : 0,
					"patching_rect" : [ 166.0, 509.0, 57.0, 27.0 ],
					"id" : "obj-27",
					"fontname" : "Arial"
				}

			}
, 			{
				"box" : 				{
					"maxclass" : "comment",
					"text" : "...or use tempocurver",
					"fontsize" : 14.0,
					"numinlets" : 1,
					"frgb" : [ 0.0, 0.0, 0.0, 1.0 ],
					"numoutlets" : 0,
					"patching_rect" : [ 535.0, 39.0, 161.0, 23.0 ],
					"id" : "obj-28",
					"fontname" : "Arial"
				}

			}
, 			{
				"box" : 				{
					"maxclass" : "newobj",
					"text" : "loadmess 1",
					"fontsize" : 9.0,
					"hidden" : 1,
					"numinlets" : 1,
					"numoutlets" : 1,
					"patching_rect" : [ 361.0, 103.0, 60.0, 17.0 ],
					"outlettype" : [ "" ],
					"id" : "obj-29",
					"fontname" : "Arial"
				}

			}
, 			{
				"box" : 				{
					"maxclass" : "umenu",
					"fontsize" : 14.0,
					"numinlets" : 1,
					"items" : [ "[do", "nothing]", ",", "Manual", "(number", "box)", ",", "tempocurver" ],
					"numoutlets" : 3,
					"types" : [  ],
					"patching_rect" : [ 361.0, 126.0, 163.0, 23.0 ],
					"outlettype" : [ "int", "", "" ],
					"id" : "obj-30",
					"labelclick" : 1,
					"fontname" : "Arial"
				}

			}
, 			{
				"box" : 				{
					"maxclass" : "number~",
					"sig" : 0.0,
					"fontsize" : 24.0,
					"numinlets" : 2,
					"mode" : 2,
					"htextcolor" : [ 0.870588, 0.870588, 0.870588, 1.0 ],
					"numoutlets" : 2,
					"patching_rect" : [ 453.0, 221.0, 88.0, 34.0 ],
					"outlettype" : [ "signal", "float" ],
					"id" : "obj-31",
					"fontname" : "Arial",
					"bgcolor" : [ 0.866667, 0.866667, 0.866667, 1.0 ],
					"interval" : 250.0
				}

			}
, 			{
				"box" : 				{
					"maxclass" : "newobj",
					"text" : "*~ 1000.",
					"fontsize" : 9.0,
					"numinlets" : 2,
					"numoutlets" : 1,
					"patching_rect" : [ 590.0, 424.0, 53.0, 17.0 ],
					"outlettype" : [ "signal" ],
					"id" : "obj-32",
					"fontname" : "Arial"
				}

			}
, 			{
				"box" : 				{
					"maxclass" : "newobj",
					"text" : "*~ 1000.",
					"fontsize" : 9.0,
					"numinlets" : 2,
					"numoutlets" : 1,
					"patching_rect" : [ 453.0, 424.0, 56.0, 17.0 ],
					"outlettype" : [ "signal" ],
					"id" : "obj-33",
					"fontname" : "Arial"
				}

			}
, 			{
				"box" : 				{
					"maxclass" : "newobj",
					"text" : "selector~ 2",
					"fontsize" : 9.0,
					"numinlets" : 3,
					"numoutlets" : 1,
					"patching_rect" : [ 416.0, 199.0, 62.0, 17.0 ],
					"outlettype" : [ "signal" ],
					"id" : "obj-34",
					"fontname" : "Arial"
				}

			}
, 			{
				"box" : 				{
					"maxclass" : "newobj",
					"text" : "selector~ 2",
					"fontsize" : 9.0,
					"numinlets" : 3,
					"numoutlets" : 1,
					"patching_rect" : [ 267.0, 199.0, 62.0, 17.0 ],
					"outlettype" : [ "signal" ],
					"id" : "obj-35",
					"fontname" : "Arial"
				}

			}
, 			{
				"box" : 				{
					"maxclass" : "comment",
					"text" : "tempo (to choose subdivision level automatically)",
					"linecount" : 3,
					"fontsize" : 9.0,
					"numinlets" : 1,
					"frgb" : [ 0.0, 0.0, 0.0, 1.0 ],
					"numoutlets" : 0,
					"patching_rect" : [ 359.0, 222.0, 89.0, 38.0 ],
					"id" : "obj-36",
					"fontname" : "Arial"
				}

			}
, 			{
				"box" : 				{
					"maxclass" : "comment",
					"text" : "beat signal",
					"fontsize" : 9.0,
					"numinlets" : 1,
					"frgb" : [ 0.0, 0.0, 0.0, 1.0 ],
					"numoutlets" : 0,
					"patching_rect" : [ 282.0, 223.0, 58.0, 17.0 ],
					"id" : "obj-37",
					"fontname" : "Arial"
				}

			}
, 			{
				"box" : 				{
					"maxclass" : "number",
					"fontsize" : 9.0,
					"numinlets" : 1,
					"triscale" : 0.9,
					"htextcolor" : [ 0.870588, 0.870588, 0.870588, 1.0 ],
					"numoutlets" : 2,
					"patching_rect" : [ 442.0, 289.0, 35.0, 17.0 ],
					"outlettype" : [ "int", "bang" ],
					"id" : "obj-38",
					"fontname" : "Arial",
					"bgcolor" : [ 0.866667, 0.866667, 0.866667, 1.0 ]
				}

			}
, 			{
				"box" : 				{
					"maxclass" : "newobj",
					"text" : "OSC-route /subdivision /subdiv-index",
					"fontsize" : 9.0,
					"numinlets" : 1,
					"numoutlets" : 3,
					"patching_rect" : [ 442.0, 268.0, 180.0, 17.0 ],
					"outlettype" : [ "list", "list", "list" ],
					"id" : "obj-39",
					"fontname" : "Arial"
				}

			}
, 			{
				"box" : 				{
					"maxclass" : "scope~",
					"numinlets" : 2,
					"numoutlets" : 0,
					"patching_rect" : [ 228.0, 587.0, 130.0, 130.0 ],
					"id" : "obj-40",
					"rounded" : 0,
					"bgcolor" : [ 0.529412, 0.529412, 0.529412, 1.0 ]
				}

			}
, 			{
				"box" : 				{
					"maxclass" : "newobj",
					"text" : "nothing",
					"fontsize" : 9.0,
					"numinlets" : 8,
					"numoutlets" : 8,
					"patching_rect" : [ 213.0, 121.0, 42.0, 17.0 ],
					"outlettype" : [ "float", "", "", "", "", "", "", "" ],
					"id" : "obj-41",
					"fontname" : "Arial"
				}

			}
, 			{
				"box" : 				{
					"maxclass" : "newobj",
					"text" : "sig~",
					"fontsize" : 9.0,
					"numinlets" : 1,
					"numoutlets" : 1,
					"patching_rect" : [ 281.0, 146.0, 29.0, 17.0 ],
					"outlettype" : [ "signal" ],
					"id" : "obj-42",
					"fontname" : "Arial"
				}

			}
, 			{
				"box" : 				{
					"maxclass" : "scope~",
					"numinlets" : 2,
					"numoutlets" : 0,
					"patching_rect" : [ 228.0, 322.0, 130.0, 130.0 ],
					"id" : "obj-43",
					"rounded" : 0,
					"bgcolor" : [ 0.529412, 0.529412, 0.529412, 1.0 ]
				}

			}
, 			{
				"box" : 				{
					"maxclass" : "scope~",
					"numinlets" : 2,
					"numoutlets" : 0,
					"patching_rect" : [ 228.0, 454.0, 130.0, 130.0 ],
					"id" : "obj-44",
					"rounded" : 0,
					"bgcolor" : [ 0.529412, 0.529412, 0.529412, 1.0 ]
				}

			}
, 			{
				"box" : 				{
					"maxclass" : "flonum",
					"fontsize" : 18.0,
					"numinlets" : 1,
					"triscale" : 0.9,
					"htextcolor" : [ 0.870588, 0.870588, 0.870588, 1.0 ],
					"numoutlets" : 2,
					"patching_rect" : [ 213.0, 91.0, 77.0, 27.0 ],
					"outlettype" : [ "float", "bang" ],
					"id" : "obj-45",
					"fontname" : "Arial",
					"bgcolor" : [ 0.866667, 0.866667, 0.866667, 1.0 ]
				}

			}
, 			{
				"box" : 				{
					"maxclass" : "newobj",
					"text" : "phasor~ 0.",
					"fontsize" : 9.0,
					"numinlets" : 2,
					"numoutlets" : 1,
					"patching_rect" : [ 213.0, 147.0, 64.0, 17.0 ],
					"outlettype" : [ "signal" ],
					"id" : "obj-46",
					"fontname" : "Arial"
				}

			}
, 			{
				"box" : 				{
					"maxclass" : "newobj",
					"text" : "tc_subdivider~",
					"fontsize" : 18.0,
					"numinlets" : 3,
					"numoutlets" : 5,
					"patching_rect" : [ 269.0, 264.0, 142.0, 27.0 ],
					"outlettype" : [ "signal", "signal", "bang", "bang", "" ],
					"id" : "obj-47",
					"fontname" : "Arial"
				}

			}
, 			{
				"box" : 				{
					"maxclass" : "message",
					"text" : "2.1 0.333 0",
					"fontsize" : 9.0,
					"numinlets" : 2,
					"numoutlets" : 1,
					"patching_rect" : [ 617.0, 63.0, 64.0, 15.0 ],
					"outlettype" : [ "" ],
					"id" : "obj-48",
					"fontname" : "Arial"
				}

			}
, 			{
				"box" : 				{
					"maxclass" : "message",
					"text" : "version",
					"fontsize" : 9.0,
					"numinlets" : 2,
					"numoutlets" : 1,
					"patching_rect" : [ 780.0, 116.0, 44.0, 15.0 ],
					"outlettype" : [ "" ],
					"id" : "obj-49",
					"fontname" : "Arial"
				}

			}
, 			{
				"box" : 				{
					"maxclass" : "message",
					"text" : "startwindow",
					"fontsize" : 9.0,
					"numinlets" : 2,
					"numoutlets" : 1,
					"patching_rect" : [ 443.0, 636.0, 67.0, 15.0 ],
					"outlettype" : [ "" ],
					"id" : "obj-50",
					"fontname" : "Arial"
				}

			}
, 			{
				"box" : 				{
					"maxclass" : "toggle",
					"numinlets" : 1,
					"numoutlets" : 1,
					"patching_rect" : [ 740.0, 65.0, 15.0, 15.0 ],
					"outlettype" : [ "int" ],
					"id" : "obj-51"
				}

			}
, 			{
				"box" : 				{
					"maxclass" : "message",
					"text" : "verbose $1",
					"fontsize" : 9.0,
					"numinlets" : 2,
					"numoutlets" : 1,
					"patching_rect" : [ 740.0, 86.0, 61.0, 15.0 ],
					"outlettype" : [ "" ],
					"id" : "obj-52",
					"fontname" : "Arial"
				}

			}
, 			{
				"box" : 				{
					"maxclass" : "message",
					"text" : "3 0. 2",
					"fontsize" : 9.0,
					"numinlets" : 2,
					"numoutlets" : 1,
					"patching_rect" : [ 684.0, 63.0, 37.0, 15.0 ],
					"outlettype" : [ "" ],
					"id" : "obj-53",
					"fontname" : "Arial"
				}

			}
, 			{
				"box" : 				{
					"maxclass" : "newobj",
					"text" : "resonators~ 1000. 0.5 14. 10000 0.1 28",
					"linecount" : 2,
					"fontsize" : 9.0,
					"numinlets" : 1,
					"numoutlets" : 2,
					"patching_rect" : [ 590.0, 448.0, 131.0, 27.0 ],
					"outlettype" : [ "signal", "list" ],
					"id" : "obj-54",
					"fontname" : "Arial"
				}

			}
, 			{
				"box" : 				{
					"maxclass" : "ezdac~",
					"numinlets" : 2,
					"numoutlets" : 0,
					"patching_rect" : [ 459.0, 599.0, 33.0, 33.0 ],
					"id" : "obj-55"
				}

			}
, 			{
				"box" : 				{
					"maxclass" : "gain~",
					"numinlets" : 2,
					"numoutlets" : 2,
					"patching_rect" : [ 477.0, 494.0, 46.0, 98.0 ],
					"outlettype" : [ "signal", "int" ],
					"id" : "obj-56",
					"orientation" : 2
				}

			}
, 			{
				"box" : 				{
					"maxclass" : "newobj",
					"text" : "resonators~ 400. 0.5 14. 4000 0.1 28",
					"linecount" : 2,
					"fontsize" : 9.0,
					"numinlets" : 1,
					"numoutlets" : 2,
					"patching_rect" : [ 453.0, 449.0, 126.0, 27.0 ],
					"outlettype" : [ "signal", "list" ],
					"id" : "obj-57",
					"fontname" : "Arial"
				}

			}
, 			{
				"box" : 				{
					"maxclass" : "message",
					"text" : "1.01 2 5",
					"fontsize" : 9.0,
					"numinlets" : 2,
					"numoutlets" : 1,
					"patching_rect" : [ 681.0, 83.0, 49.0, 15.0 ],
					"outlettype" : [ "" ],
					"id" : "obj-58",
					"fontname" : "Arial"
				}

			}
, 			{
				"box" : 				{
					"maxclass" : "message",
					"text" : "2 0.5 5",
					"fontsize" : 9.0,
					"numinlets" : 2,
					"numoutlets" : 1,
					"patching_rect" : [ 572.0, 63.0, 43.0, 15.0 ],
					"outlettype" : [ "" ],
					"id" : "obj-59",
					"fontname" : "Arial"
				}

			}
, 			{
				"box" : 				{
					"maxclass" : "message",
					"text" : "2 0 5",
					"fontsize" : 9.0,
					"numinlets" : 2,
					"numoutlets" : 1,
					"patching_rect" : [ 536.0, 63.0, 34.0, 15.0 ],
					"outlettype" : [ "" ],
					"id" : "obj-60",
					"fontname" : "Arial"
				}

			}
, 			{
				"box" : 				{
					"maxclass" : "message",
					"text" : "1 0.5 10",
					"fontsize" : 9.0,
					"numinlets" : 2,
					"numoutlets" : 1,
					"patching_rect" : [ 536.0, 83.0, 49.0, 15.0 ],
					"outlettype" : [ "" ],
					"id" : "obj-61",
					"fontname" : "Arial"
				}

			}
, 			{
				"box" : 				{
					"maxclass" : "message",
					"text" : "1.01 2 3",
					"fontsize" : 9.0,
					"numinlets" : 2,
					"numoutlets" : 1,
					"patching_rect" : [ 627.0, 83.0, 49.0, 15.0 ],
					"outlettype" : [ "" ],
					"id" : "obj-62",
					"fontname" : "Arial"
				}

			}
, 			{
				"box" : 				{
					"maxclass" : "message",
					"text" : "1 0",
					"fontsize" : 9.0,
					"numinlets" : 2,
					"numoutlets" : 1,
					"patching_rect" : [ 536.0, 106.0, 26.0, 15.0 ],
					"outlettype" : [ "" ],
					"id" : "obj-63",
					"fontname" : "Arial"
				}

			}
, 			{
				"box" : 				{
					"maxclass" : "message",
					"text" : "0 1",
					"fontsize" : 9.0,
					"numinlets" : 2,
					"numoutlets" : 1,
					"patching_rect" : [ 600.0, 106.0, 23.0, 15.0 ],
					"outlettype" : [ "" ],
					"id" : "obj-64",
					"fontname" : "Arial"
				}

			}
, 			{
				"box" : 				{
					"maxclass" : "message",
					"text" : "1 0.5",
					"fontsize" : 9.0,
					"numinlets" : 2,
					"numoutlets" : 1,
					"patching_rect" : [ 564.0, 106.0, 34.0, 15.0 ],
					"outlettype" : [ "" ],
					"id" : "obj-65",
					"fontname" : "Arial"
				}

			}
, 			{
				"box" : 				{
					"maxclass" : "message",
					"text" : "1 0 10",
					"fontsize" : 9.0,
					"numinlets" : 2,
					"numoutlets" : 1,
					"patching_rect" : [ 586.0, 83.0, 40.0, 15.0 ],
					"outlettype" : [ "" ],
					"id" : "obj-66",
					"fontname" : "Arial"
				}

			}
, 			{
				"box" : 				{
					"maxclass" : "message",
					"text" : "viewsource",
					"fontsize" : 9.0,
					"numinlets" : 2,
					"numoutlets" : 1,
					"patching_rect" : [ 715.0, 116.0, 62.0, 15.0 ],
					"outlettype" : [ "" ],
					"id" : "obj-67",
					"fontname" : "Arial"
				}

			}
, 			{
				"box" : 				{
					"maxclass" : "newobj",
					"text" : "mxj~ tempocurver",
					"fontsize" : 9.0,
					"numinlets" : 1,
					"numoutlets" : 4,
					"patching_rect" : [ 635.0, 139.0, 95.0, 17.0 ],
					"outlettype" : [ "signal", "signal", "signal", "" ],
					"id" : "obj-68",
					"fontname" : "Arial"
				}

			}
, 			{
				"box" : 				{
					"maxclass" : "comment",
					"text" : "Manually set tempo...",
					"fontsize" : 14.0,
					"numinlets" : 1,
					"frgb" : [ 0.0, 0.0, 0.0, 1.0 ],
					"numoutlets" : 0,
					"patching_rect" : [ 213.0, 20.0, 156.0, 23.0 ],
					"id" : "obj-69",
					"fontname" : "Arial"
				}

			}
, 			{
				"box" : 				{
					"maxclass" : "comment",
					"text" : "<--- The beats and subdivisions are *signals*, so we never suffer the viscissitudes of Max's event scheduler.",
					"linecount" : 4,
					"fontsize" : 9.0,
					"numinlets" : 1,
					"frgb" : [ 0.0, 0.0, 0.0, 1.0 ],
					"numoutlets" : 0,
					"patching_rect" : [ 541.0, 344.0, 162.0, 48.0 ],
					"id" : "obj-70",
					"fontname" : "Arial"
				}

			}
, 			{
				"box" : 				{
					"maxclass" : "comment",
					"text" : "Too bad nobody's written a sampler that can be triggered sample-accurately. I hope you like the sound of resonators~.",
					"linecount" : 3,
					"fontsize" : 9.0,
					"numinlets" : 1,
					"frgb" : [ 0.0, 0.0, 0.0, 1.0 ],
					"numoutlets" : 0,
					"patching_rect" : [ 536.0, 489.0, 192.0, 38.0 ],
					"id" : "obj-71",
					"fontname" : "Arial"
				}

			}
, 			{
				"box" : 				{
					"maxclass" : "comment",
					"text" : "beat signal",
					"fontsize" : 9.0,
					"numinlets" : 1,
					"frgb" : [ 0.0, 0.0, 0.0, 1.0 ],
					"numoutlets" : 0,
					"patching_rect" : [ 166.0, 379.0, 58.0, 17.0 ],
					"id" : "obj-72",
					"fontname" : "Arial"
				}

			}
, 			{
				"box" : 				{
					"maxclass" : "comment",
					"text" : "let rm_subdivider choose the subdivisions automagically based on the tempo",
					"linecount" : 5,
					"fontsize" : 9.0,
					"numinlets" : 1,
					"frgb" : [ 0.0, 0.0, 0.0, 1.0 ],
					"numoutlets" : 0,
					"patching_rect" : [ 102.0, 142.0, 100.0, 58.0 ],
					"id" : "obj-73",
					"fontname" : "Arial"
				}

			}
 ],
		"lines" : [ 			{
				"patchline" : 				{
					"source" : [ "obj-51", 0 ],
					"destination" : [ "obj-52", 0 ],
					"hidden" : 0,
					"midpoints" : [  ]
				}

			}
, 			{
				"patchline" : 				{
					"source" : [ "obj-12", 0 ],
					"destination" : [ "obj-68", 0 ],
					"hidden" : 0,
					"midpoints" : [  ]
				}

			}
, 			{
				"patchline" : 				{
					"source" : [ "obj-13", 0 ],
					"destination" : [ "obj-68", 0 ],
					"hidden" : 0,
					"midpoints" : [  ]
				}

			}
, 			{
				"patchline" : 				{
					"source" : [ "obj-16", 0 ],
					"destination" : [ "obj-68", 0 ],
					"hidden" : 0,
					"midpoints" : [  ]
				}

			}
, 			{
				"patchline" : 				{
					"source" : [ "obj-19", 0 ],
					"destination" : [ "obj-68", 0 ],
					"hidden" : 0,
					"midpoints" : [  ]
				}

			}
, 			{
				"patchline" : 				{
					"source" : [ "obj-20", 0 ],
					"destination" : [ "obj-68", 0 ],
					"hidden" : 0,
					"midpoints" : [  ]
				}

			}
, 			{
				"patchline" : 				{
					"source" : [ "obj-48", 0 ],
					"destination" : [ "obj-68", 0 ],
					"hidden" : 0,
					"midpoints" : [  ]
				}

			}
, 			{
				"patchline" : 				{
					"source" : [ "obj-59", 0 ],
					"destination" : [ "obj-68", 0 ],
					"hidden" : 0,
					"midpoints" : [  ]
				}

			}
, 			{
				"patchline" : 				{
					"source" : [ "obj-60", 0 ],
					"destination" : [ "obj-68", 0 ],
					"hidden" : 0,
					"midpoints" : [  ]
				}

			}
, 			{
				"patchline" : 				{
					"source" : [ "obj-63", 0 ],
					"destination" : [ "obj-68", 0 ],
					"hidden" : 0,
					"midpoints" : [  ]
				}

			}
, 			{
				"patchline" : 				{
					"source" : [ "obj-65", 0 ],
					"destination" : [ "obj-68", 0 ],
					"hidden" : 0,
					"midpoints" : [  ]
				}

			}
, 			{
				"patchline" : 				{
					"source" : [ "obj-67", 0 ],
					"destination" : [ "obj-68", 0 ],
					"hidden" : 0,
					"midpoints" : [  ]
				}

			}
, 			{
				"patchline" : 				{
					"source" : [ "obj-66", 0 ],
					"destination" : [ "obj-68", 0 ],
					"hidden" : 0,
					"midpoints" : [  ]
				}

			}
, 			{
				"patchline" : 				{
					"source" : [ "obj-64", 0 ],
					"destination" : [ "obj-68", 0 ],
					"hidden" : 0,
					"midpoints" : [  ]
				}

			}
, 			{
				"patchline" : 				{
					"source" : [ "obj-62", 0 ],
					"destination" : [ "obj-68", 0 ],
					"hidden" : 0,
					"midpoints" : [  ]
				}

			}
, 			{
				"patchline" : 				{
					"source" : [ "obj-61", 0 ],
					"destination" : [ "obj-68", 0 ],
					"hidden" : 0,
					"midpoints" : [  ]
				}

			}
, 			{
				"patchline" : 				{
					"source" : [ "obj-58", 0 ],
					"destination" : [ "obj-68", 0 ],
					"hidden" : 0,
					"midpoints" : [  ]
				}

			}
, 			{
				"patchline" : 				{
					"source" : [ "obj-53", 0 ],
					"destination" : [ "obj-68", 0 ],
					"hidden" : 0,
					"midpoints" : [  ]
				}

			}
, 			{
				"patchline" : 				{
					"source" : [ "obj-52", 0 ],
					"destination" : [ "obj-68", 0 ],
					"hidden" : 0,
					"midpoints" : [  ]
				}

			}
, 			{
				"patchline" : 				{
					"source" : [ "obj-49", 0 ],
					"destination" : [ "obj-68", 0 ],
					"hidden" : 0,
					"midpoints" : [  ]
				}

			}
, 			{
				"patchline" : 				{
					"source" : [ "obj-14", 0 ],
					"destination" : [ "obj-54", 0 ],
					"hidden" : 0,
					"midpoints" : [  ]
				}

			}
, 			{
				"patchline" : 				{
					"source" : [ "obj-32", 0 ],
					"destination" : [ "obj-54", 0 ],
					"hidden" : 0,
					"midpoints" : [  ]
				}

			}
, 			{
				"patchline" : 				{
					"source" : [ "obj-47", 1 ],
					"destination" : [ "obj-32", 0 ],
					"hidden" : 0,
					"midpoints" : [  ]
				}

			}
, 			{
				"patchline" : 				{
					"source" : [ "obj-68", 2 ],
					"destination" : [ "obj-18", 2 ],
					"hidden" : 0,
					"midpoints" : [  ]
				}

			}
, 			{
				"patchline" : 				{
					"source" : [ "obj-17", 0 ],
					"destination" : [ "obj-18", 1 ],
					"hidden" : 0,
					"midpoints" : [  ]
				}

			}
, 			{
				"patchline" : 				{
					"source" : [ "obj-30", 0 ],
					"destination" : [ "obj-18", 0 ],
					"hidden" : 0,
					"midpoints" : [  ]
				}

			}
, 			{
				"patchline" : 				{
					"source" : [ "obj-39", 1 ],
					"destination" : [ "obj-1", 0 ],
					"hidden" : 0,
					"midpoints" : [  ]
				}

			}
, 			{
				"patchline" : 				{
					"source" : [ "obj-56", 0 ],
					"destination" : [ "obj-55", 1 ],
					"hidden" : 0,
					"midpoints" : [  ]
				}

			}
, 			{
				"patchline" : 				{
					"source" : [ "obj-54", 0 ],
					"destination" : [ "obj-56", 0 ],
					"hidden" : 0,
					"midpoints" : [  ]
				}

			}
, 			{
				"patchline" : 				{
					"source" : [ "obj-57", 0 ],
					"destination" : [ "obj-56", 0 ],
					"hidden" : 0,
					"midpoints" : [  ]
				}

			}
, 			{
				"patchline" : 				{
					"source" : [ "obj-68", 1 ],
					"destination" : [ "obj-34", 2 ],
					"hidden" : 0,
					"midpoints" : [  ]
				}

			}
, 			{
				"patchline" : 				{
					"source" : [ "obj-47", 3 ],
					"destination" : [ "obj-7", 0 ],
					"hidden" : 0,
					"midpoints" : [  ]
				}

			}
, 			{
				"patchline" : 				{
					"source" : [ "obj-50", 0 ],
					"destination" : [ "obj-55", 0 ],
					"hidden" : 0,
					"midpoints" : [  ]
				}

			}
, 			{
				"patchline" : 				{
					"source" : [ "obj-56", 0 ],
					"destination" : [ "obj-55", 0 ],
					"hidden" : 0,
					"midpoints" : [  ]
				}

			}
, 			{
				"patchline" : 				{
					"source" : [ "obj-15", 0 ],
					"destination" : [ "obj-57", 0 ],
					"hidden" : 0,
					"midpoints" : [  ]
				}

			}
, 			{
				"patchline" : 				{
					"source" : [ "obj-33", 0 ],
					"destination" : [ "obj-57", 0 ],
					"hidden" : 0,
					"midpoints" : [  ]
				}

			}
, 			{
				"patchline" : 				{
					"source" : [ "obj-47", 0 ],
					"destination" : [ "obj-33", 0 ],
					"hidden" : 0,
					"midpoints" : [  ]
				}

			}
, 			{
				"patchline" : 				{
					"source" : [ "obj-34", 0 ],
					"destination" : [ "obj-31", 0 ],
					"hidden" : 0,
					"midpoints" : [  ]
				}

			}
, 			{
				"patchline" : 				{
					"source" : [ "obj-47", 2 ],
					"destination" : [ "obj-8", 0 ],
					"hidden" : 0,
					"midpoints" : [  ]
				}

			}
, 			{
				"patchline" : 				{
					"source" : [ "obj-39", 0 ],
					"destination" : [ "obj-38", 0 ],
					"hidden" : 0,
					"midpoints" : [  ]
				}

			}
, 			{
				"patchline" : 				{
					"source" : [ "obj-47", 4 ],
					"destination" : [ "obj-39", 0 ],
					"hidden" : 0,
					"midpoints" : [  ]
				}

			}
, 			{
				"patchline" : 				{
					"source" : [ "obj-42", 0 ],
					"destination" : [ "obj-34", 1 ],
					"hidden" : 0,
					"midpoints" : [  ]
				}

			}
, 			{
				"patchline" : 				{
					"source" : [ "obj-30", 0 ],
					"destination" : [ "obj-34", 0 ],
					"hidden" : 0,
					"midpoints" : [  ]
				}

			}
, 			{
				"patchline" : 				{
					"source" : [ "obj-18", 0 ],
					"destination" : [ "obj-47", 2 ],
					"hidden" : 0,
					"midpoints" : [  ]
				}

			}
, 			{
				"patchline" : 				{
					"source" : [ "obj-29", 0 ],
					"destination" : [ "obj-30", 0 ],
					"hidden" : 1,
					"midpoints" : [  ]
				}

			}
, 			{
				"patchline" : 				{
					"source" : [ "obj-34", 0 ],
					"destination" : [ "obj-47", 1 ],
					"hidden" : 0,
					"midpoints" : [  ]
				}

			}
, 			{
				"patchline" : 				{
					"source" : [ "obj-68", 0 ],
					"destination" : [ "obj-35", 2 ],
					"hidden" : 0,
					"midpoints" : [  ]
				}

			}
, 			{
				"patchline" : 				{
					"source" : [ "obj-46", 0 ],
					"destination" : [ "obj-35", 1 ],
					"hidden" : 0,
					"midpoints" : [  ]
				}

			}
, 			{
				"patchline" : 				{
					"source" : [ "obj-41", 0 ],
					"destination" : [ "obj-42", 0 ],
					"hidden" : 0,
					"midpoints" : [  ]
				}

			}
, 			{
				"patchline" : 				{
					"source" : [ "obj-4", 0 ],
					"destination" : [ "obj-47", 0 ],
					"hidden" : 0,
					"midpoints" : [  ]
				}

			}
, 			{
				"patchline" : 				{
					"source" : [ "obj-6", 0 ],
					"destination" : [ "obj-47", 0 ],
					"hidden" : 0,
					"midpoints" : [  ]
				}

			}
, 			{
				"patchline" : 				{
					"source" : [ "obj-35", 0 ],
					"destination" : [ "obj-47", 0 ],
					"hidden" : 0,
					"midpoints" : [  ]
				}

			}
, 			{
				"patchline" : 				{
					"source" : [ "obj-30", 0 ],
					"destination" : [ "obj-35", 0 ],
					"hidden" : 0,
					"midpoints" : [  ]
				}

			}
, 			{
				"patchline" : 				{
					"source" : [ "obj-47", 1 ],
					"destination" : [ "obj-40", 0 ],
					"hidden" : 0,
					"midpoints" : [  ]
				}

			}
, 			{
				"patchline" : 				{
					"source" : [ "obj-47", 0 ],
					"destination" : [ "obj-44", 0 ],
					"hidden" : 0,
					"midpoints" : [  ]
				}

			}
, 			{
				"patchline" : 				{
					"source" : [ "obj-35", 0 ],
					"destination" : [ "obj-43", 0 ],
					"hidden" : 0,
					"midpoints" : [  ]
				}

			}
, 			{
				"patchline" : 				{
					"source" : [ "obj-41", 0 ],
					"destination" : [ "obj-46", 0 ],
					"hidden" : 0,
					"midpoints" : [  ]
				}

			}
, 			{
				"patchline" : 				{
					"source" : [ "obj-45", 0 ],
					"destination" : [ "obj-41", 0 ],
					"hidden" : 0,
					"midpoints" : [  ]
				}

			}
, 			{
				"patchline" : 				{
					"source" : [ "obj-24", 0 ],
					"destination" : [ "obj-45", 0 ],
					"hidden" : 0,
					"midpoints" : [  ]
				}

			}
, 			{
				"patchline" : 				{
					"source" : [ "obj-25", 0 ],
					"destination" : [ "obj-24", 0 ],
					"hidden" : 0,
					"midpoints" : [  ]
				}

			}
, 			{
				"patchline" : 				{
					"source" : [ "obj-5", 0 ],
					"destination" : [ "obj-6", 0 ],
					"hidden" : 0,
					"midpoints" : [  ]
				}

			}
, 			{
				"patchline" : 				{
					"source" : [ "obj-11", 0 ],
					"destination" : [ "obj-10", 0 ],
					"hidden" : 0,
					"midpoints" : [  ]
				}

			}
, 			{
				"patchline" : 				{
					"source" : [ "obj-35", 0 ],
					"destination" : [ "obj-11", 0 ],
					"hidden" : 0,
					"midpoints" : [  ]
				}

			}
, 			{
				"patchline" : 				{
					"source" : [ "obj-3", 0 ],
					"destination" : [ "obj-4", 0 ],
					"hidden" : 0,
					"midpoints" : [  ]
				}

			}
 ]
	}

}
